<?xml version="1.0" encoding="UTF-8" standalone="no"?>
<!-- Created with Inkscape (http://www.inkscape.org/) -->

<svg
   width="121.46333"
   height="148.69803"
   version="1.1"
   viewBox="0 0 121.46333 148.69803"
   xml:space="preserve"
   id="svg6863"
   sodipodi:docname="beer.svg"
   inkscape:version="1.1.1 (eb90963e84, 2021-10-02)"
   xmlns:inkscape="http://www.inkscape.org/namespaces/inkscape"
   xmlns:sodipodi="http://sodipodi.sourceforge.net/DTD/sodipodi-0.dtd"
   xmlns="http://www.w3.org/2000/svg"
   xmlns:svg="http://www.w3.org/2000/svg"><sodipodi:namedview
     id="namedview6865"
     pagecolor="#505050"
     bordercolor="#eeeeee"
     borderopacity="1"
     inkscape:pageshadow="0"
     inkscape:pageopacity="0"
     inkscape:pagecheckerboard="0"
     showgrid="false"
     fit-margin-top="0"
     fit-margin-left="0"
     fit-margin-right="0"
     fit-margin-bottom="0"
     inkscape:zoom="0.66245342"
     inkscape:cx="-142.65154"
     inkscape:cy="184.16389"
     inkscape:window-width="2560"
     inkscape:window-height="1411"
     inkscape:window-x="0"
     inkscape:window-y="0"
     inkscape:window-maximized="0"
     inkscape:current-layer="svg6863" /><defs
     id="defs2622"><clipPath
       id="clipPath4465"><g
         id="use2619"><path
           d="m 10384,9282 c -1.3,-2.21 -5.3,-4.11 -8.6,-4.11 -3.3,0 -5,1.9 -3.7,4.11 1.3,2.18 5.4,4.08 8.7,4.08 3.2,0 4.9,-1.9 3.6,-4.08 z m 30.7,12.25 c 0,-2.33 -3,-4.06 -7.1,-4.06 -6.2,0 -6.3,0.57 -1.1,4.02 7.8,5.12 8.2,5.12 8.2,0.04 z m -280.7,81.74 c -1.4,-2.34 -3.8,-3 -6.2,-1.65 -2.3,1.39 -3,3.82 -1.6,6.15 1.3,2.34 3.8,2.98 6.1,1.65 2.4,-1.35 3,-3.82 1.7,-6.15 z m 4.5,30.52 c -1.5,-7.79 -4.2,-13.95 -6.2,-13.95 -1.9,0 -1.9,6.98 0,15.17 1.9,8.18 3.4,16.29 3.2,17.63 -0.7,6.97 2,8.79 3.7,2.46 1.1,-4.11 0.7,-13.51 -0.7,-21.31 z m 846.2,189.87 c -4,-3.98 -4.5,-3.5 -2.5,2.25 1.5,4.08 3.8,6.37 5.1,5.12 1.4,-1.26 0.3,-4.51 -2.6,-7.37 z m -766.6,72.28 c 0,-0.9 -3.7,-1.64 -8.2,-1.64 -4.5,0 -8.2,1.64 -8.2,3.68 0,2.04 3.7,2.77 8.2,1.65 4.5,-1.12 8.2,-2.78 8.2,-3.69 z m -763.68,101.57 c -1.26,-1.35 -4.5,-0.18 -7.38,2.68 -3.95,3.99 -3.46,4.51 2.26,2.47 4.1,-1.52 6.38,-3.76 5.12,-5.15 z m 841.48,19.66 c 0,-2.38 -2.6,-4.06 -6.3,-4.06 -3.7,0 -5.3,1.68 -3.9,4.06 1.5,2.47 4,4.11 6.4,4.11 2.3,0 3.8,-1.64 3.8,-4.11 z m 4.2,12.29 c 0,-2.45 -0.8,-4.1 -1.9,-4.1 -1.1,0 -2.8,1.65 -4.3,4.1 -1.4,2.35 -0.6,4.13 1.9,4.13 2.4,0 4.3,-1.78 4.3,-4.13 z m 26.6,19.45 c -3.7,-2.03 -8,-2.72 -9.2,-1.42 -1.4,1.42 -0.3,2.46 2.6,2.46 2.9,0 3.9,1.69 2.5,4.08 -1.5,2.5 0.2,3.07 4.3,1.47 6.3,-2.52 6.3,-2.91 -0.2,-6.59 z m -830.7,60.03 c -1.32,-1.35 -4.92,-1.52 -7.78,-0.44 -3.37,1.31 -2.46,2.22 2.45,2.48 4.1,0.22 6.64,-0.74 5.33,-2.04 z m 1182.9,21.26 c 54.5,-8.23 116,-28.5 135.2,-44.47 44.2,-36.86 92.3,-95.63 86.1,-105.43 -1.5,-2.45 -0.9,-4.1 1.6,-4.1 2.2,0 5.2,-3.68 6.5,-8.19 1.3,-4.49 4.7,-8.19 7.4,-8.19 2.7,0 5.2,-5.71 5.7,-12.68 0.5,-6.97 2.9,-15.12 5.4,-18.02 2.4,-2.9 5.1,-8.79 5.9,-12.9 0.8,-4.21 4.5,-19.45 8.4,-34.22 6.8,-25.42 6.8,-52.39 0.5,-107.32 -3,-25.81 -14.7,-54.7 -28.9,-71.24 -14.4,-16.85 -25.7,-23.64 -63.8,-38.42 -12.3,-4.72 -26.2,-10.35 -30.7,-12.38 -7.2,-3.21 -49.6,-14.77 -67.6,-18.42 -3.4,-0.68 -29.3,-8.87 -57.1,-18.05 -27.9,-9.18 -55.2,-16.81 -60.2,-16.81 -5,0 -14.2,-1.85 -19.9,-4.06 -5.9,-2.26 -23,-6.84 -38.1,-10.28 -15.3,-3.4 -40.1,-9.81 -56.1,-14.5 -15.8,-4.63 -47.1,-11.91 -69.6,-16.2 -22.6,-4.29 -51.2,-11.74 -63.5,-16.58 -12.3,-4.8 -36.5,-13.12 -53.3,-18.28 -47.5,-14.68 -112.5,-37.15 -121.6,-42.14 -8.8,-4.72 -74.2,-22.3 -100.8,-27.03 l -16,-2.84 9.5,13.51 c 5.1,7.36 10.7,14.42 12.2,15.53 1.6,1.14 6.9,12.31 11.7,24.6 4.8,12.27 11.6,28.11 14.8,34.82 9.9,20.06 29.6,97.33 28.2,110.18 -0.8,6.94 -0.1,14.13 1.7,16.59 1.6,2.34 3.3,8.4 3.7,13.3 0.3,4.94 4.4,27.63 9.2,50.19 4.7,22.52 7.3,43.27 5.7,45.88 -1.7,2.72 -0.8,3.4 2,1.63 5.4,-3.33 7.8,1.82 10.3,22.31 2.4,18.84 6.7,32.79 10.2,32.79 1.5,0 3.2,3.67 3.5,7.75 0.7,10.13 36.7,81.55 47.5,94.23 3,3.56 9.5,15.16 14.2,25.39 4.8,10.47 20.6,30.82 35.8,45.85 15.1,15.08 26,28.98 24.6,31.37 -1.5,2.29 -0.2,3.32 2.6,2.25 3,-1.13 13.6,5.5 23.8,14.93 41.5,38.34 104,68.05 167.1,79.39 37.7,6.75 102.4,6.89 146.2,0.26 z m -105.6,52.88 c 17.1,-5.67 34,-10.43 37.6,-10.65 3.7,-0.26 1.3,-1.99 -5.3,-3.89 -6.5,-1.91 -20.5,-1.91 -30.7,-0.04 -27,4.97 -90.5,-7.23 -90.5,-17.38 0,-1.94 -1.7,-2.29 -4.1,-0.83 -2.3,1.35 -19.3,-4.1 -37.7,-12.07 -18.4,-7.98 -34.9,-14.56 -36.5,-14.56 -5.1,0 -20.9,-7.36 -36.8,-17.23 -8.2,-5.07 -24.2,-14.73 -34.9,-21.05 -21.7,-12.91 -67.1,-57.69 -67.1,-66.13 0,-1.87 -2.8,-6.14 -6.4,-9.84 -6.1,-6.15 -34.6,-49.11 -34.6,-52.05 0,-0.68 3.1,-1.99 7.2,-3.03 5.7,-1.48 5.3,-1.96 -1.7,-2.3 -6.5,-0.31 -11.9,-6.93 -21.3,-26.2 -15.3,-31.53 -34,-73.23 -35.2,-78.65 -0.5,-2.21 -4.1,-11.04 -7.8,-19.23 -3.6,-8.18 -6.7,-17.33 -6.7,-19.87 0,-2.65 -2.6,-10.45 -6,-17.81 -5.7,-12.69 -18.6,-50.03 -18.6,-54.09 0,-1.13 2.3,-0.69 5.1,1.05 4.1,2.42 4.2,1.85 0.5,-2.7 -6.5,-8.19 -25.9,-64.31 -23.2,-67.17 1.3,-1.3 0.5,-4.9 -1.8,-7.75 -3.8,-4.72 -7.6,-25 -11.9,-62.28 -1,-9.09 -4,-24.56 -6.6,-34.82 -2.6,-10.22 -4.3,-18.89 -3.9,-19.45 0.5,-0.56 -3.1,-11.68 -8,-24.76 -10.9,-29.11 -36.5,-67.4 -49.3,-73.64 -12.1,-5.84 -38.92,-10.68 -54.51,-9.83 -6.95,0.4 -16.19,0.7 -21.28,0.7 -4.91,0 -10.13,1.86 -11.46,4.12 -1.38,2.29 0.39,4.1 4.08,4.1 9.22,0 7.79,7.11 -2.04,10.23 -11.23,3.59 -8.62,14.17 6.98,28.02 7.32,6.54 15.09,17.83 17.61,25.63 5.36,16.51 2.44,20.71 -23.37,33.7 -11.46,5.8 -18.2,12.65 -21.27,21.61 -5.42,15.77 -4.11,17.24 20.88,23.91 18.83,5.02 43.59,26.07 49.48,42.01 5.4,14.47 -5.28,31.23 -27.79,43.92 -23.75,13.42 -32.09,24.25 -27.71,35.99 1.48,4.02 13.59,18.01 26.7,30.92 19.66,19.31 23.44,25.25 21.16,32.96 -3.26,10.86 -0.89,9.18 -22.18,15.8 -22.53,6.98 -27.46,19.59 -14.97,38.24 12.32,18.46 35.72,37.82 53.49,44.32 6.6,2.37 7.3,5.49 4.9,20.22 -1.6,9.43 -5.6,22.87 -8.7,29.28 -6.5,13.12 -7.7,22.95 -2.8,22.95 1.8,0 5.8,6.97 8.8,15.16 9.7,27.02 51.1,58.55 76.8,58.55 23.1,0 26.4,3.68 27.2,31.15 1.2,38.18 14.6,47.46 76.5,52.91 14.7,1.34 30.6,4.98 35.6,8.18 14.3,9.33 25.8,23.27 25.8,31.45 0,4.11 2.4,7.67 5.3,7.97 5.8,0.59 12.1,1.99 15.2,3.25 3.5,1.47 18,4.4 24.6,5.02 3.3,0.3 23.1,-0.73 43.6,-2.3 35.2,-2.68 37.8,-2.33 43.4,5.72 3.2,4.68 12.9,13.82 21.1,19.88 14.7,10.96 16.8,11.3 74.5,12.08 53.3,0.73 62.7,-0.22 90.6,-9.4 z m -813.91,10.66 c 0,-4.94 -7.76,-10.31 -10.66,-7.41 -3.03,3.04 2.03,11.09 6.97,11.09 2.21,0 3.69,-1.47 3.69,-3.68 z m 630.81,48.7 c 23.7,-2.2 48.8,-5.1 56.1,-6.3 15.1,-2.7 51.8,-18.14 49.1,-20.75 -0.9,-0.91 -18.4,-2.39 -39.3,-3.33 -47.1,-2.21 -52.2,-3.73 -70.5,-21.31 l -14.7,-14.25 -40.5,0.43 c -22.2,0.22 -46.2,0.66 -52.9,0.95 -29.9,1.31 -34.8,-0.42 -37.3,-13.25 -1.4,-6.97 -4.9,-14.25 -8.1,-16.8 -3.3,-2.55 -5.8,-6.97 -5.8,-10.22 0,-10.92 -28.2,-19.27 -55.7,-16.45 -21.7,2.2 -25.9,1.42 -32.4,-5.69 -4,-4.49 -8.8,-8.18 -10.6,-8.18 -5.7,0 -24.2,-17.79 -24.2,-23.34 0,-2.94 -3.6,-8.44 -8.2,-12.3 -6.1,-5.2 -7.5,-10.21 -5.7,-20.06 2.4,-12.81 2.1,-13.11 -14.3,-13.33 -12.7,-0.13 -20.1,-3.25 -30.1,-12.69 -7.4,-6.93 -14.6,-12.46 -16.2,-12.46 -7.8,0 -29.74,-24.61 -38.03,-42.62 -10.18,-22.13 -11.56,-60.21 -2.51,-69.22 5.31,-5.33 5.81,-11.56 0.8,-10.13 -3.31,1 -26.92,-22.22 -47.62,-46.82 -5.48,-6.49 -10.51,-19.67 -12.2,-31.96 -3.23,-22.92 1.8,-32.14 23.77,-43.58 l 11.47,-5.97 -12.9,-12.07 c -6.95,-6.54 -14.2,-12.09 -15.77,-12.09 -5.06,0 -16.88,-30.31 -15.16,-38.89 0.91,-4.5 1.81,-9.5 2,-11.09 0.61,-5.33 25.59,-31.92 29.97,-31.92 2.17,0 9.39,-3.8 15.54,-8.19 21.39,-15.2 4.51,-35.12 -38.49,-45.38 -11.49,-2.77 -22.27,-7.06 -23.96,-9.53 -1.73,-2.51 -2.08,-13.51 -0.81,-24.99 2.59,-23.25 11.67,-35.3 35.82,-47.64 16.79,-8.62 18.01,-15.07 4.1,-22.13 -4.89,-2.51 -11.23,-6.54 -14.72,-9.48 -6.98,-5.77 -11.72,-33.39 -5.77,-33.39 2.46,0 3.03,-1.04 1.44,-2.65 -1.52,-1.51 0.42,-5.19 4.52,-8.62 6.56,-5.41 6.56,-5.71 0.2,-3.67 -3.7,1.21 -8.1,0.42 -9.43,-1.65 -1.58,-2.52 -4.91,-2.43 -9.41,0.22 -3.77,2.2 -14.94,6.06 -24.39,8.4 -9.4,2.33 -17.42,6.06 -17.42,8.18 0,2.16 -4.28,5.9 -9.6,8.39 -5.79,2.7 -14.35,14.56 -21.5,29.72 -10.17,21.52 -11.89,30.49 -12.08,62.01 -0.12,20.5 1.33,45.1 3.26,55.32 1.93,10.13 4.2,33.17 5.06,51.18 1.61,33.48 2.13,37.3 10.15,75.8 2.55,12.3 5.6,27.21 6.7,32.79 1.19,5.71 2.78,12.38 3.68,15.16 0.91,2.67 2.87,15.54 4.34,28.67 1.43,12.99 6.37,41.36 10.82,62.67 4.5,21.26 9.6,45.38 11.26,53.21 1.71,7.88 6.78,21.7 11.29,30.72 4.49,9.05 9.59,20.83 11.3,26.24 6.72,21.26 34.84,63.05 63.64,94.59 32.14,35.25 100.64,94.23 109.34,94.23 2.9,0 5.3,1.51 5.3,3.25 0,4.38 89.8,47.06 116.8,55.66 21.2,6.6 113.5,15 135.2,12.3 6.8,-0.9 31.5,-3.4 55.3,-5.7 z m -525.55,46.4 c 9.83,-2.6 12.9,-9.4 4.5,-10 -8.6,-0.5 -63.9,-37.4 -83.56,-55.69 -10.22,-9.54 -13.65,-10.74 -17.6,-6.28 -4.06,4.54 -7.38,3.45 -18.87,-6.15 -17.19,-14.38 -20.71,-22.13 -12.69,-28.02 5.37,-3.95 4.78,-6.59 -4.5,-20.54 -5.72,-8.57 -12.07,-16.88 -13.73,-18.01 -1.7,-1.13 -4.33,-6.98 -5.93,-13.12 -1.59,-6.11 -5.41,-13.12 -8.6,-15.77 -3.15,-2.55 -5.73,-7.75 -5.73,-11.43 0,-3.73 -3.53,-12.52 -7.78,-19.49 -4.37,-7.1 -9.06,-18.85 -10.67,-26.6 -1.59,-7.79 -4.56,-16.02 -6.75,-18.66 -2.01,-2.47 -3.47,-6.36 -3.06,-8.19 0.45,-1.85 -0.41,-6.36 -1.83,-9.61 -8.12,-18.84 -18.64,-54.83 -16.91,-57.76 1.17,-1.96 0.47,-4.17 -1.73,-5.56 -6.28,-3.89 -21.79,-59.98 -23.21,-84.14 -0.77,-12.31 -1.74,-22.53 -2.22,-22.53 -0.43,0 -1.26,-6.53 -1.79,-14.33 -1.29,-18.45 -13.76,-90.43 -17.04,-98.31 -5.47,-13.12 -5.63,-24.56 -0.39,-24.56 3.27,0 3.73,-1.21 1.21,-3.07 -2.21,-1.68 -6.68,-10.48 -9.71,-19.06 -10.81,-30.7 -20.79,-43.44 -34.12,-43.44 -9.01,0 -11.7,1.56 -10.04,5.76 1.26,3.21 -4.79,13.51 -13.7,23.34 -8.91,9.84 -15.06,19.07 -13.94,20.88 1.19,1.91 -0.61,4.33 -4.28,5.76 -5.36,2.03 -6,7.75 -4.1,36.03 3.14,46.31 8.83,65.92 21.07,72.37 5.58,2.99 13.88,12.6 18.24,21.22 7.68,15.16 7.71,16.3 0.6,28.89 -4.15,7.37 -9.6,14.51 -12.47,16.37 -2.67,1.7 -5.12,5.94 -5.12,8.8 0,2.94 -2.87,7.92 -6.15,10.65 -6.92,5.71 -6.56,29.58 0.39,26.93 2.48,-0.95 9.65,2.92 15.79,8.5 10.54,9.61 11.16,12.07 9.82,39.53 l -1.43,29.28 17.2,8.71 c 18.44,9.27 31.81,20.83 32.15,27.76 0.1,2.51 -4.89,14.33 -11.25,26.63 -6.37,12.26 -11.43,27.76 -11.36,34.82 0.15,19.1 19.13,43.31 40.42,51.5 21.72,8.36 28.28,16.72 29.7,37.76 0.71,10.65 4.65,19.02 12.51,26.43 10.83,10.26 12.71,10.65 33.59,6.88 27.02,-4.85 39.33,-1.04 39.33,12.12 0,26.7 4.01,33.3 25.8,42.6 11.87,5.1 25.82,9.8 31.54,10.7 16.79,2.7 58.48,2.8 68.4,0.1 z m 291.45,-4.6 c 14.3,-6.1 25.9,-12.9 25.8,-15.1 -0.1,-2.3 -6.4,-5.6 -13.7,-7.3 -31.2,-7.3 -47.6,-13.5 -70.9,-26.6 -27.9,-15.64 -60.7,-38.26 -75.8,-52.16 -5.7,-5.24 -18.4,-10.7 -28.64,-12.3 -10.12,-1.56 -43.44,-9.17 -73.76,-16.8 -30.29,-7.62 -58.24,-13.9 -61.83,-13.9 -10.67,0 -20.67,-10.01 -17.7,-17.63 3.53,-9.09 16.48,-8.79 29.98,0.7 5.92,4.16 18.86,8.75 29.09,10.34 21.28,3.29 69.32,17.67 75.77,22.7 4.93,3.82 22.51,8.48 22.51,5.97 0,-0.85 -7.1,-9 -15.36,-17.58 -37.92,-39.33 -69.77,-78.48 -83.73,-102.82 -24.11,-42.18 -27.89,-49.79 -27.89,-56.52 0,-3.98 -3.75,-14.75 -8.17,-23.37 -4.43,-8.58 -8.2,-19.19 -8.2,-22.92 0,-9.05 -8.58,-13.73 -57.32,-31.14 -21.31,-7.61 -46.88,-16.8 -56.52,-20.31 -31.98,-11.61 -51.98,-24.12 -53.28,-33.35 -1.51,-10.69 -0.39,-10.78 16.42,-1.64 7.4,4.07 25.59,12.17 40.31,18.02 14.68,5.84 42.82,18.26 62.07,27.45 19.25,9.19 36.53,16.81 38.11,16.81 4.07,0 -2.11,-33.18 -8.54,-45.87 -2.97,-5.93 -6.49,-16.59 -7.87,-23.99 -1.34,-7.37 -3.55,-15.12 -4.9,-17.41 -1.41,-2.34 -0.6,-2.95 1.85,-1.44 2.74,1.74 2.31,-5.71 -1.24,-20.87 -3.07,-13.12 -5.63,-31.01 -5.72,-40.36 -0.12,-9.4 -1.56,-18.15 -3.3,-19.84 -1.83,-1.86 -3.14,-4.15 -3.28,-5.75 -0.09,-1.47 -1.47,-10.83 -3.07,-21.1 -3.08,-19.66 -6.16,-40.97 -6.64,-46.29 -0.19,-1.96 -1.71,-2.44 -3.8,-1.22 -1.89,1.13 -15.16,-3.46 -29.06,-10.04 -13.94,-6.54 -27.48,-12.09 -29.71,-12.09 -2.26,0 -14.34,-6.15 -27.02,-13.77 -39.34,-23.69 -89.01,-34.09 -118.8,-24.85 -11.05,3.41 -11.05,3.41 1.17,16.54 5.71,6.14 9.39,11.95 8.24,13.07 -1.05,1.09 1.65,4.68 5.74,7.54 6.55,4.64 39.03,60.68 36.9,63.75 -0.48,0.64 1.3,7.79 3.86,15.54 2.54,7.8 5.37,18.12 6.15,22.53 0.78,4.55 2.47,10.95 3.72,14.38 4.85,12.99 8.55,38.07 13.35,90.08 1.5,16.81 3.63,34.43 4.63,38.94 1.01,4.5 2.85,19.22 4.11,32.74 1.21,13.51 3.98,27.88 6.14,31.96 2.15,4.11 4.52,10.48 5.31,14.33 15.8,77.02 74.17,169.38 139.07,220.1 8.52,6.63 23.34,18.32 32.76,25.77 20.01,15.77 92.16,51.47 113.04,55.87 7.79,1.6 19.97,5.9 26.65,9.3 14.4,7.5 48.3,12 94.2,12.6 27,0.3 37.3,-1.6 58.8,-10.7 z m -179.65,41.2 c 20.33,-9.3 17.63,-12.4 -15.55,-17.8 -37.29,-6.1 -40.98,-6.9 -45.86,-9.9 -2.52,-1.6 -7.58,1 -11.48,6 -6.45,8.1 -10.66,8.8 -56.13,8.8 -38.06,0 -55.31,-1.9 -76.57,-8.5 -27.68,-8.6 -31.4,-11.6 -59.65,-48.5 -6.86,-8.9 -8.97,-9.4 -23.72,-5.3 -15.58,4.4 -16.76,3.9 -31.53,-10.6 -8.62,-8.5 -15.36,-17.45 -15.36,-20.3 0,-2.9 -2.87,-8.02 -6.55,-11.7 -3.69,-3.67 -5.5,-7.62 -4.12,-9.01 4.39,-4.37 -14.33,-25.81 -22.52,-25.81 -15.24,0 -45.93,-38.07 -50.46,-62.67 -2.24,-12.16 -0.31,-20.48 9.75,-42.18 14.29,-30.71 14.2,-30.32 5.9,-30.32 -10.23,0 -42.47,-25.2 -42.97,-33.56 -0.25,-4.11 -0.82,-9.67 -1.25,-12.51 -0.48,-2.87 0.43,-6.93 2.02,-9.23 10.97,-15.64 2.87,-37.69 -18.83,-51.24 -7.8,-4.84 -14.33,-11.56 -14.33,-14.68 0,-6.72 10.54,-27.07 23.15,-44.64 4.99,-6.98 9.4,-15.86 10.17,-20.5 1.75,-10.43 -8.33,-24.6 -20.23,-28.32 -12.27,-3.86 -16.77,-23.69 -16.77,-74.1 0,-36.04 1.21,-43.01 10.12,-58.13 15.95,-27.06 11.92,-28.58 -12.6,-4.84 -37.4,36.21 -40.91,47.03 -40.72,124.43 0.2,70.89 -1.02,65.13 39.21,189.65 6.75,20.87 11.08,39.49 9.71,41.78 -1.48,2.43 -0.89,4.08 1.42,4.08 2.2,0 3.9,4.11 3.9,9.45 0,5.15 9.49,29.48 20.89,53.65 11.41,24.17 20.9,45.18 20.9,46.25 0,1.18 5.5,9.05 12.27,17.63 6.79,8.62 12.29,16.68 12.29,18.02 0,8.56 47.95,63.8 74.97,86.3 49.67,41.4 130.66,70.2 201.12,71.5 20.48,0.4 37.39,1.3 38.07,2 2.43,2.3 74.56,-17.5 91.34,-25.2 z m -258.44,52.4 c -33.6,-9.4 -46.67,-16.2 -66.77,-34.9 -8.61,-8 -23.34,-19.6 -31.95,-25.1 -8.59,-5.5 -19.19,-15.7 -22.92,-21.9 -3.79,-6.4 -17.01,-20.8 -28.89,-31.6 -13.16,-11.9 -26.17,-28.9 -32.56,-42.37 -5.81,-12.29 -12.57,-24.55 -14.88,-27.02 -10.49,-11.17 -17.23,-20.87 -23.76,-34.43 -18.92,-38.9 -33.04,-72.19 -33.04,-77.82 0,-3.26 -1.54,-7.19 -3.3,-8.36 -1.81,-1.26 -4.34,-9.45 -5.71,-18.46 -1.4,-9 -5.2,-22.08 -8.61,-29.48 -3.38,-7.37 -7.15,-22.96 -8.41,-34.82 -1.2,-11.87 -3.81,-26.08 -5.73,-31.76 -1.92,-5.67 -4.66,-25.8 -6.15,-45.03 -1.46,-19.15 -3.92,-53.28 -5.49,-75.8 -5.69,-82.72 -0.88,-149.59 11.44,-158.67 3.88,-2.87 10.98,-11.7 15.98,-19.89 10.5,-17.24 32.09,-34.82 47.51,-38.67 5.74,-1.48 10.65,-4.41 10.65,-6.41 0,-1.96 2.86,-3.68 6.15,-3.68 3.27,0 6.15,-1.82 6.15,-3.9 0,-2.13 4.07,-5.19 9.01,-6.76 4.89,-1.56 11.51,-5.36 14.53,-8.4 3.14,-3.12 9.03,-5.5 13.54,-5.5 4.29,0 14.94,-2.73 23.12,-5.97 21.42,-8.41 36.86,-11.09 61.03,-10.58 27.04,0.56 45.11,5.72 43.5,12.43 -0.89,3.69 0.32,4.03 4,1.09 6.54,-5.29 44.26,4.68 44.26,11.61 0,2.46 1.48,3.19 3.68,1.86 2.04,-1.25 15.77,4.12 30.92,12.08 15.17,7.98 27.59,14.34 28.07,14.34 0.43,0 0.71,-16.38 0.6,-36.47 -0.12,-20.05 1.37,-47.21 3.3,-60.41 1.9,-13.09 3.37,-29.88 3.25,-37.07 -0.14,-8.19 2.64,-15.12 7.38,-18.42 4.2,-2.93 10.59,-11.25 14.34,-18.66 4.16,-8.19 11.11,-14.34 18.03,-15.99 6.13,-1.42 13.69,-5.05 16.59,-7.97 2.94,-2.93 24.99,-11.73 49.16,-19.61 45.04,-14.69 94.77,-21.09 108.57,-14.08 4.1,2.13 16.8,4.6 28.6,5.63 11.8,1.04 37.7,4.6 58.2,8.02 20.5,3.38 46.9,7.83 59.4,9.96 21.5,3.67 37.7,7.54 106.5,25.46 16.8,4.38 38.1,9.66 47.1,11.66 9,2.03 23.7,6.92 32.8,10.87 9,3.94 17.6,6.79 19.2,6.31 1.6,-0.43 7.8,1.09 14,3.47 22.7,8.75 82.3,24.21 155.6,40.37 20.5,4.49 52.8,13.03 71.7,18.87 83.5,25.95 153.4,48.72 157.3,51.33 2.2,1.52 15.9,6.75 30.7,11.73 14.7,4.99 30.2,10.58 34.8,12.48 4.5,1.94 20.5,8.44 35.6,14.55 15.2,6.11 29.6,13.64 32.2,16.8 2.6,3.29 6.1,5.72 8,5.72 6.1,0 48.9,31.8 46.2,34.43 -1.2,1.25 -0.2,2.47 2.3,2.47 2.4,0 4.7,2.04 4.7,4.29 0,2.34 4.7,14.55 10.3,26.81 5.6,12.3 10.2,25.33 10.2,28.67 0,3.29 2.8,11.48 5.9,17.62 8.9,17.21 3.9,143.71 -5.5,137.9 -1.4,-0.82 -2.6,3.2 -2.9,9.35 -0.2,6.16 -1.7,15.29 -3.5,21.09 -1.7,5.77 -3.9,14.77 -5.1,20.48 -2.9,14.77 -24.9,59.04 -34.2,69.22 -4.6,4.94 -7.9,9.48 -7.9,10.65 0,1.13 -5.9,10.66 -13.2,21.31 -28.7,41.97 -68.8,69.72 -134.3,93.07 -16.8,6.02 -31.2,10.69 -31.8,10.36 -0.5,-0.35 -20,0.86 -43,2.68 -22.9,1.78 -45.1,2.9 -48.9,2.47 -7.8,-0.91 -9.8,5.85 -2.5,8.31 2.7,0.87 3.4,5.16 1.6,10.48 -1.5,4.93 -4.3,8.19 -6.1,7.15 -3.5,-2.04 -51.6,10.52 -76.2,19.83 -9,3.43 -20.6,6.32 -25.8,6.41 -11,0.26 -22.7,10.58 -20.2,17.87 2.4,7.1 -23.6,21.2 -50.2,27.2 -12.3,2.8 -26.3,6.7 -30.7,8.6 -4.5,1.9 -14.8,4.3 -22.6,5.3 -7.7,1 -21.7,3.8 -30.3,6.1 -13.8,3.6 -38.1,3.5 -134.7,-0.7 -11.9,-0.5 -17,1.5 -21.5,8.4 -5.7,8.6 -27.7,21.7 -36.7,21.7 -2.8,0 -10.6,2.8 -18,6.5 -7.3,3.6 -21.7,7.2 -32.4,8 -10.7,0.8 -29.1,3.5 -41.4,6.1 -16.3,3.5 -26.9,3.5 -40.7,0 -15.6,-3.9 -19.2,-3.7 -21.9,1.5 -1.8,3.4 -13.3,9 -25.6,12.5 -12.3,3.5 -23.46,8.1 -24.81,10.4 -1.29,2.2 -6.75,4.1 -11.67,4.1 -4.91,0 -10.92,1.6 -12.9,3.3 -7.82,7.1 -49.57,17.4 -79.88,19.7 -79.45,6.4 -144.68,5.5 -172.43,-2.3"
           fill="#313131"
           id="path6983" /><path
           d="m 10034,10012 c -28.3,-1.4 -61.26,-9.1 -84.77,-19.76 -21.3,-9.61 -24.97,-14.72 -18.29,-25.55 2.91,-4.76 5.59,-4.41 15.41,1.91 14.34,9.26 36.88,17.88 52.84,20.26 34.41,5.15 63.11,11.94 77.81,18.54 l 16.4,7.2 -20.5,-0.8 c -11.5,-0.5 -28.6,-1.2 -38.9,-1.8"
           fill="#313131"
           id="path6985" /><path
           d="m 9913.4,9882.8 c -4.48,-3.03 -18.43,-8.01 -30.73,-10.91 -12.31,-2.9 -24.38,-6.67 -26.64,-8.31 -3.91,-2.86 -14.34,-4.98 -52,-10.71 -17.2,-2.59 -22.44,-10.55 -13.11,-19.91 5.4,-5.37 12.72,-4.98 23.76,1.34 2.25,1.29 8.81,2.81 14.55,3.37 5.71,0.56 11.08,3 11.86,5.33 0.78,2.29 4.73,4.29 8.4,4.29 6.98,0 69.21,30.54 76.18,37.34 6.11,5.97 -2.85,4.67 -12.27,-1.83"
           fill="#313131"
           id="path6987" /><path
           d="m 9865,9818.1 c -10.66,-4.24 -23.45,-8.45 -28.67,-9.35 -24.99,-4.47 -65.94,-17.41 -84.79,-26.82 -9.39,-4.71 -7.79,-18.87 2.05,-18.05 9.42,0.78 85.1,29.79 88.21,33.82 0.99,1.31 4.78,3.03 8.03,3.69 12.29,2.46 40.96,17.36 40.96,21.3 0,5.29 -2.03,4.9 -25.79,-4.59"
           fill="#313131"
           id="path6989" /><path
           d="m 9822.2,9742.4 c -13.93,-4.89 -32.7,-10.23 -41.17,-11.7 -22.53,-3.85 -55.34,-14.68 -61.02,-20.05 -3.17,-3.02 -3.66,-6.76 -1.45,-10.43 2.93,-4.85 6.59,-4.9 23.36,-0.39 11.07,2.94 21.68,6.32 23.97,7.58 2.21,1.2 7.15,2.77 10.83,3.46 3.73,0.64 15.58,5.85 26.23,11.48 10.64,5.59 21.5,10.25 23.97,10.3 5.71,0.09 25.66,14.99 22.92,17.16 -1.1,0.87 -13.7,-2.52 -27.64,-7.41"
           fill="#313131"
           id="path6991" /><path
           d="m 9794.6,9625 c -6.89,-4.47 -49.58,-18.93 -86.84,-29.5 -8.79,-2.51 -13.64,-12.42 -10.47,-21.43 2.64,-7.49 10.86,-6.15 21.12,3.42 4.91,4.63 10.13,7.44 11.46,6.18 1.33,-1.2 7.39,1.18 13.11,5.16 5.74,3.94 14.8,8.66 19.67,10.18 14.74,4.55 46.29,23.31 46.29,27.5 0,5.11 -4.93,4.6 -14.34,-1.51"
           fill="#313131"
           id="path6993" /><path
           d="m 9780.3,9569.3 c -3.37,-1.86 -20.9,-6.71 -38.92,-10.73 -40.55,-9.1 -67.57,-20.57 -67.57,-28.67 0,-10.27 10.23,-11.04 27.41,-2.04 9.03,4.72 20.83,9.4 26.25,10.45 9.63,1.81 23.34,6.45 44.63,15.11 18.05,7.32 22.07,9.86 23.72,14.98 1.73,5.38 -6.49,5.85 -15.52,0.9"
           fill="#313131"
           id="path6995" /><path
           d="m 9757.7,9494.2 c -6.82,-2.31 -20.46,-6.76 -30.72,-10.09 -38.5,-12.48 -90.12,-36.3 -90.12,-41.55 0,-11.55 13.94,-9.17 50.41,8.63 20.86,10.22 42.21,19.74 47.9,21.35 16.79,4.84 40.96,18.11 40.96,22.48 0,4.71 -2.03,4.63 -18.43,-0.82"
           fill="#313131"
           id="path6997" /><path
           d="m 9657.4,9907.3 c -5.79,-3.03 -16.17,-10.65 -22.73,-16.63 -6.57,-6.02 -15.19,-13.98 -18.85,-17.42 -4.26,-3.97 -6,-10.42 -4.74,-17.39 4.24,-23.36 3.46,-60.43 -1.48,-70.03 -3.57,-6.98 -3.8,-11.41 -0.73,-15.17 2.45,-3.08 3.43,-7.79 2.25,-11.08 -1.17,-3.25 -0.21,-7.59 2.27,-10.01 3.04,-3.08 7.23,0 14.51,10.65 7.31,10.62 8.78,15.42 5.14,16.59 -3.94,1.26 -3.9,2.38 0.19,4.97 5.31,3.39 6.14,16.73 3.49,56.04 -1.34,20.06 -0.43,22.75 12.09,35.65 7.92,8.19 19.23,15.03 27.43,16.59 15.96,3.08 17.3,6.37 6.56,15.99 -9.14,8.18 -11.89,8.31 -25.4,1.25"
           fill="#313131"
           id="path6999" /><path
           d="m 9573.3,9658.4 c -1.51,-2.48 1.21,-9.84 6.08,-16.38 9.43,-12.68 8.6,-24.16 -2.65,-36.86 -4.89,-5.5 -5.21,-8.79 -1.48,-15.76 2.65,-4.94 6.89,-8.1 9.65,-7.23 7.39,2.42 24.91,37.33 19.63,39.1 -5.71,1.92 -5.71,9.19 0,7.89 8.19,-1.82 7.97,6.71 -0.5,20.66 -8.21,13.51 -24.83,18.13 -30.73,8.58"
           fill="#313131"
           id="path7001" /><path
           d="m 10254,9866.5 c -4.2,-2.97 -8.7,-11.46 -10.3,-19.26 -2.2,-11.05 -5.3,-14.42 -14.9,-16.38 -6.7,-1.33 -19.9,-6.97 -29.3,-12.42 -20.1,-11.65 -23.2,-24.17 -8.6,-34.39 12.7,-8.92 15.6,-8.23 15.6,3.82 0,11.09 11.8,18.45 29.8,18.45 14.2,0 23.2,8.57 28,26.59 8.8,33.59 5.4,44.99 -10.3,33.59"
           fill="#313131"
           id="path7003" /><path
           d="m 10104,9745.2 c -34.8,-18.46 -45.7,-48.52 -27,-74.06 20.7,-28.28 21.5,-31.84 9.6,-44.27 -28,-29.19 2.3,-26.2 33,3.26 l 9.4,9.05 -14.7,18.01 c -19.1,23.34 -26.8,41.97 -21.8,52.84 4.7,10.22 33.5,24.42 42.7,21 4.2,-1.55 9,0.31 12.3,4.82 12.3,16.87 -17.3,23.25 -43.5,9.35"
           fill="#313131"
           id="path7005" /><path
           d="m 10056,9543.9 c -15.2,-7.36 -16.4,-9.14 -17.4,-25.51 -0.7,-12.69 1.3,-20.57 7.4,-28.28 4.5,-5.72 8.4,-11.96 8.4,-13.51 0,-1.55 3.8,-8.19 8.6,-14.73 6.2,-8.61 7.8,-15.15 5.9,-23.77 -3.4,-14.73 2.5,-18.85 13.7,-9.58 11.9,9.84 15.5,30.32 6.9,39.07 -3.6,3.68 -5.4,6.98 -3.8,6.98 1.7,0 -2,5.32 -8.4,11.86 -14.2,14.77 -16.9,38.41 -4.5,40.4 22.2,3.52 26.7,5.72 26.7,12.87 0,4.37 -4.2,8.83 -9.5,10.26 -13.1,3.43 -15.1,3.03 -34,-6.06"
           fill="#313131"
           id="path7007" /><path
           d="m 10032,9372.6 c -7.5,-14.56 -7.9,-24.99 -1.8,-45.85 3.4,-11.5 7,-16 12.7,-16 6.9,0 7.6,1.83 5.1,13.3 -1.5,7.36 -4.5,13.95 -6.5,14.73 -4,1.52 6.1,12.94 11.5,12.94 1.8,0 3.7,6.54 4.3,14.73 0.8,11.86 -0.2,14.25 -5.4,12.29 -3.7,-1.42 -5.3,-0.72 -3.9,1.65 1.4,2.18 -0.4,4.08 -3.7,4.08 -3.3,0 -8.9,-5.34 -12.3,-11.87"
           fill="#313131"
           id="path7009" /><path
           d="m 10659,9862 c -33.2,-12.35 -62.4,-28.11 -56.2,-30.24 2.7,-0.95 20.1,3.09 38.9,8.97 18.9,5.89 38.8,10.65 44.7,10.65 13.1,0 17.9,6.46 11,14.72 -6.1,7.32 -8.6,7.02 -38.4,-4.1"
           fill="#313131"
           id="path7011" /><path
           d="m 10697,9841.3 c -10.7,-5.6 -29.2,-12.35 -41.9,-15.3 -17.6,-4.15 -22.8,-7.1 -22.8,-13.11 0,-9.93 12.3,-7.8 56.1,9.74 34.4,13.77 43.3,19.32 39.8,25.07 -3.5,5.76 -10.3,4.37 -31.2,-6.4"
           fill="#313131"
           id="path7013" /><path
           d="m 10449,9830.8 c -16.8,-7.49 -24.7,-14.94 -20.5,-19.18 1.4,-1.35 7.8,-0.31 14,2.26 6.2,2.54 21.7,4.84 34,4.97 26.2,0.39 36.8,2.77 36.8,8.32 0,2.46 -1.4,3.2 -3.6,1.81 -2.3,-1.33 -4.3,-0.59 -5.2,1.86 -2.8,7.84 -37.8,7.8 -55.5,-0.04"
           fill="#313131"
           id="path7015" /><path
           d="m 10741,9807.5 c -4.7,-1.12 -12.9,-5.37 -19.1,-9.79 -6.1,-4.42 -13.6,-7.79 -17.2,-7.79 -3.7,0 -7.4,-1.7 -8.8,-4.06 -1.3,-2.22 -7.1,-2.96 -12.5,-1.65 -6.1,1.51 -10,0.69 -10,-2.05 0,-9.26 13.1,-9.43 48.3,-0.69 19.7,4.89 38.9,9.62 43,10.53 12.7,2.86 15.9,6.62 10.8,12.68 -4.7,5.63 -18.6,6.81 -34.5,2.82"
           fill="#313131"
           id="path7017" /><path
           d="m 10438,9783 c -0.6,-0.66 -5.8,-2.08 -11.1,-3.04 -5.3,-0.98 -10,-2.03 -10,-2.24 0,-0.27 -7,-1.18 -15.2,-2 -17.2,-1.78 -37,-13.3 -34.6,-20.14 1.7,-4.77 26.4,-3.9 33.4,1.13 2.3,1.6 17.6,7.45 34,12.95 31.1,10.35 38.6,17.06 17.2,15.5 -7,-0.47 -13.2,-1.47 -13.7,-2.16"
           fill="#313131"
           id="path7019" /><path
           d="m 10738,9765.8 c -31.5,-10.62 -43.9,-16.63 -44,-21.36 -0.2,-5.55 2.4,-6.02 17.2,-3.24 9.5,1.78 29.3,7.05 43.6,11.64 14.3,4.6 27.7,8.41 29.5,8.41 1.8,0 8.2,1.91 13.9,4.11 9.4,3.6 10,4.81 4.5,10.22 -8.2,8.23 -13.9,7.37 -64.7,-9.78"
           fill="#313131"
           id="path7021" /><path
           d="m 10806,9745.4 c -4.8,-4.25 -80.7,-32.05 -97.9,-35.87 -7,-1.51 -13.9,-3.59 -16,-4.81 -7.2,-4.01 11.9,-7.45 24.2,-4.32 6.8,1.77 25,6.23 41,10.08 15.9,3.91 30.5,7.97 32.7,9.23 2.5,1.35 5.8,2.61 8.2,3.12 10.7,2.29 33.1,12.3 35.7,15.93 5.9,8.27 -19.3,14.29 -27.9,6.64"
           fill="#313131"
           id="path7023" /><path
           d="m 10425,9712.3 c -4.8,-1.91 -14,-4.02 -20.5,-4.72 -6.6,-0.65 -13.7,-2.43 -16,-3.91 -2.2,-1.42 -11.5,-3.97 -20.1,-5.53 -18.4,-3.38 -31.1,-10.57 -31.1,-17.59 0,-9.48 8.2,-9.74 27.5,-0.86 10.6,4.89 21.4,8.7 23.5,8.23 2.1,-0.44 7.8,1.29 12.3,3.68 4.5,2.47 16.8,6.97 26.6,9.83 9.9,2.9 19,7.62 19.9,10.26 1.8,5.42 -9.4,5.75 -22.1,0.61"
           fill="#313131"
           id="path7025" /><path
           d="m 10827,9701 c -15.5,-8.15 -108.5,-38.03 -118.4,-38.03 -4.5,0 -7,-2.21 -5.9,-5.33 2.2,-6.23 9.6,-5.76 48.1,2.9 16.8,3.81 34.8,7.79 39.7,8.79 4.9,1 14.4,3.94 20.5,6.37 6.2,2.38 16.3,5.33 21.7,6.31 5.8,1.05 12.6,4.13 15.6,6.99 4.4,4.24 4.1,6.19 -2.1,11.65 -6.6,5.89 -8.6,5.93 -19.2,0.35"
           fill="#313131"
           id="path7027" /><path
           d="m 10415,9663.8 c 0,-3.81 -33.5,-13.64 -51.2,-15.03 -38.1,-2.94 -59.3,-11.08 -59.3,-22.65 0,-8.57 6.4,-14.21 9.9,-8.57 1.3,1.98 17.7,7.75 36.1,12.69 18.5,4.89 36.1,10.86 38.9,13.08 2.9,2.29 5.1,3.03 5.1,1.64 0,-1.38 5.8,0.78 13.2,4.9 13.1,7.36 19.9,17.23 11.8,17.23 -2.4,0 -4.5,-1.47 -4.5,-3.29"
           fill="#313131"
           id="path7029" /><path
           d="m 10833,9631.4 c -10.2,-5.67 -25.7,-12.91 -34.8,-16.32 -9,-3.39 -20.1,-7.71 -24.6,-9.58 -17.6,-7.41 -46.5,-15.25 -58.5,-15.93 -2.9,-0.17 -4.3,-2.08 -3.1,-4.21 1.2,-2.08 9.2,-3.33 17.4,-2.68 25.8,2.03 50.4,7.45 48.4,10.7 -0.9,1.56 2.4,2.51 7.3,2.12 8.6,-0.64 22.5,4.07 50.4,17.1 7.3,3.48 16.1,6.59 20.1,7.15 8.2,1.13 15.9,12.9 12.2,18.67 -3.9,6.25 -14.7,4.03 -34.8,-7.02"
           fill="#313131"
           id="path7031" /><path
           d="m 10410,9611.4 c -1.1,-1.16 -11.9,-3.89 -24.2,-6.15 -12.2,-2.29 -25.7,-4.72 -30.2,-5.54 -4.5,-0.78 -10.7,-1.61 -13.6,-1.82 -2.8,-0.22 -4.2,-2.3 -2.8,-4.5 1.3,-2.22 0,-3.17 -2.9,-2.04 -7.8,3.04 -49.2,-11.77 -53.9,-19.27 -2.1,-3.24 -2.6,-9.45 -1.2,-13.12 2.4,-6.19 4.5,-5.76 19.7,3.89 9.4,6.03 19,11.23 21.5,11.7 5,0.91 34.4,10.31 43.4,13.86 7.4,2.9 7.4,2.9 24.6,6.72 7.7,1.72 16.9,5.32 20,7.87 3.3,2.69 6.8,4.16 8.2,3.47 1.4,-0.66 3.2,0.82 4,3.29 1.4,4.51 -8.5,5.81 -12.6,1.64"
           fill="#313131"
           id="path7033" /><path
           d="m 10859,9585.6 c -6,-5.19 -45.5,-19.27 -76.7,-27.32 -15.1,-3.9 -30,-9.24 -32.7,-11.7 -2.8,-2.51 -7.2,-4.68 -10,-4.9 -2.9,-0.22 -8.9,-0.7 -13.4,-1.03 -4.5,-0.35 -8.2,-2.64 -8.2,-5.12 0,-5.14 41.8,-1.91 67.6,5.28 9,2.52 19.2,4.86 22.6,5.2 8.1,0.83 66.5,23.17 71.2,27.3 4.3,3.67 -4.5,15.89 -11.4,15.89 -2.9,0 -6.7,-1.47 -9,-3.6"
           fill="#313131"
           id="path7035" /><path
           d="m 10364,9529.6 c -11.2,-2.61 -35.2,-7.98 -53.2,-11.96 -32.4,-7.11 -47.1,-14.98 -47.1,-25.12 0,-9.36 7.4,-10.43 21.3,-3.08 7.4,3.9 14.9,7.54 16.6,7.97 1.8,0.53 4.3,1.16 6.1,1.64 1.9,0.53 4.4,0.65 6.4,0.44 1.8,-0.22 14.7,4.11 28.6,9.62 14,5.5 30.5,11.25 36.7,12.68 6.1,1.48 12.2,4.16 13.3,5.94 3.7,5.92 -7.8,6.62 -28.7,1.87"
           fill="#313131"
           id="path7037" /><path
           d="m 10851,9520.1 c -12.8,-7.5 -27.9,-12.95 -110.2,-39.93 -73.2,-23.96 -47.9,-23.7 44.6,0.52 22.6,5.85 43.7,11.34 47.1,12.21 36.9,9.14 45.8,12.56 49.3,18.97 3.1,5.8 2.3,8.23 -3.8,11.57 -10.2,5.58 -12.3,5.32 -27,-3.34"
           fill="#313131"
           id="path7039" /><path
           d="m 10360,9463.2 c -17.4,-6.02 -44.2,-11.25 -77.8,-15.24 -40.5,-4.85 -52.3,-12 -43.3,-26.29 3.6,-5.71 8.1,-5.93 14.6,-0.78 2.3,1.78 18.1,6.55 34.9,10.53 32.7,7.8 85.6,25.5 91.3,30.62 6.7,6.07 -3.7,6.67 -19.7,1.16"
           fill="#313131"
           id="path7041" /><path
           d="m 10346,9412.8 c -5.6,-2.29 -14.9,-4.72 -20.7,-5.38 -5.6,-0.69 -17,-3.19 -24.7,-5.53 -7.9,-2.35 -24.6,-6.45 -36.9,-9.06 -36.1,-7.62 -49.2,-12.6 -49.2,-18.57 0,-10.57 13.6,-13.91 30.7,-7.63 9.1,3.29 22.9,7.8 30.8,10.05 7.8,2.25 19.9,6.63 26.6,9.66 6.7,3.03 24.8,9.57 39.9,14.5 15.2,4.99 27.7,10.71 27.7,12.74 0,4.73 -11.5,4.38 -24.2,-0.78"
           fill="#313131"
           id="path7043" /><path
           d="m 10337,9359.9 c -3.3,-2.21 -12.1,-4.12 -19,-4.12 -7.1,0 -20.1,-3.07 -28.7,-6.75 -8.6,-3.68 -19.9,-7.24 -24.8,-7.8 -4.9,-0.55 -23.9,-6.01 -42,-12.09 -29.1,-9.73 -33,-12.2 -33,-20.87 0,-7.36 2.1,-9.82 8.3,-9.82 7.3,0 26.9,9.82 32.6,16.36 1.2,1.39 14.9,5.94 30.8,10.31 30.3,8.32 31.5,8.63 45.9,11.82 15.6,3.48 42.6,19.23 40.1,23.35 -2.8,4.5 -2.8,4.5 -10.2,-0.39"
           fill="#313131"
           id="path7045" /></g></clipPath></defs><g
     transform="matrix(1.3333,0,0,-1.3333,-1257.1851,1095.2096)"
     id="g6861"><g
       fill="#313131"
       id="g5456"
       transform="matrix(0.1,0,0,0.1,97.607037,58.885224)"><path
         d="m 9261.6,6942.9 c 11.42,-10.8 20.61,-21.16 20.61,-23.2 0,-5.92 -16.32,-28.36 -38.32,-52.66 -28.35,-31.32 -78.12,-91.99 -83.11,-101.29 -2.37,-4.42 -5.41,-7.74 -7.09,-7.74 -4.67,0 -7.63,41.63 -3.34,46.78 2.18,2.58 2.8,5.87 1.48,7.91 -1.17,1.9 -0.5,7.93 1.47,13.09 2.7,6.99 2.46,9.57 -0.89,9.57 -2.96,0 -3.31,0.99 -0.94,2.75 2.03,1.53 8.18,11.61 13.64,22.29 13.2,25.78 40.57,67.03 44.55,67.03 1.59,0 6.42,-5.89 10.52,-12.89 4.08,-6.99 9.07,-11.96 10.85,-10.86 1.8,1.09 2.9,-0.19 2.39,-2.76 -0.51,-2.61 1.86,-4.54 5.17,-4.23 3.66,0.33 5.34,-1.35 4.24,-4.24 -2.25,-5.9 4.91,-10.74 8.15,-5.53 1.4,2.27 -2.5,12.15 -8.88,22.47 -6.43,10.31 -11.46,20.6 -11.46,23.39 0,2.65 -2.56,7.05 -5.52,9.44 -7.6,6.19 -7.01,11.73 2.57,23.89 7.55,9.57 8.29,9.81 10.71,3.31 1.44,-3.87 11.8,-15.71 23.2,-26.52 z m 18.43,45.49 c 13.23,-12.96 24.3,-24.43 24.3,-25.23 0,-0.81 -3.51,-9.39 -7.9,-19.33 l -7.95,-17.87 -5.53,10.86 c -3.04,6 -13.48,20.45 -23.33,32.23 -19.93,23.95 -20.48,25.4 -12.77,33.15 2.95,2.95 4.52,6.57 3.35,7.73 -1.29,1.27 -0.59,2.23 1.64,2.23 2.1,0 14.91,-10.82 28.19,-23.77 z m 22.08,45.12 c 13.83,-13.84 13.94,-14.36 7.36,-46.41 -1.79,-8.71 -1.99,-8.66 -12.69,3.49 -6.12,6.96 -16.59,18.06 -23.96,25.43 -10.67,10.68 -12.85,15.35 -11.95,25.59 0.61,7 3.54,15.21 6.62,18.59 5.1,5.64 6.11,5.35 13.62,-3.86 4.41,-5.4 13.99,-15.84 21,-22.83 z m -18.42,86.56 c 1.2,-3.63 9.84,-14.93 18.97,-24.87 14.91,-16.21 16.66,-19.87 15.95,-32.97 -1.71,-30.31 -3.02,-29.82 -30.84,11.06 -10.04,14.72 -12.5,21.87 -12.3,35.72 0.27,17.68 4.25,23.03 8.22,11.06 z m -757.46,111.23 c 8.09,-14.45 144.61,-51.75 203.54,-55.64 9.03,-0.59 25.78,-2.04 36.83,-3.19 35.71,-3.69 73.84,-4.69 75.43,-1.96 0.86,1.43 6.31,1.84 12.24,0.92 5.76,-0.89 20.59,0.88 32.39,3.87 11.81,3.01 31.01,6.68 41.99,8.04 35.71,4.42 72.54,16.14 108.3,34.44 l 34.96,17.93 2.23,-22.46 c 1.2,-12.36 2.87,-39.04 3.65,-59.31 0.82,-20.24 2.42,-40.96 3.52,-46.04 1.12,-5.07 3.03,-33.14 4.24,-62.61 1.21,-29.46 2.92,-54.56 3.74,-55.98 1.86,-3.07 4.48,-48.25 7.35,-126.33 1.17,-32.41 2.23,-60.58 2.31,-62.6 0.11,-3.44 -2.93,-58.57 -6.31,-114.55 -0.86,-14.37 -3.24,-30.38 -5.26,-35.55 -2.03,-5.16 -2.85,-10.21 -1.83,-11.23 1.64,-1.62 -20.65,-24.95 -32.41,-34 -31.38,-24.11 -86.56,-46.14 -130.02,-51.92 -23.22,-3.09 -27.14,-3.77 -28.75,-5.01 -3.45,-2.7 -22.43,-4.28 -68.84,-5.73 -29.49,-0.93 -55.37,-2.42 -57.83,-3.34 -2.57,-0.97 -5.34,-0.2 -6.63,1.85 -1.21,1.9 -10.31,3.49 -19.9,3.49 -18.85,0 -82.48,8.98 -103.47,14.6 -7.05,1.89 -22.11,5.8 -33.15,8.59 -28.63,7.29 -58.57,24.74 -87.67,51.08 -14.71,13.34 -18.37,22.23 -19.83,48.38 -0.45,7.74 -2.11,14.82 -3.75,15.84 -1.71,1.07 -1.81,3.68 -0.25,6.27 2.97,4.88 3.67,16.56 4.06,68.86 0.13,19.16 0.42,42.25 0.61,51.02 0.2,8.84 -1.76,18.66 -4.42,21.91 -3.87,4.78 -3.87,5.34 0,2.94 3.92,-2.41 4.6,7.75 3.69,55.99 -0.6,32.41 0.16,58.18 1.67,57.27 1.52,-0.92 2.92,8.65 3.12,21.54 0.21,12.89 0.78,28.12 1.29,34.26 0.49,6.11 1.98,35.72 3.3,66.3 1.33,30.56 3.47,72.51 4.79,93.91 1.32,21.37 2.73,43.61 3.12,49.73 1.33,21.36 1.94,23.93 5.54,23.93 1.78,0 4.77,-2.57 6.41,-5.51 z m 829.66,5.51 c 0,-2.21 -1.4,-3.68 -3.51,-3.68 -2.11,0 -4.35,1.47 -5.68,3.68 -1.29,2.14 0.16,3.69 3.46,3.69 3.32,0 5.73,-1.55 5.73,-3.69 z m -66.83,-1.84 c 4.08,-6.99 10.21,-12.89 13.44,-12.89 3.3,0 4.9,-1.61 3.65,-3.67 -1.2,-2.04 2.03,-8.85 7.21,-15.1 5.45,-6.64 9.39,-15.92 9.39,-22.11 0,-12.15 -5.38,-13.97 -10.94,-3.69 -5.78,10.68 -15.23,19.02 -18.89,16.68 -6.86,-4.38 -2.72,-15.2 13.23,-34.71 15.28,-18.68 16.6,-21.92 16.6,-41.45 0,-11.78 -1.48,-21.18 -3.32,-21.18 -3.45,0 -29.82,39.41 -29.82,44.57 0,1.63 -2.42,4.27 -5.37,5.89 -3.95,2.17 -5.84,14.38 -7.37,46.41 -1.09,23.94 -2.18,44.63 -2.38,46.04 -1.79,12.79 5.76,10.32 14.57,-4.79 z m -66.55,39.41 c -0.39,-1.42 1.44,-6.44 4.09,-11.23 2.73,-4.9 5.37,-12.89 6.08,-18.42 0.74,-5.52 2.1,-13.51 3.14,-18.41 1.02,-4.76 2.85,-30.39 4.06,-56.91 1.44,-31.67 3.73,-49.27 6.62,-51.18 3.38,-2.28 3.3,-2.96 -0.35,-2.96 -3.2,0 -4.68,-5.16 -4.4,-15.47 0.38,-13.88 -4.02,-39.03 -9.5,-54.51 -1.06,-2.94 -2.07,-6.38 -2.19,-7.35 -0.69,-5.86 -18.89,-42.74 -25.98,-52.68 -4.74,-6.64 -10.97,-17.5 -14.29,-24.86 -3.34,-7.37 -10.75,-18.63 -16.98,-25.78 -6.03,-6.96 -14.6,-19.71 -18.92,-28.18 -11.76,-23.03 -18.89,-20.98 -19.36,5.53 -0.19,11.42 -0.12,23.1 0.2,25.6 0.27,2.42 -1.28,7.91 -3.3,11.6 -2.9,5.15 -2.5,7.53 1.43,9.02 4.09,1.54 4.56,4.79 2.02,13.63 -1.78,6.25 -3.06,12.62 -2.83,13.81 1.4,6.63 -5.97,51.97 -8.18,50.59 -1.49,-0.92 -2.61,0.6 -2.61,3.55 0,2.94 1.44,4.3 3.35,3.17 3.73,-2.24 2.22,24.45 -4.09,73.07 -2.02,15.46 -4.02,39.6 -4.41,53.96 -0.39,14.35 -2.68,33.69 -5.06,43.28 -7.09,28.36 -4.9,32.07 23.09,39.49 13.63,3.61 32.13,10.14 41.29,14.57 23.91,11.57 49.3,15.39 47.08,7.07 z m 52.72,163.91 c 4.84,-8.49 9.05,-16.31 9.32,-17.33 2.56,-9.57 11.06,-25.78 13.51,-25.78 1.67,0 1.9,-1.66 0.54,-3.86 -1.32,-2.16 -0.66,-5.89 1.48,-8.47 2.19,-2.58 4.64,-8.66 5.56,-13.82 7.52,-40.88 9.79,-56.66 11.46,-80.65 1.09,-15.11 2.8,-37.32 3.82,-48.99 2.02,-23.19 -2.03,-27.28 -10.6,-10.67 -7.43,14.35 -30.41,39.4 -36.22,39.4 -3.03,0 -5.68,7.37 -7.27,20.26 -4.88,39.4 -34.39,47.5 -73.37,20.12 -23.21,-16.31 -57.33,-28.18 -72.55,-25.21 -10.21,1.97 -11.22,3.61 -13.36,20.93 -5.07,41.25 -6.39,46.8 -10.6,44.46 -2.57,-1.45 -3.18,-1.1 -1.47,0.84 1.63,1.81 13.27,2.81 25.78,2.21 15.5,-0.76 26.4,0.74 33.92,4.6 6.23,3.23 13.12,5.71 15.81,5.71 2.56,0 5.73,2.58 6.81,5.53 1.09,2.94 4.09,5.52 6.47,5.52 2.37,0 7.94,4.06 12.15,8.83 4.17,4.8 9.22,9.43 11.06,10.14 1.79,0.7 8.56,10.5 14.87,21.54 14.72,25.78 32.17,44.69 38.86,42.12 2.85,-1.08 9.16,-8.97 14.02,-17.43 z m -721.89,57.91 c 23.94,-16.13 52.57,-31.04 59.68,-31.04 2.8,0 12.5,-3.22 21.34,-7.11 35.2,-15.42 133.73,-26.32 216.95,-24 25.43,0.7 49.33,2.02 53.39,2.94 4.13,0.93 18.81,2.8 33.13,4.25 42.37,4.25 99.5,18.81 110.14,28.07 7.56,6.58 12.42,2.48 12.85,-10.78 0.23,-7.35 1.37,-18.7 2.45,-24.67 1.12,-6.27 1.98,-13.44 1.91,-16.58 -1.13,-58.19 1.17,-122.97 5.06,-142.9 1.09,-5.53 -0.5,-9.3 -4.6,-10.86 -3.3,-1.27 -7.12,-3.44 -8.13,-4.61 -4.8,-5.55 -33.11,-21.39 -47.82,-26.75 -9.04,-3.29 -25.78,-7.11 -36.84,-8.42 -11.1,-1.31 -39.41,-6.56 -62.63,-11.6 -23.21,-5.04 -50.66,-9.97 -60.75,-10.87 -42.36,-3.84 -140.86,-0.87 -149.53,4.49 -1.41,0.87 -15.66,4.01 -31.5,6.92 -15.82,2.93 -32.25,6.17 -36.26,7.19 -51.21,12.79 -81.54,25.18 -99.47,40.59 -6.25,5.39 -12.4,9.51 -14.18,9.51 -1.7,0 -1.96,4.6 -0.55,10.11 1.43,5.57 3.04,26.71 3.58,46.98 0.9,33.16 4.12,96.11 7.36,142.89 0.66,9.57 2.23,18.69 3.42,19.9 4.02,4 2.58,14.94 -2.21,16.86 -3.31,1.32 -3.47,2.03 -0.55,2.28 2.33,0.21 13.09,-5.58 23.76,-12.79 z m 322.27,98.06 c 19.9,-4.12 45.68,-10.31 56.73,-13.63 11.03,-3.32 21.94,-6.29 23.92,-6.53 25.42,-3.18 77.92,-25.84 93.19,-40.25 12.54,-11.78 15.41,-20.81 6.62,-20.81 -2.93,0 -5.92,-2.06 -7.01,-4.79 -2.54,-6.58 -40.86,-24.67 -52.26,-24.67 -5.18,0 -12.46,-1.44 -15.85,-3.13 -3.43,-1.72 -16.2,-4.13 -28.35,-5.34 -12.15,-1.22 -31.23,-4.16 -42.38,-6.54 -17.94,-3.85 -123.01,-2.75 -149.15,1.55 -46.41,7.63 -45.99,7.53 -53.78,11.12 -3.34,1.54 -10.12,3.19 -15.65,3.82 -5.53,0.61 -10.78,2.13 -12.15,3.48 -1.29,1.29 -6.27,2.4 -10.67,2.4 -4.6,0 -14.02,2.41 -20.99,5.35 -7.01,2.94 -16.71,6.18 -21.58,7.19 -29.06,6.14 -58.43,18.56 -63.42,26.88 -1.63,2.73 -5.06,4.78 -8.02,4.78 -5.87,0 -10.98,12.64 -7.43,18.41 1.22,1.96 -0.29,3.69 -3.24,3.69 -9.86,0 -2.22,11.38 9.2,13.68 5.9,1.2 10.68,3.32 10.68,4.73 0,2.19 19.53,7.35 47.86,12.66 5.19,0.95 17.34,3.25 27.65,5.21 10.13,1.93 38.28,4.66 62.63,6.08 24.29,1.42 44.85,3.2 45.63,3.94 4.21,3.93 96.51,-2.77 127.82,-9.28 z m -228.72,24.93 c -41.26,-6.12 -74.78,-13.71 -98.35,-22.29 -12.14,-4.42 -36.08,-26.33 -36.08,-33.03 0,-2.55 -3.87,-6.51 -8.29,-8.47 -6.15,-2.74 -8.43,-6.99 -8.82,-16.57 -0.31,-7.18 -0.98,-24.31 -1.48,-38.68 -0.51,-14.36 -1.91,-27.41 -3.13,-29.46 -1.23,-2.02 -2.71,-19.51 -3.34,-38.67 -0.58,-19.34 -1.75,-52.31 -2.53,-73.67 -1.35,-36.09 -4.48,-84.19 -5.74,-88.38 -0.29,-1.03 -0.96,-19.89 -1.45,-42.37 -0.53,-22.41 -2.27,-65.19 -3.91,-95.76 -1.61,-30.56 -3.09,-58.94 -3.3,-63.52 -0.2,-4.43 -1.21,-8.29 -2.21,-8.29 -1.01,0 -2.23,-25.41 -2.7,-56.35 -1.4,-91.71 -4.77,-150.97 -10.33,-181.21 -0.74,-4.06 -1.67,-34.63 -2.1,-68.14 -0.69,-57.09 3.32,-94.82 11.81,-110.86 1.87,-3.49 3.89,-13.26 4.59,-22.1 2.03,-24.78 25.98,-54.54 55.82,-69.25 58.63,-28.91 134.08,-41.18 257.8,-41.92 51.96,-0.31 79.96,1.23 108.66,6.02 21.37,3.56 42.8,7.01 47.9,7.71 20.8,2.85 41.97,9.87 79.56,26.34 6.62,2.91 12.73,5.17 13.97,5.17 3.32,0 33.58,20.09 34.98,23.21 0.62,1.41 2.95,2.59 5.18,2.59 6.93,0 65.93,63.71 71.62,77.33 2.99,7.2 10.08,19.89 16.03,28.73 5.96,8.84 10.68,18.2 10.68,21.18 0,2.93 8.29,13.81 18.42,24.12 10.12,10.32 18.41,20.12 18.41,21.73 0,1.58 5.39,8.66 11.62,15.29 6.5,6.91 18.3,20.45 26.86,30.76 8.57,10.3 19.67,23.27 25.24,29.45 10.32,11.43 19.94,27.99 39.53,68.15 6.46,13.26 14.79,29.93 18.65,37.38 3.86,7.36 7,16.85 7,20.98 0,4.06 1.45,8.49 3.13,9.58 1.67,1.09 2.88,5.9 2.6,10.32 -0.31,4.68 0.81,13.07 2.61,19.33 5.88,20.26 7.13,25.87 7.13,31.31 0,3 1.41,11.41 3.04,18.41 2.92,12.37 9.23,148.8 7.9,171.26 -0.35,6.27 -1.67,14.25 -2.99,18.42 -1.37,4.13 -2.74,15.47 -3.13,25.78 -1.09,27.63 -1.39,28.63 -8.13,26.13 -4.8,-1.78 -5.03,-1.15 -1.21,3.34 5.57,6.54 3.43,33.89 -5.02,64.08 -3.08,11.06 -5.38,20.88 -5.19,22.1 0.2,1.22 -2.57,12.15 -6.19,24.31 -14.75,49.73 -48.08,98.05 -69.31,100.53 -8.73,1.01 -25.04,-5.3 -50.47,-19.5 -5.1,-2.88 -16.59,-13.63 -25.9,-24.31 -42.68,-48.99 -67.05,-69.61 -82.37,-69.61 -6.34,0 -8.76,14.74 -11.13,68.13 -2.81,63.72 -6.46,76.46 -27.93,97.47 -11.33,11.12 -60.74,34.42 -80.99,38.2 -5.14,0.96 -20.65,5.03 -35.01,9.19 -76.64,22.19 -91.32,24.24 -176.77,24.59 -60.04,0.25 -92.48,-1.35 -125.24,-6.21"
         id="path5402" /><path
         d="m 8580.7,7405.5 c 3.63,-12.5 5.78,-13.92 26.4,-17.22 19.88,-3.18 30.59,-0.11 30.59,8.74 0,3.89 -4.24,5.54 -14.2,5.54 -7.76,0 -21.18,2.49 -29.64,5.51 -15.48,5.53 -15.48,5.53 -13.15,-2.57"
         id="path5404" /><path
         d="m 8991.8,7396.3 c -2.11,-3.7 -4.29,-6.16 -4.91,-5.53 -0.62,0.62 -5.88,-0.74 -12.15,-3.17 -29.45,-11.36 -63.6,-21.87 -71.07,-21.87 -4.79,0 -8.1,-2.27 -8.1,-5.54 0,-9.36 32.79,-6.75 71.46,5.72 37.54,12.09 46.76,18.57 40.45,28.55 -5.56,8.83 -11.33,9.51 -15.68,1.84"
         id="path5406" /><path
         d="m 8568.5,7361.3 c -7.15,-7.15 -5.17,-14.01 4.05,-14.01 7.74,0 18.05,-2.94 65.56,-18.78 21.72,-7.24 38.51,-8.87 41.55,-4.04 2.37,3.75 -9.5,8.59 -55.53,22.66 -21.01,6.41 -38.87,13.06 -40.02,14.9 -2.92,4.77 -10.48,4.41 -15.61,-0.73"
         id="path5408" /><path
         d="m 9004.2,7349.8 c -9.04,-6.19 -88.4,-31.44 -102.38,-32.58 -7.01,-0.57 -9.93,-2.67 -9.04,-6.56 0.74,-3.3 3.16,-5.31 5.73,-4.78 2.45,0.51 14.32,1.73 26.86,2.77 12.5,1.02 25.16,3.22 28.56,4.97 3.34,1.71 12.69,4.29 20.79,5.7 8.09,1.42 18.06,4.74 22.12,7.38 3.93,2.56 12.15,5.98 17.67,7.36 8.11,2.03 10.09,4.32 9.24,10.67 -1.29,9.74 -9.63,11.9 -19.55,5.07"
         id="path5410" /><path
         d="m 9000.6,7299.4 c -1.29,-4.04 -4.72,-7.36 -7.68,-7.36 -2.8,0 -8.25,-1.53 -11.56,-3.24 -26.91,-13.95 -75.44,-30.74 -84.35,-29.16 -3.32,0.58 -7.01,-0.99 -7.79,-3.33 -3.16,-9.02 16.97,-8.82 51.99,0.51 51.91,13.85 79.51,28.89 79.51,43.32 0,9.84 -16.97,9.21 -20.12,-0.74"
         id="path5412" /><path
         d="m 8574.3,7298.1 c -9.47,-7.23 -8.1,-12.97 3.7,-15.39 5.52,-1.13 21.35,-5.49 35.72,-9.82 37.55,-11.35 50.7,-14.03 57.83,-11.84 11.6,3.61 6.97,7.9 -14.75,13.68 -29.45,7.85 -61.17,20.37 -62.61,24.72 -1.75,5.27 -12.15,4.58 -19.89,-1.35"
         id="path5414" /><path
         d="m 9020.7,7174.1 c -5.17,-4.54 -13.97,-10.49 -20.24,-13.72 -6.23,-3.23 -11.85,-6.66 -12.89,-7.92 -1.02,-1.23 -13.24,-6.12 -27.61,-11.05 -14.37,-4.93 -27.58,-10.22 -29.83,-11.97 -2.26,-1.73 -11.81,-4.2 -21.38,-5.52 -9.59,-1.33 -18.22,-3.87 -19.36,-5.7 -3.7,-5.94 9.43,-7.17 30.81,-2.92 29.82,5.93 34.61,7.5 32.71,10.64 -0.98,1.63 2.06,2.21 6.86,1.3 4.66,-0.9 14.36,0.89 20.98,3.86 6.82,3.04 18.97,7.69 27.06,10.33 23.96,7.81 35.53,17.36 34.32,28.34 -1.33,12.52 -9.97,14.27 -21.43,4.33"
         id="path5416" /><path
         d="m 8552.9,7164.6 c -5.72,-15.1 -3.9,-18.62 8.57,-16.66 1.67,0.26 7.74,-2.02 14.01,-5.26 19.82,-10.25 92.79,-31.05 115.64,-32.96 21.35,-1.76 21.74,-1.65 11.07,3.51 -6.13,2.95 -25.09,9.7 -42.38,15.08 -29.82,9.28 -73.03,28.83 -89.86,40.64 -10.43,7.33 -12.85,6.7 -17.05,-4.35"
         id="path5418" /><path
         d="m 9019.8,7120.8 c -7.97,-8.58 -64.63,-32.97 -86.71,-37.37 -4.59,-0.91 -14.77,-4.99 -22.12,-8.86 -7.36,-3.89 -15.93,-7.19 -18.62,-7.19 -2.57,0 -4.24,-2.12 -3.46,-4.41 1.56,-4.72 22.82,-4.74 30.56,-0.04 1.96,1.21 6.23,2.55 9.2,2.9 13.27,1.57 55.65,13.01 65.19,17.59 5.68,2.73 18.42,8.88 28.35,13.68 19.16,9.25 24.06,15.89 18.34,24.79 -6.08,9.47 -11.1,9.21 -20.73,-1.09"
         id="path5420" /><path
         d="m 8549.3,7102.7 c 0,-7.78 3.7,-10.17 30.56,-19.89 16.95,-6.11 37.88,-13.01 46.99,-15.47 8.8,-2.38 23.68,-6.8 32.2,-9.57 17.69,-5.77 33.89,-6.64 33.89,-1.85 0,1.83 -14.38,8.29 -32.05,14.41 -61.12,21.13 -79.08,27.97 -94.26,35.89 -14.37,7.47 -17.33,6.87 -17.33,-3.52"
         id="path5422" /><path
         d="m 8937,7016.9 c -2.57,-1.02 -6.62,-1.02 -9.23,0 -2.57,1.04 -0.54,1.85 4.63,1.85 5.14,0 7.17,-0.81 4.6,-1.85 z m 82.98,54.88 c -7.31,-10.04 -36.4,-28.27 -56.66,-35.52 -9.92,-3.57 -21.34,-7.87 -25.43,-9.59 -3.96,-1.71 -16.93,-5.83 -28.34,-9.06 -21.35,-6.01 -28.55,-13 -12.89,-12.54 7.94,0.25 29.47,3.89 51.55,8.74 21.38,4.68 72.59,28.14 86.19,39.46 7.24,5.99 5.91,16.94 -2.57,21.43 -5.54,2.93 -8.02,2.32 -11.85,-2.92"
         id="path5424" /><path
         d="m 8546.9,7039.8 c -1.17,-2.95 -1.46,-6.89 -0.7,-9.21 1.83,-5.51 75.96,-34.09 80.78,-31.12 1.99,1.21 3.32,0.7 3.32,-1.29 0,-4.74 41.27,-11.49 47.89,-7.83 4.8,2.64 4.8,3.28 0,4.82 -62.97,20.3 -110.53,38.45 -118.22,45.15 -7.38,6.41 -10.38,6.28 -13.07,-0.52"
         id="path5426" /><path
         d="m 9018.5,7021.9 c -1.25,-3.18 -5.73,-6.76 -10.13,-8.09 -4.44,-1.34 -10.35,-4.47 -13.48,-7.08 -4.24,-3.62 -34.22,-15.4 -47.85,-18.79 -1.05,-0.28 -6.62,-2.46 -12.89,-5.07 -6.27,-2.61 -15.04,-5.05 -20.25,-5.64 -15.93,-1.75 -7.76,-7.47 10.32,-7.18 27.96,0.44 72.55,14.14 90.96,27.97 17.68,13.3 19.71,17.96 11.02,25.07 -4.63,3.79 -5.88,3.61 -7.7,-1.19"
         id="path5428" /><path
         d="m 8634.4,6935.5 c -2.57,-0.8 -6.55,0.32 -8.65,2.4 -2.8,2.79 -1.48,3.2 4.8,1.46 4.78,-1.32 6.49,-3.05 3.85,-3.86 z m -88.62,40.14 c -5.53,-10.46 -5.29,-10.77 11.64,-15.29 8.81,-2.35 30.57,-11.2 49,-19.95 34.24,-16.23 67.47,-25.63 77.35,-21.85 10.06,3.86 5.88,6.82 -21.38,15.11 -25.11,7.64 -48.6,17.96 -90.94,39.93 -20.65,10.69 -21.1,10.73 -25.67,2.05"
         id="path5430" /><path
         d="m 9012.6,6959.7 c -22.83,-20.83 -37.66,-30.28 -42.73,-27.21 -1.43,0.88 -10.66,-3.96 -20.98,-10.97 -10.33,-7 -21.73,-12.52 -25.98,-12.52 -4.05,0 -10.87,-2.39 -14.72,-5.16 -4.05,-2.91 -8.69,-5.14 -10.67,-5.14 -2.06,0 -4.13,-1.86 -5.02,-4.43 -2.02,-5.98 24.73,-1.45 44.24,7.47 8.84,4.06 18.61,7.29 22.12,7.34 6.97,0.09 39.1,14.29 45.64,20.21 2.3,2.04 10.7,7.69 19.16,12.84 15.45,9.39 18.93,17.19 11.06,25.06 -6.16,6.16 -7.76,5.63 -22.12,-7.49"
         id="path5432" /><path
         d="m 8538.3,6912.7 c -1.94,-3.68 -3.69,-7.87 -3.69,-8.84 0,-7.57 96.47,-41.8 127.78,-45.34 31.09,-3.49 22.86,3.74 -18.77,16.55 -45.67,14.04 -80.24,29.47 -91.72,40.95 -5.92,5.93 -9.08,5.16 -13.6,-3.32"
         id="path5434" /><path
         d="m 9020.9,6895.9 c -6.94,-6.93 -20.06,-16.3 -28.89,-20.62 -11.81,-5.76 -14.88,-8.77 -11.26,-11.06 3.23,-2.01 0.74,-2.47 -6.97,-1.28 -6.65,1.03 -11.99,0.37 -11.99,-1.47 0,-3.35 -44.2,-18.79 -53.78,-18.79 -7.37,0 -10.6,-7.79 -4.79,-11.5 5.37,-3.41 27.99,-0.76 34.61,4.04 2.03,1.46 11.81,4.71 21.39,7.1 16.15,4.04 26.17,9.03 64.1,32.01 15.8,9.6 22.54,22.3 15.46,29.23 -4.48,4.4 -6.82,3.4 -17.88,-7.66"
         id="path5436" /><path
         d="m 8534.6,6841.6 c 0,-6.97 3.11,-9.34 17.48,-13.26 9.74,-2.66 26.33,-7.97 37.38,-11.94 20.63,-7.42 54.9,-16.01 78.81,-19.8 16.23,-2.56 18.46,2.85 3.69,8.87 -16.19,6.6 -63.57,18.13 -63.65,15.49 -0.04,-1.2 -1.29,-0.36 -2.76,1.85 -4.17,6.19 -52.18,27.25 -62.12,27.25 -6.63,0 -8.83,-2.11 -8.83,-8.46"
         id="path5438" /><path
         d="m 9020.2,6837 c -6.39,-7 -13.08,-12.71 -14.91,-12.71 -4.79,0 -14.22,-9.47 -11.76,-11.84 1.16,-1.16 -0.93,-1.73 -4.64,-1.23 -3.65,0.5 -10.86,-2.21 -15.65,-5.89 -4.79,-3.7 -11.53,-6.84 -14.72,-6.86 -10.33,-0.06 -56.16,-17 -55.69,-20.59 0.97,-8.08 75,8.85 82.13,18.79 1.59,2.21 2.69,2.51 2.73,0.74 0.04,-3.22 39.83,23.2 49.38,32.77 7.32,7.37 7.43,14.87 0.26,17.5 -3.34,1.22 -10.04,-2.95 -17.13,-10.68"
         id="path5440" /><path
         d="m 9017.1,6779.8 c -18.08,-15.57 -18.08,-15.57 -40.51,-26.02 -11.17,-5.2 -33.17,-11.65 -48.98,-14.4 -29.09,-5.04 -34.51,-8.38 -20.65,-12.77 14.73,-4.66 91.72,12.38 91.72,20.31 0,1.97 2.56,3.69 5.53,3.69 7.36,0 34.96,27.03 34.96,34.25 0,9.09 -7.7,7.32 -22.07,-5.06"
         id="path5442" /><path
         d="m 8540.5,6784.9 c -7.52,-7.51 -1.09,-15.35 18.79,-22.94 68.49,-26.15 76.56,-28.46 107.91,-31.06 21.38,-1.76 23.2,-1.42 16.93,3.17 -3.85,2.85 -16.19,6.97 -27.61,9.22 -11.37,2.22 -30.22,8.09 -41.98,13.06 -12.17,5.14 -20.27,7.05 -18.79,4.43 1.45,-2.57 -0.93,-1.52 -5.33,2.39 -4.43,3.91 -7.95,5.94 -7.95,4.61 0,-1.33 -7.7,2.53 -17.28,8.63 -18.42,11.73 -20.69,12.51 -24.69,8.49"
         id="path5444" /><path
         d="m 9013.6,6726.3 c -6.15,-6.99 -11.29,-11.79 -11.29,-10.48 0,1.27 -3.88,-0.11 -8.29,-2.95 -4.56,-2.94 -21.53,-9.89 -37.77,-15.42 -38.28,-13.12 -53.39,-20.05 -53.39,-24.54 0,-4.96 3.69,-4.39 35.7,5.49 15.86,4.89 33.7,9.94 39.81,11.26 6.19,1.34 17.13,6.36 24.84,11.41 7.76,5.06 15.11,9.03 16.78,9.03 5.46,0 19.12,16.58 19.12,23.22 0,10.61 -13.23,6.99 -25.51,-7.02"
         id="path5446" /><path
         d="m 8528.7,6723.6 c -1.29,-3.32 -1.35,-7.1 -0.14,-9.02 2.99,-4.87 35.12,-12.44 40.28,-9.51 2.6,1.46 3.26,1.28 1.62,-0.43 -3.31,-3.5 11.99,-9.05 56.21,-20.36 17.3,-4.43 33.18,-9.58 35.53,-11.52 2.6,-2.12 5.25,-1.9 6.8,0.57 1.45,2.2 2.03,4.38 1.33,4.78 -0.74,0.4 -6.81,3.83 -13.47,7.56 -6.63,3.71 -15.42,5.96 -19.32,4.96 -4.05,-1.04 -6.31,-0.4 -5.19,1.49 1.18,1.88 -0.14,3.3 -3.1,3.3 -2.85,0 -17.34,5.1 -32.42,11.42 -15.1,6.33 -32.17,12.82 -38.28,14.54 -6.27,1.77 -14.65,4.17 -19.36,5.54 -5.88,1.69 -8.92,0.74 -10.49,-3.32"
         id="path5448" /><path
         d="m 9014.9,6671.1 c 1.33,-3.31 0.71,-4.64 -1.51,-3.31 -2.18,1.33 -3.66,3.54 -3.66,5.53 0,5.21 2.72,4.04 5.17,-2.22 z m -5.17,9.16 c -14.77,-13.49 -53.05,-32.72 -65.2,-32.72 -2.57,0 -4.78,-1.88 -4.78,-4.06 0,-2.27 -2.03,-3.32 -4.59,-2.39 -2.66,0.94 -7.41,0.24 -11.07,-1.66 -4.05,-2.08 -6.46,-2.01 -6.46,0.19 0,1.94 -3.51,2.59 -7.9,1.47 -7.76,-1.98 -7.76,-2.15 -1.1,-7 4.28,-3.13 11.61,-4.21 19.71,-2.9 24.3,3.9 49.96,10.23 53.38,13.18 2.07,1.76 6.62,3.17 10.33,3.17 3.65,0 6.62,1.63 6.62,3.67 0,2.11 2.21,3.69 5.14,3.69 7.68,0 31.7,25.41 31.7,33.52 0,10.82 -7.76,8.37 -25.78,-8.16"
         id="path5450" /><path
         d="m 8535.9,6656.4 c -3.7,-9.61 8.95,-18.91 29.21,-21.49 10.66,-1.37 21.18,-4.24 23.75,-6.5 2.5,-2.21 11.95,-4.22 20.82,-4.42 8.83,-0.2 15.53,-1.54 14.71,-2.95 -0.81,-1.42 5.54,-3.42 14.37,-4.49 18.43,-2.24 73.38,-1.6 71.03,0.81 -0.78,0.81 -20.21,3.76 -43.02,6.53 -45.69,5.54 -100.04,20.82 -111.99,31.48 -9.2,8.21 -15.98,8.58 -18.88,1.03"
         id="path5452" /><path
         d="m 8991.3,6613.7 c -23.76,-12.07 -35.75,-16.55 -73.68,-27.53 -10.09,-2.93 3.7,-7.43 19.16,-6.25 30.56,2.31 91.36,29.32 85.91,38.14 -1.33,2.11 -0.63,3.7 1.56,3.7 2.21,0 3.89,1.25 3.89,2.94 0,5.8 -9.23,3.05 -36.84,-11"
         id="path5454" /></g></g></svg>
