<?xml version="1.0" encoding="UTF-8" standalone="no"?>
<!-- Created with Inkscape (http://www.inkscape.org/) -->

<svg
   version="1.1"
   id="svg2"
   xml:space="preserve"
   width="71.940636"
   height="135.49567"
   viewBox="0 0 71.940636 135.49566"
   sodipodi:docname="can.svg"
   inkscape:version="1.1.1 (eb90963e84, 2021-10-02)"
   xmlns:inkscape="http://www.inkscape.org/namespaces/inkscape"
   xmlns:sodipodi="http://sodipodi.sourceforge.net/DTD/sodipodi-0.dtd"
   xmlns="http://www.w3.org/2000/svg"
   xmlns:svg="http://www.w3.org/2000/svg"><defs
     id="defs6"><clipPath
       clipPathUnits="userSpaceOnUse"
       id="clipPath4465"><g
         inkscape:label="Clip"
         id="use4467"><path
           d="m 10384.4,9282.04 c -1.3,-2.21 -5.3,-4.11 -8.6,-4.11 -3.3,0 -5,1.9 -3.7,4.11 1.3,2.18 5.4,4.08 8.7,4.08 3.2,0 4.9,-1.9 3.6,-4.08 z m 30.7,12.25 c 0,-2.33 -3,-4.06 -7.1,-4.06 -6.2,0 -6.3,0.57 -1.1,4.02 7.8,5.12 8.2,5.12 8.2,0.04 z m -280.7,81.74 c -1.4,-2.34 -3.8,-3 -6.2,-1.65 -2.3,1.39 -3,3.82 -1.6,6.15 1.3,2.34 3.8,2.98 6.1,1.65 2.4,-1.35 3,-3.82 1.7,-6.15 z m 4.5,30.52 c -1.5,-7.79 -4.2,-13.95 -6.2,-13.95 -1.9,0 -1.9,6.98 0,15.17 1.9,8.18 3.4,16.29 3.2,17.63 -0.7,6.97 2,8.79 3.7,2.46 1.1,-4.11 0.7,-13.51 -0.7,-21.31 z m 846.2,189.87 c -4,-3.98 -4.5,-3.5 -2.5,2.25 1.5,4.08 3.8,6.37 5.1,5.12 1.4,-1.26 0.3,-4.51 -2.6,-7.37 z m -766.6,72.28 c 0,-0.9 -3.7,-1.64 -8.2,-1.64 -4.5,0 -8.2,1.64 -8.2,3.68 0,2.04 3.7,2.77 8.2,1.65 4.5,-1.12 8.2,-2.78 8.2,-3.69 z m -763.68,101.57 c -1.26,-1.35 -4.5,-0.18 -7.38,2.68 -3.95,3.99 -3.46,4.51 2.26,2.47 4.1,-1.52 6.38,-3.76 5.12,-5.15 z m 841.48,19.66 c 0,-2.38 -2.6,-4.06 -6.3,-4.06 -3.7,0 -5.3,1.68 -3.9,4.06 1.5,2.47 4,4.11 6.4,4.11 2.3,0 3.8,-1.64 3.8,-4.11 z m 4.2,12.29 c 0,-2.45 -0.8,-4.1 -1.9,-4.1 -1.1,0 -2.8,1.65 -4.3,4.1 -1.4,2.35 -0.6,4.13 1.9,4.13 2.4,0 4.3,-1.78 4.3,-4.13 z m 26.6,19.45 c -3.7,-2.03 -8,-2.72 -9.2,-1.42 -1.4,1.42 -0.3,2.46 2.6,2.46 2.9,0 3.9,1.69 2.5,4.08 -1.5,2.5 0.2,3.07 4.3,1.47 6.3,-2.52 6.3,-2.91 -0.2,-6.59 z m -830.7,60.03 c -1.32,-1.35 -4.92,-1.52 -7.78,-0.44 -3.37,1.31 -2.46,2.22 2.45,2.48 4.1,0.22 6.64,-0.74 5.33,-2.04 z m 1182.9,21.26 c 54.5,-8.23 116,-28.5 135.2,-44.47 44.2,-36.86 92.3,-95.63 86.1,-105.43 -1.5,-2.45 -0.9,-4.1 1.6,-4.1 2.2,0 5.2,-3.68 6.5,-8.19 1.3,-4.49 4.7,-8.19 7.4,-8.19 2.7,0 5.2,-5.71 5.7,-12.68 0.5,-6.97 2.9,-15.12 5.4,-18.02 2.4,-2.9 5.1,-8.79 5.9,-12.9 0.8,-4.21 4.5,-19.45 8.4,-34.22 6.8,-25.42 6.8,-52.39 0.5,-107.32 -3,-25.81 -14.7,-54.7 -28.9,-71.24 -14.4,-16.85 -25.7,-23.64 -63.8,-38.42 -12.3,-4.72 -26.2,-10.35 -30.7,-12.38 -7.2,-3.21 -49.6,-14.77 -67.6,-18.42 -3.4,-0.68 -29.3,-8.87 -57.1,-18.05 -27.9,-9.18 -55.2,-16.81 -60.2,-16.81 -5,0 -14.2,-1.85 -19.9,-4.06 -5.9,-2.26 -23,-6.84 -38.1,-10.28 -15.3,-3.4 -40.1,-9.81 -56.1,-14.5 -15.8,-4.63 -47.1,-11.91 -69.6,-16.2 -22.6,-4.29 -51.2,-11.74 -63.5,-16.58 -12.3,-4.8 -36.5,-13.12 -53.3,-18.28 -47.5,-14.68 -112.5,-37.15 -121.6,-42.14 -8.8,-4.72 -74.2,-22.3 -100.8,-27.03 l -16,-2.84 9.5,13.51 c 5.1,7.36 10.7,14.42 12.2,15.53 1.6,1.14 6.9,12.31 11.7,24.6 4.8,12.27 11.6,28.11 14.8,34.82 9.9,20.06 29.6,97.33 28.2,110.18 -0.8,6.94 -0.1,14.13 1.7,16.59 1.6,2.34 3.3,8.4 3.7,13.3 0.3,4.94 4.4,27.63 9.2,50.19 4.7,22.52 7.3,43.27 5.7,45.88 -1.7,2.72 -0.8,3.4 2,1.63 5.4,-3.33 7.8,1.82 10.3,22.31 2.4,18.84 6.7,32.79 10.2,32.79 1.5,0 3.2,3.67 3.5,7.75 0.7,10.13 36.7,81.55 47.5,94.23 3,3.56 9.5,15.16 14.2,25.39 4.8,10.47 20.6,30.82 35.8,45.85 15.1,15.08 26,28.98 24.6,31.37 -1.5,2.29 -0.2,3.32 2.6,2.25 3,-1.13 13.6,5.5 23.8,14.93 41.5,38.34 104,68.05 167.1,79.39 37.7,6.75 102.4,6.89 146.2,0.26 z m -105.6,52.88 c 17.1,-5.67 34,-10.43 37.6,-10.65 3.7,-0.26 1.3,-1.99 -5.3,-3.89 -6.5,-1.91 -20.5,-1.91 -30.7,-0.04 -27,4.97 -90.5,-7.23 -90.5,-17.38 0,-1.94 -1.7,-2.29 -4.1,-0.83 -2.3,1.35 -19.3,-4.1 -37.7,-12.07 -18.4,-7.98 -34.9,-14.56 -36.5,-14.56 -5.1,0 -20.9,-7.36 -36.8,-17.23 -8.2,-5.07 -24.2,-14.73 -34.9,-21.05 -21.7,-12.91 -67.1,-57.69 -67.1,-66.13 0,-1.87 -2.8,-6.14 -6.4,-9.84 -6.1,-6.15 -34.6,-49.11 -34.6,-52.05 0,-0.68 3.1,-1.99 7.2,-3.03 5.7,-1.48 5.3,-1.96 -1.7,-2.3 -6.5,-0.31 -11.9,-6.93 -21.3,-26.2 -15.3,-31.53 -34,-73.23 -35.2,-78.65 -0.5,-2.21 -4.1,-11.04 -7.8,-19.23 -3.6,-8.18 -6.7,-17.33 -6.7,-19.87 0,-2.65 -2.6,-10.45 -6,-17.81 -5.7,-12.69 -18.6,-50.03 -18.6,-54.09 0,-1.13 2.3,-0.69 5.1,1.05 4.1,2.42 4.2,1.85 0.5,-2.7 -6.5,-8.19 -25.9,-64.31 -23.2,-67.17 1.3,-1.3 0.5,-4.9 -1.8,-7.75 -3.8,-4.72 -7.6,-25 -11.9,-62.28 -1,-9.09 -4,-24.56 -6.6,-34.82 -2.6,-10.22 -4.3,-18.89 -3.9,-19.45 0.5,-0.56 -3.1,-11.68 -8,-24.76 -10.9,-29.11 -36.5,-67.4 -49.3,-73.64 -12.1,-5.84 -38.92,-10.68 -54.51,-9.83 -6.95,0.4 -16.19,0.7 -21.28,0.7 -4.91,0 -10.13,1.86 -11.46,4.12 -1.38,2.29 0.39,4.1 4.08,4.1 9.22,0 7.79,7.11 -2.04,10.23 -11.23,3.59 -8.62,14.17 6.98,28.02 7.32,6.54 15.09,17.83 17.61,25.63 5.36,16.51 2.44,20.71 -23.37,33.7 -11.46,5.8 -18.2,12.65 -21.27,21.61 -5.42,15.77 -4.11,17.24 20.88,23.91 18.83,5.02 43.59,26.07 49.48,42.01 5.4,14.47 -5.28,31.23 -27.79,43.92 -23.75,13.42 -32.09,24.25 -27.71,35.99 1.48,4.02 13.59,18.01 26.7,30.92 19.66,19.31 23.44,25.25 21.16,32.96 -3.26,10.86 -0.89,9.18 -22.18,15.8 -22.53,6.98 -27.46,19.59 -14.97,38.24 12.32,18.46 35.72,37.82 53.49,44.32 6.6,2.37 7.3,5.49 4.9,20.22 -1.6,9.43 -5.6,22.87 -8.7,29.28 -6.5,13.12 -7.7,22.95 -2.8,22.95 1.8,0 5.8,6.97 8.8,15.16 9.7,27.02 51.1,58.55 76.8,58.55 23.1,0 26.4,3.68 27.2,31.15 1.2,38.18 14.6,47.46 76.5,52.91 14.7,1.34 30.6,4.98 35.6,8.18 14.3,9.33 25.8,23.27 25.8,31.45 0,4.11 2.4,7.67 5.3,7.97 5.8,0.59 12.1,1.99 15.2,3.25 3.5,1.47 18,4.4 24.6,5.02 3.3,0.3 23.1,-0.73 43.6,-2.3 35.2,-2.68 37.8,-2.33 43.4,5.72 3.2,4.68 12.9,13.82 21.1,19.88 14.7,10.96 16.8,11.3 74.5,12.08 53.3,0.73 62.7,-0.22 90.6,-9.4 z m -813.91,10.66 c 0,-4.94 -7.76,-10.31 -10.66,-7.41 -3.03,3.04 2.03,11.09 6.97,11.09 2.21,0 3.69,-1.47 3.69,-3.68 z m 630.81,48.7 c 23.7,-2.2 48.8,-5.1 56.1,-6.3 15.1,-2.7 51.8,-18.14 49.1,-20.75 -0.9,-0.91 -18.4,-2.39 -39.3,-3.33 -47.1,-2.21 -52.2,-3.73 -70.5,-21.31 l -14.7,-14.25 -40.5,0.43 c -22.2,0.22 -46.2,0.66 -52.9,0.95 -29.9,1.31 -34.8,-0.42 -37.3,-13.25 -1.4,-6.97 -4.9,-14.25 -8.1,-16.8 -3.3,-2.55 -5.8,-6.97 -5.8,-10.22 0,-10.92 -28.2,-19.27 -55.7,-16.45 -21.7,2.2 -25.9,1.42 -32.4,-5.69 -4,-4.49 -8.8,-8.18 -10.6,-8.18 -5.7,0 -24.2,-17.79 -24.2,-23.34 0,-2.94 -3.6,-8.44 -8.2,-12.3 -6.1,-5.2 -7.5,-10.21 -5.7,-20.06 2.4,-12.81 2.1,-13.11 -14.3,-13.33 -12.7,-0.13 -20.1,-3.25 -30.1,-12.69 -7.4,-6.93 -14.6,-12.46 -16.2,-12.46 -7.8,0 -29.74,-24.61 -38.03,-42.62 -10.18,-22.13 -11.56,-60.21 -2.51,-69.22 5.31,-5.33 5.81,-11.56 0.8,-10.13 -3.31,1 -26.92,-22.22 -47.62,-46.82 -5.48,-6.49 -10.51,-19.67 -12.2,-31.96 -3.23,-22.92 1.8,-32.14 23.77,-43.58 l 11.47,-5.97 -12.9,-12.07 c -6.95,-6.54 -14.2,-12.09 -15.77,-12.09 -5.06,0 -16.88,-30.31 -15.16,-38.89 0.91,-4.5 1.81,-9.5 2,-11.09 0.61,-5.33 25.59,-31.92 29.97,-31.92 2.17,0 9.39,-3.8 15.54,-8.19 21.39,-15.2 4.51,-35.12 -38.49,-45.38 -11.49,-2.77 -22.27,-7.06 -23.96,-9.53 -1.73,-2.51 -2.08,-13.51 -0.81,-24.99 2.59,-23.25 11.67,-35.3 35.82,-47.64 16.79,-8.62 18.01,-15.07 4.1,-22.13 -4.89,-2.51 -11.23,-6.54 -14.72,-9.48 -6.98,-5.77 -11.72,-33.39 -5.77,-33.39 2.46,0 3.03,-1.04 1.44,-2.65 -1.52,-1.51 0.42,-5.19 4.52,-8.62 6.56,-5.41 6.56,-5.71 0.2,-3.67 -3.7,1.21 -8.1,0.42 -9.43,-1.65 -1.58,-2.52 -4.91,-2.43 -9.41,0.22 -3.77,2.2 -14.94,6.06 -24.39,8.4 -9.4,2.33 -17.42,6.06 -17.42,8.18 0,2.16 -4.28,5.9 -9.6,8.39 -5.79,2.7 -14.35,14.56 -21.5,29.72 -10.17,21.52 -11.89,30.49 -12.08,62.01 -0.12,20.5 1.33,45.1 3.26,55.32 1.93,10.13 4.2,33.17 5.06,51.18 1.61,33.48 2.13,37.3 10.15,75.8 2.55,12.3 5.6,27.21 6.7,32.79 1.19,5.71 2.78,12.38 3.68,15.16 0.91,2.67 2.87,15.54 4.34,28.67 1.43,12.99 6.37,41.36 10.82,62.67 4.5,21.26 9.6,45.38 11.26,53.21 1.71,7.88 6.78,21.7 11.29,30.72 4.49,9.05 9.59,20.83 11.3,26.24 6.72,21.26 34.84,63.05 63.64,94.59 32.14,35.25 100.64,94.23 109.34,94.23 2.9,0 5.3,1.51 5.3,3.25 0,4.38 89.8,47.06 116.8,55.66 21.2,6.6 113.5,15 135.2,12.3 6.8,-0.9 31.5,-3.4 55.3,-5.7 z m -525.55,46.4 c 9.83,-2.6 12.9,-9.4 4.5,-10 -8.6,-0.5 -63.9,-37.4 -83.56,-55.69 -10.22,-9.54 -13.65,-10.74 -17.6,-6.28 -4.06,4.54 -7.38,3.45 -18.87,-6.15 -17.19,-14.38 -20.71,-22.13 -12.69,-28.02 5.37,-3.95 4.78,-6.59 -4.5,-20.54 -5.72,-8.57 -12.07,-16.88 -13.73,-18.01 -1.7,-1.13 -4.33,-6.98 -5.93,-13.12 -1.59,-6.11 -5.41,-13.12 -8.6,-15.77 -3.15,-2.55 -5.73,-7.75 -5.73,-11.43 0,-3.73 -3.53,-12.52 -7.78,-19.49 -4.37,-7.1 -9.06,-18.85 -10.67,-26.6 -1.59,-7.79 -4.56,-16.02 -6.75,-18.66 -2.01,-2.47 -3.47,-6.36 -3.06,-8.19 0.45,-1.85 -0.41,-6.36 -1.83,-9.61 -8.12,-18.84 -18.64,-54.83 -16.91,-57.76 1.17,-1.96 0.47,-4.17 -1.73,-5.56 -6.28,-3.89 -21.79,-59.98 -23.21,-84.14 -0.77,-12.31 -1.74,-22.53 -2.22,-22.53 -0.43,0 -1.26,-6.53 -1.79,-14.33 -1.29,-18.45 -13.76,-90.43 -17.04,-98.31 -5.47,-13.12 -5.63,-24.56 -0.39,-24.56 3.27,0 3.73,-1.21 1.21,-3.07 -2.21,-1.68 -6.68,-10.48 -9.71,-19.06 -10.81,-30.7 -20.79,-43.44 -34.12,-43.44 -9.01,0 -11.7,1.56 -10.04,5.76 1.26,3.21 -4.79,13.51 -13.7,23.34 -8.91,9.84 -15.06,19.07 -13.94,20.88 1.19,1.91 -0.61,4.33 -4.28,5.76 -5.36,2.03 -6,7.75 -4.1,36.03 3.14,46.31 8.83,65.92 21.07,72.37 5.58,2.99 13.88,12.6 18.24,21.22 7.68,15.16 7.71,16.3 0.6,28.89 -4.15,7.37 -9.6,14.51 -12.47,16.37 -2.67,1.7 -5.12,5.94 -5.12,8.8 0,2.94 -2.87,7.92 -6.15,10.65 -6.92,5.71 -6.56,29.58 0.39,26.93 2.48,-0.95 9.65,2.92 15.79,8.5 10.54,9.61 11.16,12.07 9.82,39.53 l -1.43,29.28 17.2,8.71 c 18.44,9.27 31.81,20.83 32.15,27.76 0.1,2.51 -4.89,14.33 -11.25,26.63 -6.37,12.26 -11.43,27.76 -11.36,34.82 0.15,19.1 19.13,43.31 40.42,51.5 21.72,8.36 28.28,16.72 29.7,37.76 0.71,10.65 4.65,19.02 12.51,26.43 10.83,10.26 12.71,10.65 33.59,6.88 27.02,-4.85 39.33,-1.04 39.33,12.12 0,26.7 4.01,33.3 25.8,42.6 11.87,5.1 25.82,9.8 31.54,10.7 16.79,2.7 58.48,2.8 68.4,0.1 z m 291.45,-4.6 c 14.3,-6.1 25.9,-12.9 25.8,-15.1 -0.1,-2.3 -6.4,-5.6 -13.7,-7.3 -31.2,-7.3 -47.6,-13.5 -70.9,-26.6 -27.9,-15.64 -60.7,-38.26 -75.8,-52.16 -5.7,-5.24 -18.4,-10.7 -28.64,-12.3 -10.12,-1.56 -43.44,-9.17 -73.76,-16.8 -30.29,-7.62 -58.24,-13.9 -61.83,-13.9 -10.67,0 -20.67,-10.01 -17.7,-17.63 3.53,-9.09 16.48,-8.79 29.98,0.7 5.92,4.16 18.86,8.75 29.09,10.34 21.28,3.29 69.32,17.67 75.77,22.7 4.93,3.82 22.51,8.48 22.51,5.97 0,-0.85 -7.1,-9 -15.36,-17.58 -37.92,-39.33 -69.77,-78.48 -83.73,-102.82 -24.11,-42.18 -27.89,-49.79 -27.89,-56.52 0,-3.98 -3.75,-14.75 -8.17,-23.37 -4.43,-8.58 -8.2,-19.19 -8.2,-22.92 0,-9.05 -8.58,-13.73 -57.32,-31.14 -21.31,-7.61 -46.88,-16.8 -56.52,-20.31 -31.98,-11.61 -51.98,-24.12 -53.28,-33.35 -1.51,-10.69 -0.39,-10.78 16.42,-1.64 7.4,4.07 25.59,12.17 40.31,18.02 14.68,5.84 42.82,18.26 62.07,27.45 19.25,9.19 36.53,16.81 38.11,16.81 4.07,0 -2.11,-33.18 -8.54,-45.87 -2.97,-5.93 -6.49,-16.59 -7.87,-23.99 -1.34,-7.37 -3.55,-15.12 -4.9,-17.41 -1.41,-2.34 -0.6,-2.95 1.85,-1.44 2.74,1.74 2.31,-5.71 -1.24,-20.87 -3.07,-13.12 -5.63,-31.01 -5.72,-40.36 -0.12,-9.4 -1.56,-18.15 -3.3,-19.84 -1.83,-1.86 -3.14,-4.15 -3.28,-5.75 -0.09,-1.47 -1.47,-10.83 -3.07,-21.1 -3.08,-19.66 -6.16,-40.97 -6.64,-46.29 -0.19,-1.96 -1.71,-2.44 -3.8,-1.22 -1.89,1.13 -15.16,-3.46 -29.06,-10.04 -13.94,-6.54 -27.48,-12.09 -29.71,-12.09 -2.26,0 -14.34,-6.15 -27.02,-13.77 -39.34,-23.69 -89.01,-34.09 -118.8,-24.85 -11.05,3.41 -11.05,3.41 1.17,16.54 5.71,6.14 9.39,11.95 8.24,13.07 -1.05,1.09 1.65,4.68 5.74,7.54 6.55,4.64 39.03,60.68 36.9,63.75 -0.48,0.64 1.3,7.79 3.86,15.54 2.54,7.8 5.37,18.12 6.15,22.53 0.78,4.55 2.47,10.95 3.72,14.38 4.85,12.99 8.55,38.07 13.35,90.08 1.5,16.81 3.63,34.43 4.63,38.94 1.01,4.5 2.85,19.22 4.11,32.74 1.21,13.51 3.98,27.88 6.14,31.96 2.15,4.11 4.52,10.48 5.31,14.33 15.8,77.02 74.17,169.38 139.07,220.1 8.52,6.63 23.34,18.32 32.76,25.77 20.01,15.77 92.16,51.47 113.04,55.87 7.79,1.6 19.97,5.9 26.65,9.3 14.4,7.5 48.3,12 94.2,12.6 27,0.3 37.3,-1.6 58.8,-10.7 z m -179.65,41.2 c 20.33,-9.3 17.63,-12.4 -15.55,-17.8 -37.29,-6.1 -40.98,-6.9 -45.86,-9.9 -2.52,-1.6 -7.58,1 -11.48,6 -6.45,8.1 -10.66,8.8 -56.13,8.8 -38.06,0 -55.31,-1.9 -76.57,-8.5 -27.68,-8.6 -31.4,-11.6 -59.65,-48.5 -6.86,-8.9 -8.97,-9.4 -23.72,-5.3 -15.58,4.4 -16.76,3.9 -31.53,-10.6 -8.62,-8.5 -15.36,-17.45 -15.36,-20.3 0,-2.9 -2.87,-8.02 -6.55,-11.7 -3.69,-3.67 -5.5,-7.62 -4.12,-9.01 4.39,-4.37 -14.33,-25.81 -22.52,-25.81 -15.24,0 -45.93,-38.07 -50.46,-62.67 -2.24,-12.16 -0.31,-20.48 9.75,-42.18 14.29,-30.71 14.2,-30.32 5.9,-30.32 -10.23,0 -42.47,-25.2 -42.97,-33.56 -0.25,-4.11 -0.82,-9.67 -1.25,-12.51 -0.48,-2.87 0.43,-6.93 2.02,-9.23 10.97,-15.64 2.87,-37.69 -18.83,-51.24 -7.8,-4.84 -14.33,-11.56 -14.33,-14.68 0,-6.72 10.54,-27.07 23.15,-44.64 4.99,-6.98 9.4,-15.86 10.17,-20.5 1.75,-10.43 -8.33,-24.6 -20.23,-28.32 -12.27,-3.86 -16.77,-23.69 -16.77,-74.1 0,-36.04 1.21,-43.01 10.12,-58.13 15.95,-27.06 11.92,-28.58 -12.6,-4.84 -37.4,36.21 -40.91,47.03 -40.72,124.43 0.2,70.89 -1.02,65.13 39.21,189.65 6.75,20.87 11.08,39.49 9.71,41.78 -1.48,2.43 -0.89,4.08 1.42,4.08 2.2,0 3.9,4.11 3.9,9.45 0,5.15 9.49,29.48 20.89,53.65 11.41,24.17 20.9,45.18 20.9,46.25 0,1.18 5.5,9.05 12.27,17.63 6.79,8.62 12.29,16.68 12.29,18.02 0,8.56 47.95,63.8 74.97,86.3 49.67,41.4 130.66,70.2 201.12,71.5 20.48,0.4 37.39,1.3 38.07,2 2.43,2.3 74.56,-17.5 91.34,-25.2 z m -258.44,52.4 c -33.6,-9.4 -46.67,-16.2 -66.77,-34.9 -8.61,-8 -23.34,-19.6 -31.95,-25.1 -8.59,-5.5 -19.19,-15.7 -22.92,-21.9 -3.79,-6.4 -17.01,-20.8 -28.89,-31.6 -13.16,-11.9 -26.17,-28.9 -32.56,-42.37 -5.81,-12.29 -12.57,-24.55 -14.88,-27.02 -10.49,-11.17 -17.23,-20.87 -23.76,-34.43 -18.92,-38.9 -33.04,-72.19 -33.04,-77.82 0,-3.26 -1.54,-7.19 -3.3,-8.36 -1.81,-1.26 -4.34,-9.45 -5.71,-18.46 -1.4,-9 -5.2,-22.08 -8.61,-29.48 -3.38,-7.37 -7.15,-22.96 -8.41,-34.82 -1.2,-11.87 -3.81,-26.08 -5.73,-31.76 -1.92,-5.67 -4.66,-25.8 -6.15,-45.03 -1.46,-19.15 -3.92,-53.28 -5.49,-75.8 -5.69,-82.72 -0.88,-149.59 11.44,-158.67 3.88,-2.87 10.98,-11.7 15.98,-19.89 10.5,-17.24 32.09,-34.82 47.51,-38.67 5.74,-1.48 10.65,-4.41 10.65,-6.41 0,-1.96 2.86,-3.68 6.15,-3.68 3.27,0 6.15,-1.82 6.15,-3.9 0,-2.13 4.07,-5.19 9.01,-6.76 4.89,-1.56 11.51,-5.36 14.53,-8.4 3.14,-3.12 9.03,-5.5 13.54,-5.5 4.29,0 14.94,-2.73 23.12,-5.97 21.42,-8.41 36.86,-11.09 61.03,-10.58 27.04,0.56 45.11,5.72 43.5,12.43 -0.89,3.69 0.32,4.03 4,1.09 6.54,-5.29 44.26,4.68 44.26,11.61 0,2.46 1.48,3.19 3.68,1.86 2.04,-1.25 15.77,4.12 30.92,12.08 15.17,7.98 27.59,14.34 28.07,14.34 0.43,0 0.71,-16.38 0.6,-36.47 -0.12,-20.05 1.37,-47.21 3.3,-60.41 1.9,-13.09 3.37,-29.88 3.25,-37.07 -0.14,-8.19 2.64,-15.12 7.38,-18.42 4.2,-2.93 10.59,-11.25 14.34,-18.66 4.16,-8.19 11.11,-14.34 18.03,-15.99 6.13,-1.42 13.69,-5.05 16.59,-7.97 2.94,-2.93 24.99,-11.73 49.16,-19.61 45.04,-14.69 94.77,-21.09 108.57,-14.08 4.1,2.13 16.8,4.6 28.6,5.63 11.8,1.04 37.7,4.6 58.2,8.02 20.5,3.38 46.9,7.83 59.4,9.96 21.5,3.67 37.7,7.54 106.5,25.46 16.8,4.38 38.1,9.66 47.1,11.66 9,2.03 23.7,6.92 32.8,10.87 9,3.94 17.6,6.79 19.2,6.31 1.6,-0.43 7.8,1.09 14,3.47 22.7,8.75 82.3,24.21 155.6,40.37 20.5,4.49 52.8,13.03 71.7,18.87 83.5,25.95 153.4,48.72 157.3,51.33 2.2,1.52 15.9,6.75 30.7,11.73 14.7,4.99 30.2,10.58 34.8,12.48 4.5,1.94 20.5,8.44 35.6,14.55 15.2,6.11 29.6,13.64 32.2,16.8 2.6,3.29 6.1,5.72 8,5.72 6.1,0 48.9,31.8 46.2,34.43 -1.2,1.25 -0.2,2.47 2.3,2.47 2.4,0 4.7,2.04 4.7,4.29 0,2.34 4.7,14.55 10.3,26.81 5.6,12.3 10.2,25.33 10.2,28.67 0,3.29 2.8,11.48 5.9,17.62 8.9,17.21 3.9,143.71 -5.5,137.9 -1.4,-0.82 -2.6,3.2 -2.9,9.35 -0.2,6.16 -1.7,15.29 -3.5,21.09 -1.7,5.77 -3.9,14.77 -5.1,20.48 -2.9,14.77 -24.9,59.04 -34.2,69.22 -4.6,4.94 -7.9,9.48 -7.9,10.65 0,1.13 -5.9,10.66 -13.2,21.31 -28.7,41.97 -68.8,69.72 -134.3,93.07 -16.8,6.02 -31.2,10.69 -31.8,10.36 -0.5,-0.35 -20,0.86 -43,2.68 -22.9,1.78 -45.1,2.9 -48.9,2.47 -7.8,-0.91 -9.8,5.85 -2.5,8.31 2.7,0.87 3.4,5.16 1.6,10.48 -1.5,4.93 -4.3,8.19 -6.1,7.15 -3.5,-2.04 -51.6,10.52 -76.2,19.83 -9,3.43 -20.6,6.32 -25.8,6.41 -11,0.26 -22.7,10.58 -20.2,17.87 2.4,7.1 -23.6,21.2 -50.2,27.2 -12.3,2.8 -26.3,6.7 -30.7,8.6 -4.5,1.9 -14.8,4.3 -22.6,5.3 -7.7,1 -21.7,3.8 -30.3,6.1 -13.8,3.6 -38.1,3.5 -134.7,-0.7 -11.9,-0.5 -17,1.5 -21.5,8.4 -5.7,8.6 -27.7,21.7 -36.7,21.7 -2.8,0 -10.6,2.8 -18,6.5 -7.3,3.6 -21.7,7.2 -32.4,8 -10.7,0.8 -29.1,3.5 -41.4,6.1 -16.3,3.5 -26.9,3.5 -40.7,0 -15.6,-3.9 -19.2,-3.7 -21.9,1.5 -1.8,3.4 -13.3,9 -25.6,12.5 -12.3,3.5 -23.46,8.1 -24.81,10.4 -1.29,2.2 -6.75,4.1 -11.67,4.1 -4.91,0 -10.92,1.6 -12.9,3.3 -7.82,7.1 -49.57,17.4 -79.88,19.7 -79.45,6.4 -144.68,5.5 -172.43,-2.3 v 0"
           style="fill:#313131;fill-opacity:1;fill-rule:nonzero;stroke:none"
           id="path12279" /><path
           d="m 10034.2,10012.2 c -28.3,-1.4 -61.26,-9.1 -84.77,-19.76 -21.3,-9.61 -24.97,-14.72 -18.29,-25.55 2.91,-4.76 5.59,-4.41 15.41,1.91 14.34,9.26 36.88,17.88 52.84,20.26 34.41,5.15 63.11,11.94 77.81,18.54 l 16.4,7.2 -20.5,-0.8 c -11.5,-0.5 -28.6,-1.2 -38.9,-1.8 v 0"
           style="fill:#313131;fill-opacity:1;fill-rule:nonzero;stroke:none"
           id="path12281" /><path
           d="m 9913.38,9882.78 c -4.48,-3.03 -18.43,-8.01 -30.73,-10.91 -12.31,-2.9 -24.38,-6.67 -26.64,-8.31 -3.91,-2.86 -14.34,-4.98 -52,-10.71 -17.2,-2.59 -22.44,-10.55 -13.11,-19.91 5.4,-5.37 12.72,-4.98 23.76,1.34 2.25,1.29 8.81,2.81 14.55,3.37 5.71,0.56 11.08,3 11.86,5.33 0.78,2.29 4.73,4.29 8.4,4.29 6.98,0 69.21,30.54 76.18,37.34 6.11,5.97 -2.85,4.67 -12.27,-1.83 v 0"
           style="fill:#313131;fill-opacity:1;fill-rule:nonzero;stroke:none"
           id="path12283" /><path
           d="m 9865.05,9818.12 c -10.66,-4.24 -23.45,-8.45 -28.67,-9.35 -24.99,-4.47 -65.94,-17.41 -84.79,-26.82 -9.39,-4.71 -7.79,-18.87 2.05,-18.05 9.42,0.78 85.1,29.79 88.21,33.82 0.99,1.31 4.78,3.03 8.03,3.69 12.29,2.46 40.96,17.36 40.96,21.3 0,5.29 -2.03,4.9 -25.79,-4.59 v 0"
           style="fill:#313131;fill-opacity:1;fill-rule:nonzero;stroke:none"
           id="path12285" /><path
           d="m 9822.24,9742.42 c -13.93,-4.89 -32.7,-10.23 -41.17,-11.7 -22.53,-3.85 -55.34,-14.68 -61.02,-20.05 -3.17,-3.02 -3.66,-6.76 -1.45,-10.43 2.93,-4.85 6.59,-4.9 23.36,-0.39 11.07,2.94 21.68,6.32 23.97,7.58 2.21,1.2 7.15,2.77 10.83,3.46 3.73,0.64 15.58,5.85 26.23,11.48 10.64,5.59 21.5,10.25 23.97,10.3 5.71,0.09 25.66,14.99 22.92,17.16 -1.1,0.87 -13.7,-2.52 -27.64,-7.41 v 0"
           style="fill:#313131;fill-opacity:1;fill-rule:nonzero;stroke:none"
           id="path12287" /><path
           d="m 9794.6,9625.01 c -6.89,-4.47 -49.58,-18.93 -86.84,-29.5 -8.79,-2.51 -13.64,-12.42 -10.47,-21.43 2.64,-7.49 10.86,-6.15 21.12,3.42 4.91,4.63 10.13,7.44 11.46,6.18 1.33,-1.2 7.39,1.18 13.11,5.16 5.74,3.94 14.8,8.66 19.67,10.18 14.74,4.55 46.29,23.31 46.29,27.5 0,5.11 -4.93,4.6 -14.34,-1.51 v 0"
           style="fill:#313131;fill-opacity:1;fill-rule:nonzero;stroke:none"
           id="path12289" /><path
           d="m 9780.26,9569.26 c -3.37,-1.86 -20.9,-6.71 -38.92,-10.73 -40.55,-9.1 -67.57,-20.57 -67.57,-28.67 0,-10.27 10.23,-11.04 27.41,-2.04 9.03,4.72 20.83,9.4 26.25,10.45 9.63,1.81 23.34,6.45 44.63,15.11 18.05,7.32 22.07,9.86 23.72,14.98 1.73,5.38 -6.49,5.85 -15.52,0.9 v 0"
           style="fill:#313131;fill-opacity:1;fill-rule:nonzero;stroke:none"
           id="path12291" /><path
           d="m 9757.72,9494.22 c -6.82,-2.31 -20.46,-6.76 -30.72,-10.09 -38.5,-12.48 -90.12,-36.3 -90.12,-41.55 0,-11.55 13.94,-9.17 50.41,8.63 20.86,10.22 42.21,19.74 47.9,21.35 16.79,4.84 40.96,18.11 40.96,22.48 0,4.71 -2.03,4.63 -18.43,-0.82 v 0"
           style="fill:#313131;fill-opacity:1;fill-rule:nonzero;stroke:none"
           id="path12293" /><path
           d="m 9657.38,9907.34 c -5.79,-3.03 -16.17,-10.65 -22.73,-16.63 -6.57,-6.02 -15.19,-13.98 -18.85,-17.42 -4.26,-3.97 -6,-10.42 -4.74,-17.39 4.24,-23.36 3.46,-60.43 -1.48,-70.03 -3.57,-6.98 -3.8,-11.41 -0.73,-15.17 2.45,-3.08 3.43,-7.79 2.25,-11.08 -1.17,-3.25 -0.21,-7.59 2.27,-10.01 3.04,-3.08 7.23,0 14.51,10.65 7.31,10.62 8.78,15.42 5.14,16.59 -3.94,1.26 -3.9,2.38 0.19,4.97 5.31,3.39 6.14,16.73 3.49,56.04 -1.34,20.06 -0.43,22.75 12.09,35.65 7.92,8.19 19.23,15.03 27.43,16.59 15.96,3.08 17.3,6.37 6.56,15.99 -9.14,8.18 -11.89,8.31 -25.4,1.25 v 0"
           style="fill:#313131;fill-opacity:1;fill-rule:nonzero;stroke:none"
           id="path12295" /><path
           d="m 9573.29,9658.45 c -1.51,-2.48 1.21,-9.84 6.08,-16.38 9.43,-12.68 8.6,-24.16 -2.65,-36.86 -4.89,-5.5 -5.21,-8.79 -1.48,-15.76 2.65,-4.94 6.89,-8.1 9.65,-7.23 7.39,2.42 24.91,37.33 19.63,39.1 -5.71,1.92 -5.71,9.19 0,7.89 8.19,-1.82 7.97,6.71 -0.5,20.66 -8.21,13.51 -24.83,18.13 -30.73,8.58 v 0"
           style="fill:#313131;fill-opacity:1;fill-rule:nonzero;stroke:none"
           id="path12297" /><path
           d="m 10253.8,9866.53 c -4.2,-2.97 -8.7,-11.46 -10.3,-19.26 -2.2,-11.05 -5.3,-14.42 -14.9,-16.38 -6.7,-1.33 -19.9,-6.97 -29.3,-12.42 -20.1,-11.65 -23.2,-24.17 -8.6,-34.39 12.7,-8.92 15.6,-8.23 15.6,3.82 0,11.09 11.8,18.45 29.8,18.45 14.2,0 23.2,8.57 28,26.59 8.8,33.59 5.4,44.99 -10.3,33.59 v 0"
           style="fill:#313131;fill-opacity:1;fill-rule:nonzero;stroke:none"
           id="path12299" /><path
           d="m 10103.8,9745.24 c -34.8,-18.46 -45.7,-48.52 -27,-74.06 20.7,-28.28 21.5,-31.84 9.6,-44.27 -28,-29.19 2.3,-26.2 33,3.26 l 9.4,9.05 -14.7,18.01 c -19.1,23.34 -26.8,41.97 -21.8,52.84 4.7,10.22 33.5,24.42 42.7,21 4.2,-1.55 9,0.31 12.3,4.82 12.3,16.87 -17.3,23.25 -43.5,9.35 v 0"
           style="fill:#313131;fill-opacity:1;fill-rule:nonzero;stroke:none"
           id="path12301" /><path
           d="m 10056.3,9543.89 c -15.2,-7.36 -16.4,-9.14 -17.4,-25.51 -0.7,-12.69 1.3,-20.57 7.4,-28.28 4.5,-5.72 8.4,-11.96 8.4,-13.51 0,-1.55 3.8,-8.19 8.6,-14.73 6.2,-8.61 7.8,-15.15 5.9,-23.77 -3.4,-14.73 2.5,-18.85 13.7,-9.58 11.9,9.84 15.5,30.32 6.9,39.07 -3.6,3.68 -5.4,6.98 -3.8,6.98 1.7,0 -2,5.32 -8.4,11.86 -14.2,14.77 -16.9,38.41 -4.5,40.4 22.2,3.52 26.7,5.72 26.7,12.87 0,4.37 -4.2,8.83 -9.5,10.26 -13.1,3.43 -15.1,3.03 -34,-6.06 v 0"
           style="fill:#313131;fill-opacity:1;fill-rule:nonzero;stroke:none"
           id="path12303" /><path
           d="m 10032.5,9372.56 c -7.5,-14.56 -7.9,-24.99 -1.8,-45.85 3.4,-11.5 7,-16 12.7,-16 6.9,0 7.6,1.83 5.1,13.3 -1.5,7.36 -4.5,13.95 -6.5,14.73 -4,1.52 6.1,12.94 11.5,12.94 1.8,0 3.7,6.54 4.3,14.73 0.8,11.86 -0.2,14.25 -5.4,12.29 -3.7,-1.42 -5.3,-0.72 -3.9,1.65 1.4,2.18 -0.4,4.08 -3.7,4.08 -3.3,0 -8.9,-5.34 -12.3,-11.87 v 0"
           style="fill:#313131;fill-opacity:1;fill-rule:nonzero;stroke:none"
           id="path12305" /><path
           d="m 10658.9,9862 c -33.2,-12.35 -62.4,-28.11 -56.2,-30.24 2.7,-0.95 20.1,3.09 38.9,8.97 18.9,5.89 38.8,10.65 44.7,10.65 13.1,0 17.9,6.46 11,14.72 -6.1,7.32 -8.6,7.02 -38.4,-4.1 v 0"
           style="fill:#313131;fill-opacity:1;fill-rule:nonzero;stroke:none"
           id="path12307" /><path
           d="m 10696.9,9841.3 c -10.7,-5.6 -29.2,-12.35 -41.9,-15.3 -17.6,-4.15 -22.8,-7.1 -22.8,-13.11 0,-9.93 12.3,-7.8 56.1,9.74 34.4,13.77 43.3,19.32 39.8,25.07 -3.5,5.76 -10.3,4.37 -31.2,-6.4 v 0"
           style="fill:#313131;fill-opacity:1;fill-rule:nonzero;stroke:none"
           id="path12309" /><path
           d="m 10449.1,9830.85 c -16.8,-7.49 -24.7,-14.94 -20.5,-19.18 1.4,-1.35 7.8,-0.31 14,2.26 6.2,2.54 21.7,4.84 34,4.97 26.2,0.39 36.8,2.77 36.8,8.32 0,2.46 -1.4,3.2 -3.6,1.81 -2.3,-1.33 -4.3,-0.59 -5.2,1.86 -2.8,7.84 -37.8,7.8 -55.5,-0.04 v 0"
           style="fill:#313131;fill-opacity:1;fill-rule:nonzero;stroke:none"
           id="path12311" /><path
           d="m 10740.8,9807.51 c -4.7,-1.12 -12.9,-5.37 -19.1,-9.79 -6.1,-4.42 -13.6,-7.79 -17.2,-7.79 -3.7,0 -7.4,-1.7 -8.8,-4.06 -1.3,-2.22 -7.1,-2.96 -12.5,-1.65 -6.1,1.51 -10,0.69 -10,-2.05 0,-9.26 13.1,-9.43 48.3,-0.69 19.7,4.89 38.9,9.62 43,10.53 12.7,2.86 15.9,6.62 10.8,12.68 -4.7,5.63 -18.6,6.81 -34.5,2.82 v 0"
           style="fill:#313131;fill-opacity:1;fill-rule:nonzero;stroke:none"
           id="path12313" /><path
           d="m 10438.3,9782.96 c -0.6,-0.66 -5.8,-2.08 -11.1,-3.04 -5.3,-0.98 -10,-2.03 -10,-2.24 0,-0.27 -7,-1.18 -15.2,-2 -17.2,-1.78 -37,-13.3 -34.6,-20.14 1.7,-4.77 26.4,-3.9 33.4,1.13 2.3,1.6 17.6,7.45 34,12.95 31.1,10.35 38.6,17.06 17.2,15.5 -7,-0.47 -13.2,-1.47 -13.7,-2.16 v 0"
           style="fill:#313131;fill-opacity:1;fill-rule:nonzero;stroke:none"
           id="path12315" /><path
           d="m 10737.9,9765.81 c -31.5,-10.62 -43.9,-16.63 -44,-21.36 -0.2,-5.55 2.4,-6.02 17.2,-3.24 9.5,1.78 29.3,7.05 43.6,11.64 14.3,4.6 27.7,8.41 29.5,8.41 1.8,0 8.2,1.91 13.9,4.11 9.4,3.6 10,4.81 4.5,10.22 -8.2,8.23 -13.9,7.37 -64.7,-9.78 v 0"
           style="fill:#313131;fill-opacity:1;fill-rule:nonzero;stroke:none"
           id="path12317" /><path
           d="m 10805.9,9745.37 c -4.8,-4.25 -80.7,-32.05 -97.9,-35.87 -7,-1.51 -13.9,-3.59 -16,-4.81 -7.2,-4.01 11.9,-7.45 24.2,-4.32 6.8,1.77 25,6.23 41,10.08 15.9,3.91 30.5,7.97 32.7,9.23 2.5,1.35 5.8,2.61 8.2,3.12 10.7,2.29 33.1,12.3 35.7,15.93 5.9,8.27 -19.3,14.29 -27.9,6.64 v 0"
           style="fill:#313131;fill-opacity:1;fill-rule:nonzero;stroke:none"
           id="path12319" /><path
           d="m 10425,9712.32 c -4.8,-1.91 -14,-4.02 -20.5,-4.72 -6.6,-0.65 -13.7,-2.43 -16,-3.91 -2.2,-1.42 -11.5,-3.97 -20.1,-5.53 -18.4,-3.38 -31.1,-10.57 -31.1,-17.59 0,-9.48 8.2,-9.74 27.5,-0.86 10.6,4.89 21.4,8.7 23.5,8.23 2.1,-0.44 7.8,1.29 12.3,3.68 4.5,2.47 16.8,6.97 26.6,9.83 9.9,2.9 19,7.62 19.9,10.26 1.8,5.42 -9.4,5.75 -22.1,0.61 v 0"
           style="fill:#313131;fill-opacity:1;fill-rule:nonzero;stroke:none"
           id="path12321" /><path
           d="m 10827.2,9700.98 c -15.5,-8.15 -108.5,-38.03 -118.4,-38.03 -4.5,0 -7,-2.21 -5.9,-5.33 2.2,-6.23 9.6,-5.76 48.1,2.9 16.8,3.81 34.8,7.79 39.7,8.79 4.9,1 14.4,3.94 20.5,6.37 6.2,2.38 16.3,5.33 21.7,6.31 5.8,1.05 12.6,4.13 15.6,6.99 4.4,4.24 4.1,6.19 -2.1,11.65 -6.6,5.89 -8.6,5.93 -19.2,0.35 v 0"
           style="fill:#313131;fill-opacity:1;fill-rule:nonzero;stroke:none"
           id="path12323" /><path
           d="m 10415.1,9663.77 c 0,-3.81 -33.5,-13.64 -51.2,-15.03 -38.1,-2.94 -59.3,-11.08 -59.3,-22.65 0,-8.57 6.4,-14.21 9.9,-8.57 1.3,1.98 17.7,7.75 36.1,12.69 18.5,4.89 36.1,10.86 38.9,13.08 2.9,2.29 5.1,3.03 5.1,1.64 0,-1.38 5.8,0.78 13.2,4.9 13.1,7.36 19.9,17.23 11.8,17.23 -2.4,0 -4.5,-1.47 -4.5,-3.29 v 0"
           style="fill:#313131;fill-opacity:1;fill-rule:nonzero;stroke:none"
           id="path12325" /><path
           d="m 10832.9,9631.37 c -10.2,-5.67 -25.7,-12.91 -34.8,-16.32 -9,-3.39 -20.1,-7.71 -24.6,-9.58 -17.6,-7.41 -46.5,-15.25 -58.5,-15.93 -2.9,-0.17 -4.3,-2.08 -3.1,-4.21 1.2,-2.08 9.2,-3.33 17.4,-2.68 25.8,2.03 50.4,7.45 48.4,10.7 -0.9,1.56 2.4,2.51 7.3,2.12 8.6,-0.64 22.5,4.07 50.4,17.1 7.3,3.48 16.1,6.59 20.1,7.15 8.2,1.13 15.9,12.9 12.2,18.67 -3.9,6.25 -14.7,4.03 -34.8,-7.02 v 0"
           style="fill:#313131;fill-opacity:1;fill-rule:nonzero;stroke:none"
           id="path12327" /><path
           d="m 10410.2,9611.36 c -1.1,-1.16 -11.9,-3.89 -24.2,-6.15 -12.2,-2.29 -25.7,-4.72 -30.2,-5.54 -4.5,-0.78 -10.7,-1.61 -13.6,-1.82 -2.8,-0.22 -4.2,-2.3 -2.8,-4.5 1.3,-2.22 0,-3.17 -2.9,-2.04 -7.8,3.04 -49.2,-11.77 -53.9,-19.27 -2.1,-3.24 -2.6,-9.45 -1.2,-13.12 2.4,-6.19 4.5,-5.76 19.7,3.89 9.4,6.03 19,11.23 21.5,11.7 5,0.91 34.4,10.31 43.4,13.86 7.4,2.9 7.4,2.9 24.6,6.72 7.7,1.72 16.9,5.32 20,7.87 3.3,2.69 6.8,4.16 8.2,3.47 1.4,-0.66 3.2,0.82 4,3.29 1.4,4.51 -8.5,5.81 -12.6,1.64 v 0"
           style="fill:#313131;fill-opacity:1;fill-rule:nonzero;stroke:none"
           id="path12329" /><path
           d="m 10859.2,9585.64 c -6,-5.19 -45.5,-19.27 -76.7,-27.32 -15.1,-3.9 -30,-9.24 -32.7,-11.7 -2.8,-2.51 -7.2,-4.68 -10,-4.9 -2.9,-0.22 -8.9,-0.7 -13.4,-1.03 -4.5,-0.35 -8.2,-2.64 -8.2,-5.12 0,-5.14 41.8,-1.91 67.6,5.28 9,2.52 19.2,4.86 22.6,5.2 8.1,0.83 66.5,23.17 71.2,27.3 4.3,3.67 -4.5,15.89 -11.4,15.89 -2.9,0 -6.7,-1.47 -9,-3.6 v 0"
           style="fill:#313131;fill-opacity:1;fill-rule:nonzero;stroke:none"
           id="path12331" /><path
           d="m 10363.9,9529.65 c -11.2,-2.61 -35.2,-7.98 -53.2,-11.96 -32.4,-7.11 -47.1,-14.98 -47.1,-25.12 0,-9.36 7.4,-10.43 21.3,-3.08 7.4,3.9 14.9,7.54 16.6,7.97 1.8,0.53 4.3,1.16 6.1,1.64 1.9,0.53 4.4,0.65 6.4,0.44 1.8,-0.22 14.7,4.11 28.6,9.62 14,5.5 30.5,11.25 36.7,12.68 6.1,1.48 12.2,4.16 13.3,5.94 3.7,5.92 -7.8,6.62 -28.7,1.87 v 0"
           style="fill:#313131;fill-opacity:1;fill-rule:nonzero;stroke:none"
           id="path12333" /><path
           d="m 10851.4,9520.07 c -12.8,-7.5 -27.9,-12.95 -110.2,-39.93 -73.2,-23.96 -47.9,-23.7 44.6,0.52 22.6,5.85 43.7,11.34 47.1,12.21 36.9,9.14 45.8,12.56 49.3,18.97 3.1,5.8 2.3,8.23 -3.8,11.57 -10.2,5.58 -12.3,5.32 -27,-3.34 v 0"
           style="fill:#313131;fill-opacity:1;fill-rule:nonzero;stroke:none"
           id="path12335" /><path
           d="m 10359.8,9463.24 c -17.4,-6.02 -44.2,-11.25 -77.8,-15.24 -40.5,-4.85 -52.3,-12 -43.3,-26.29 3.6,-5.71 8.1,-5.93 14.6,-0.78 2.3,1.78 18.1,6.55 34.9,10.53 32.7,7.8 85.6,25.5 91.3,30.62 6.7,6.07 -3.7,6.67 -19.7,1.16 v 0"
           style="fill:#313131;fill-opacity:1;fill-rule:nonzero;stroke:none"
           id="path12337" /><path
           d="m 10345.9,9412.75 c -5.6,-2.29 -14.9,-4.72 -20.7,-5.38 -5.6,-0.69 -17,-3.19 -24.7,-5.53 -7.9,-2.35 -24.6,-6.45 -36.9,-9.06 -36.1,-7.62 -49.2,-12.6 -49.2,-18.57 0,-10.57 13.6,-13.91 30.7,-7.63 9.1,3.29 22.9,7.8 30.8,10.05 7.8,2.25 19.9,6.63 26.6,9.66 6.7,3.03 24.8,9.57 39.9,14.5 15.2,4.99 27.7,10.71 27.7,12.74 0,4.73 -11.5,4.38 -24.2,-0.78 v 0"
           style="fill:#313131;fill-opacity:1;fill-rule:nonzero;stroke:none"
           id="path12339" /><path
           d="m 10337.3,9359.87 c -3.3,-2.21 -12.1,-4.12 -19,-4.12 -7.1,0 -20.1,-3.07 -28.7,-6.75 -8.6,-3.68 -19.9,-7.24 -24.8,-7.8 -4.9,-0.55 -23.9,-6.01 -42,-12.09 -29.1,-9.73 -33,-12.2 -33,-20.87 0,-7.36 2.1,-9.82 8.3,-9.82 7.3,0 26.9,9.82 32.6,16.36 1.2,1.39 14.9,5.94 30.8,10.31 30.3,8.32 31.5,8.63 45.9,11.82 15.6,3.48 42.6,19.23 40.1,23.35 -2.8,4.5 -2.8,4.5 -10.2,-0.39 v 0"
           style="fill:#313131;fill-opacity:1;fill-rule:nonzero;stroke:none"
           id="path12341" /></g></clipPath></defs><sodipodi:namedview
     id="namedview4"
     pagecolor="#505050"
     bordercolor="#eeeeee"
     borderopacity="1"
     inkscape:pageshadow="0"
     inkscape:pageopacity="0"
     inkscape:pagecheckerboard="0"
     showgrid="false"
     fit-margin-top="0"
     fit-margin-left="0"
     fit-margin-right="0"
     fit-margin-bottom="0"
     inkscape:zoom="0.3726135"
     inkscape:cx="-752.79076"
     inkscape:cy="57.70054"
     inkscape:window-width="2560"
     inkscape:window-height="1440"
     inkscape:window-x="0"
     inkscape:window-y="0"
     inkscape:window-maximized="1"
     inkscape:current-layer="g10" /><g
     id="g8"
     inkscape:groupmode="layer"
     inkscape:label="ink_ext_XXXXXX"
     transform="matrix(1.3333333,0,0,-1.3333333,-123.78853,905.46224)"><g
       id="g10"
       transform="scale(0.1)"><g
         id="g8830"
         transform="translate(-8643.0649,-357.39934)"><path
           d="m 10090.6,6596.56 c 0,-0.86 -2.4,-2.4 -5.7,-3.69 -3.3,-1.28 -4.8,-0.67 -3.5,1.48 2.1,3.3 9.2,5.02 9.2,2.21 z m -3.7,178.63 c 0,-1.81 -2.8,-4.33 -6.1,-5.53 -5.1,-1.89 -5.4,-1.38 -1.4,3.31 5.3,6.27 7.5,6.91 7.5,2.22 z m 7.4,54.87 c 0,-2.1 -1.7,-3.69 -3.9,-3.69 -2.2,0 -2.9,1.59 -1.6,3.69 1.3,2.2 2.8,3.69 3.8,3.69 1,0 1.7,-1.49 1.7,-3.69 z m -423.59,167.87 c 34.58,-20.12 67.41,-31.82 104.25,-37.11 8.45,-1.21 21.46,-3.99 28.7,-6.12 22,-6.46 114.57,-0.94 148.8,8.88 8.1,2.33 16.01,3.9 17.53,3.49 1.63,-0.44 2.72,0.59 2.72,2.58 0,1.77 3.9,4.26 8.3,5.35 4.43,1.07 11.71,5.03 15.65,8.47 9.94,8.71 30.74,19.69 37.24,19.69 2.9,0 6.5,2.59 7.6,5.53 3.6,9.61 8.7,6.26 16.1,-10.69 11.6,-26.3 14.8,-51.93 14.5,-114.54 -0.2,-32.43 -0.6,-107.36 -1,-166.66 -0.4,-59.28 -1.8,-107.72 -3,-107.72 -1.2,0 -2.3,-16.04 -2.5,-35.92 -0.3,-23.94 0.7,-33.46 2.9,-28.53 3,6.62 3.3,6.69 3.5,0.73 0.1,-3.68 -2.4,-7.62 -5.6,-8.84 -4.7,-1.84 -5.5,-8.85 -4.9,-41.25 0.7,-35.72 -2.7,-94.58 -6.5,-112.7 -0.9,-4.06 -2.5,-20.62 -3.5,-36.83 -2,-30.58 -15.7,-76.82 -26.8,-89.87 -3.3,-3.96 -8.4,-10.69 -11.5,-15.46 -9.5,-14.38 -30.48,-36.72 -32.47,-34.63 -0.97,1.03 -4.31,-0.33 -7.63,-3.13 -3.23,-2.73 -18.42,-8.88 -33.53,-13.61 -46.1,-14.41 -118.97,-11.99 -176.76,5.86 -1.01,0.3 -6.66,2.53 -12.16,4.8 -5.52,2.27 -13.58,4.23 -17.32,4.23 -3.7,0 -8.07,1.75 -9.19,3.68 -1.24,2.04 -9.23,5.43 -17.68,7.56 -8.49,2.12 -22.15,8.7 -30.22,14.54 -8.11,5.88 -20.96,14.51 -28.54,19.16 -7.75,4.74 -14.68,11.3 -15.85,14.92 -1.14,3.68 -4.36,6.44 -7.52,6.44 -2.95,0 -5.06,2.23 -4.48,4.8 1.41,6.26 -8.34,28.35 -12.5,28.35 -1.79,0 -3.31,11.97 -3.31,26.69 0,14.68 -0.78,102.21 -1.71,194.3 -2.57,251.92 -1.99,302.37 3.66,320.06 2.03,6.25 1.68,8.08 -1.21,6.25 -2.18,-1.41 -4.05,-0.81 -4.05,1.29 0,2.21 1.45,3.87 3.31,3.87 2.73,0 4.37,14 9.08,78.08 0.7,9.2 2.17,18.38 3.27,20.07 1.08,1.69 3.23,10.32 4.6,18.79 1.39,8.47 4.12,16.58 5.91,17.69 1.99,1.2 2.49,3.41 1.28,5.51 -1.16,2 -0.39,3.5 1.83,3.5 2.19,0 5.73,4.05 8.11,9.21 3.74,8.1 4.94,8.58 10.12,4.04 3.27,-2.85 13.27,-9.43 22.47,-14.8 z m -34.24,62.69 c 0,-2.95 -1.47,-4.67 -3.14,-3.69 -1.87,1.11 -2.3,3.16 -1.09,5.17 3.11,5.16 4.23,4.77 4.23,-1.48 z m 251.55,56.25 c 13.27,-2.19 27.63,-4.36 32.23,-4.86 4.41,-0.51 9.39,-2.05 10.68,-3.32 1.29,-1.29 7.17,-2.4 12.69,-2.4 5.73,0 16.2,-3.28 23.6,-7.37 7.36,-4.1 15.86,-7.36 19.12,-7.36 7.75,0 40.56,-21 44.96,-28.73 2,-3.54 1.9,-9.57 -0.2,-15.1 -3.8,-9.94 -20.7,-25.78 -27.8,-26.01 -2.2,-0.07 -6.13,-2.72 -8.47,-5.67 -2.38,-2.95 -5.8,-4.66 -7.36,-3.69 -1.68,1.05 -7.75,-0.54 -14.02,-3.67 -16.31,-8.17 -58.18,-13.32 -120.41,-14.83 -62.62,-1.5 -103.78,5.53 -142.53,24.35 -12.15,5.9 -23.99,9.41 -27.45,8.15 -4.06,-1.46 -5.22,-0.8 -3.51,2.04 1.36,2.2 0.89,4.23 -0.9,4.23 -1.98,0 -6.31,4.23 -9.97,9.76 -5.1,7.73 -5.56,11.14 -2.22,16.39 2.61,4.05 2.81,7.51 0.59,8.89 -5.92,3.63 -4.05,9.99 2.18,7.59 3.39,-1.3 9.97,2.16 16.94,8.94 6.27,6.05 13.59,11.03 16.24,11.03 3,0 4.01,2.4 2.73,6.45 -1.6,5.16 -1.28,5.42 1.67,1.3 3.04,-4.27 6.62,-3.73 20.64,3.06 27.49,13.34 111.22,18.99 160.57,10.83 z m -114.18,29.1 c -37.94,-4.97 -104.92,-30.23 -122.64,-46.25 -3.9,-3.51 -12.58,-18.1 -19.51,-32.85 -6.97,-14.72 -14.57,-28.63 -17.13,-31.29 -2.54,-2.61 -11.57,-14.92 -19.9,-27.08 -11.11,-16.2 -15.08,-25.5 -14.53,-34.07 0.39,-6.62 -0.39,-12.19 -1.87,-12.71 -2.53,-0.91 -7.63,-285.24 -6.66,-372.9 0.55,-51.75 0.55,-95.02 -0.04,-152.85 -0.51,-53.4 2.77,-147.16 5.31,-151.37 1,-1.65 2.67,-11.97 3.8,-23.39 1.96,-19.59 3.12,-21.55 28.78,-47.33 31.55,-31.68 64.07,-55.23 73.06,-52.9 3.66,0.95 5.8,0.4 4.78,-1.25 -3.18,-5.13 42.34,-16.98 77.35,-20.1 12.15,-1.1 26.25,-2.68 31.31,-3.54 49.61,-8.39 102.03,-3.42 160.56,15.25 24.34,7.74 33.53,12.95 49.69,28.18 25.1,23.52 42.6,45.93 45.8,58.66 1.4,5.53 5.2,11.99 8.6,14.56 3.4,2.58 6.3,8.65 6.6,13.8 0.6,11.05 2.4,19.04 5.3,23.95 9,15.18 22.4,79.18 27.2,130.38 1.1,11 3,29.1 4.3,40.51 1.4,11.37 2.6,39.23 2.8,62.05 0.2,22.86 1.2,41.45 2.2,41.45 4.5,0 0.8,48.89 -4,52.29 -4.2,2.95 -4.1,3.35 0.3,2.03 4.8,-1.45 5.5,12.34 5.3,111.05 0,61.88 -0.6,114.36 -1.2,116.39 -0.6,1.93 -0.8,6.99 -0.4,10.68 0.4,3.67 -1.6,8.65 -4.2,10.49 -4,2.75 -3.7,3.07 1.1,1.47 5.2,-1.74 5.8,0.93 4.6,18.98 -0.8,11.57 -3.2,32.95 -5.3,47.69 -2.2,14.73 -4.4,30.5 -5.1,35.18 -1.7,12.52 -6.2,20.99 -11,20.99 -2.2,0 -7.4,7.18 -11.2,15.65 -3.9,8.48 -9.7,17.75 -12.5,20.25 -3.4,2.94 -5.7,12.16 -6.1,25.42 -0.7,19.9 -1.5,21.57 -18.8,37.94 -25.7,24.4 -57.81,35.61 -148.79,51.96 -30.18,5.43 -86.92,6.7 -117.87,2.63 v 0"
           style="fill:#313131;fill-opacity:1;fill-rule:nonzero;stroke:none"
           id="path2898" /><path
           d="m 9902.76,7040 c 0,-1.98 -2.59,-3.68 -5.52,-3.68 -2.95,0 -5.53,1.7 -5.53,3.68 0,1.97 2.58,3.68 5.53,3.68 2.93,0 5.52,-1.71 5.52,-3.68 z m -77.8,2.94 c 0.63,-1.58 6.9,-2.94 13.52,-2.94 6.62,0 13.4,-1.7 14.64,-3.68 3.77,-6.17 -32.52,-4.35 -41.7,2.08 -4.41,3.08 -8.11,7.32 -8.11,9.33 0,4.02 19.9,-0.37 21.65,-4.79 z m 28.08,19.16 c 1.21,-2.03 -2.02,-3.69 -7.21,-3.69 -5.14,0 -9.37,1.66 -9.37,3.69 0,2.08 3.14,3.68 7.2,3.68 4.05,0 8.14,-1.6 9.38,-3.68 z m -41.27,23.35 c -17.65,-8.66 -37.93,-29.78 -37.93,-39.56 0,-5.57 4.78,-11.77 14.01,-18.11 21.26,-14.64 31.66,-17.26 68.85,-17.26 55.61,0 101.3,20.1 101.3,44.57 0,5.53 -3.44,13.5 -7.37,17.18 -15.7,14.61 -116.4,24.16 -138.86,13.18 v 0"
           style="fill:#313131;fill-opacity:1;fill-rule:nonzero;stroke:none"
           id="path2900" /><path
           d="m 10018.4,6911.09 c -3.7,-3.74 -28.36,-8.98 -61.14,-13.03 -9.59,-1.17 -20.69,-5.35 -25.59,-9.63 -7.75,-6.74 -7.87,-7.35 -1.29,-5.7 4.12,1.03 15.46,3.05 25.78,4.6 10.31,1.55 20.84,3.25 23.95,3.87 3.04,0.61 15.08,2.25 26.89,3.68 23.5,2.83 26.5,4.88 20,13.99 -3.2,4.43 -5.7,5.07 -8.6,2.22 v 0"
           style="fill:#313131;fill-opacity:1;fill-rule:nonzero;stroke:none"
           id="path2902" /><path
           d="m 10005,6838.9 c -4.8,-4.83 -31.9,-8.94 -59.89,-9.08 -23.23,-0.11 -27.97,-0.98 -22.48,-4.1 19.9,-11.26 92.47,-4.68 92.47,8.39 0,5.15 -6.7,8.31 -10.1,4.79 v 0"
           style="fill:#313131;fill-opacity:1;fill-rule:nonzero;stroke:none"
           id="path2904" /><path
           d="m 10002.6,6776.46 c -11.94,-3.19 -32.26,-4.96 -50.69,-4.41 -21.33,0.64 -30.76,-0.31 -30.76,-3.13 0,-10.56 36.85,-14.73 76.98,-8.71 31.37,4.69 40.87,8.56 40.87,16.45 0,6.86 -10.3,6.81 -36.4,-0.2 v 0"
           style="fill:#313131;fill-opacity:1;fill-rule:nonzero;stroke:none"
           id="path2906" /><path
           d="m 10012.1,6721.03 c -5,-5.02 -50.41,-11.34 -79.15,-11.01 -25.77,0.3 -29.13,-0.36 -24.69,-4.81 7.75,-7.74 102.44,-6.62 114.54,1.36 11.4,7.49 11.4,16.69 0,16.69 -4.8,0 -9.4,-0.97 -10.7,-2.23 v 0"
           style="fill:#313131;fill-opacity:1;fill-rule:nonzero;stroke:none"
           id="path2908" /><path
           d="m 9999.23,6669.68 c -8.68,-2.75 -33.88,-5.52 -55.96,-6.17 -37.93,-1.1 -45.72,-2.95 -36.44,-8.69 5.88,-3.63 88.71,-5.48 86.48,-1.91 -1.02,1.64 2.27,2.16 7.39,1.19 10,-1.91 23.6,7.63 23.6,16.48 0,5.86 -4,5.73 -25.07,-0.9 v 0"
           style="fill:#313131;fill-opacity:1;fill-rule:nonzero;stroke:none"
           id="path2910" /><path
           d="m 9641.62,6666.89 c -5.15,-5.15 -5.58,-16.15 -0.74,-19.08 7.01,-4.26 43.9,-6.07 46.22,-2.28 3.67,5.89 -40.29,26.55 -45.48,21.36 v 0"
           style="fill:#313131;fill-opacity:1;fill-rule:nonzero;stroke:none"
           id="path2912" /><path
           d="m 9637.88,6611.66 c 1.91,-6.63 3.39,-12.11 3.39,-12.53 0,-2.04 27.22,-8.18 45.29,-10.19 17.3,-1.93 20.99,-1.4 20.99,3.01 0,3.4 -9.03,8.22 -24.84,13.26 -13.64,4.34 -28.55,10.28 -32.99,13.17 -12.7,8.21 -15.65,6.54 -11.84,-6.72 v 0"
           style="fill:#313131;fill-opacity:1;fill-rule:nonzero;stroke:none"
           id="path2914" /><path
           d="m 9993,6601.89 c -14.6,-3.64 -37.38,-6.2 -52.49,-5.89 -22.47,0.46 -25.9,-0.26 -21.61,-4.61 8.52,-8.64 71.49,-10.22 96.9,-2.43 25.5,7.79 23.8,6.68 21,14.22 -2.7,7.31 -10.3,7.09 -43.8,-1.29 v 0"
           style="fill:#313131;fill-opacity:1;fill-rule:nonzero;stroke:none"
           id="path2916" /><path
           d="m 9634.61,6554.57 c -5.88,-1.98 -5.88,-18.91 0,-20.47 2.65,-0.7 18.81,-5.96 36.1,-11.76 17.33,-5.8 36.1,-10.09 41.98,-9.58 5.91,0.51 11.92,-1.06 13.43,-3.5 2.89,-4.71 10.91,-1.47 10.91,4.43 0,4.14 -34.27,20.75 -46.81,22.67 -4.4,0.69 -9.27,2.44 -10.67,3.85 -1.47,1.47 -4.79,2.56 -7.7,2.56 -2.93,0 -11.26,2.93 -18.97,6.64 -7.75,3.71 -15.78,5.98 -18.27,5.16 v 0"
           style="fill:#313131;fill-opacity:1;fill-rule:nonzero;stroke:none"
           id="path2918" /><path
           d="m 10007.7,6551.29 c -8.12,-2.87 -32.03,-6.04 -53.37,-7.08 -43.46,-2.12 -50.94,-3.56 -45.68,-8.79 4.84,-4.84 67.41,-7.03 89.14,-3.14 30.91,5.55 33.91,6.74 33.91,13.81 0,9.65 -7,11.16 -24,5.2 v 0"
           style="fill:#313131;fill-opacity:1;fill-rule:nonzero;stroke:none"
           id="path2920" /><path
           d="m 9632.78,6499.82 c -7.63,-7.48 -1.48,-16.85 16.59,-25.17 10.67,-4.95 20.44,-8.03 22.09,-7.01 1.78,1.11 2.94,0.52 2.94,-1.47 0,-5.76 42.73,-19.41 66.29,-21.17 18.07,-1.36 22.12,-0.65 22.12,3.86 0,2.94 -1.98,5.53 -4.25,5.53 -2.33,0 -26.71,8.5 -54.32,18.97 -27.61,10.46 -52.06,18.96 -54.52,18.96 -2.38,0 -5.26,2.22 -6.27,4.79 -1.99,5.15 -6.9,6.41 -10.67,2.71 v 0"
           style="fill:#313131;fill-opacity:1;fill-rule:nonzero;stroke:none"
           id="path2922" /><path
           d="m 10009.6,6496.09 c -28.56,-7.89 -68.16,-13.44 -96.89,-13.55 -11.07,-0.04 -14.3,-9.73 -3.33,-9.97 3.36,-0.07 12.9,-1.1 20.61,-2.22 19.16,-2.77 56.58,2.13 49.73,6.52 -2.91,1.88 -3.5,3.29 -1.28,3.29 2.21,0 5.45,-1.57 7.55,-3.68 2.38,-2.37 7.55,-2.44 14.61,-0.17 5.8,1.89 16.7,4.92 23.7,6.62 9.2,2.22 12.9,5.13 12.9,10.12 0,9.11 -4,9.56 -27.6,3.04 v 0"
           style="fill:#313131;fill-opacity:1;fill-rule:nonzero;stroke:none"
           id="path2924" /><path
           d="m 10016.9,6441.68 c -18.37,-9.19 -30.56,-11.52 -79.16,-15.07 -18.41,-1.34 -34.62,-3.8 -36.45,-5.52 -4.76,-4.42 6.62,-8.53 17.68,-6.42 5.14,0.99 8.3,0.33 7.13,-1.53 -2.5,-4.06 51.05,0.96 56.59,5.29 2.21,1.73 5.56,2.82 7.35,2.38 6.39,-1.54 32.36,5.18 42.36,10.94 11.4,6.63 12.3,8.99 5.5,14.57 -3.1,2.59 -9.2,1.25 -21,-4.64 v 0"
           style="fill:#313131;fill-opacity:1;fill-rule:nonzero;stroke:none"
           id="path2926" /><path
           d="m 9636.16,6430.07 c -4.2,-11.05 -2.28,-15.51 7.68,-17.89 5.41,-1.28 24.29,-9.16 41.63,-17.36 30.93,-14.64 48.84,-18.46 58.52,-12.48 3.72,2.27 4.38,1.86 2.43,-1.43 -1.88,-3.08 -0.55,-4.17 3.84,-3.3 11.38,2.26 9.59,9.42 -2.95,11.87 -6.42,1.26 -25.58,8.99 -42.17,17.02 -16.56,8.04 -32.29,14.74 -34.62,14.74 -2.35,0 -8.26,3.18 -13.44,7.23 -11.41,8.97 -17.91,9.48 -20.92,1.6 v 0"
           style="fill:#313131;fill-opacity:1;fill-rule:nonzero;stroke:none"
           id="path2928" /><path
           d="m 10024.3,6394.18 c 0,-3.32 -3.7,-4.44 -11,-3.32 -7.4,1.1 -11.1,0.11 -11.1,-2.95 0,-2.58 -0.9,-3.71 -2,-2.58 -1.17,1.13 -7.59,0.53 -14.6,-1.39 -19.62,-5.34 -41.98,-8.15 -67.02,-8.46 -12.89,-0.16 -23.21,-1.6 -23.21,-3.23 0,-3.56 20.28,-7.98 35.01,-7.62 6.04,0.13 19.9,0.5 30.57,0.82 10.67,0.29 18.77,1.79 17.88,3.3 -0.94,1.5 6.42,2.93 16,3.14 20.97,0.42 39.27,7.27 44.37,16.56 5.2,9.65 4.6,10.69 -5.7,10.69 -5.1,0 -9.2,-2.19 -9.2,-4.96 v 0"
           style="fill:#313131;fill-opacity:1;fill-rule:nonzero;stroke:none"
           id="path2930" /><path
           d="m 9638.74,6366.36 c -2.3,-3.69 -2.81,-8.76 -1.17,-11.42 6.35,-10.3 102.22,-40.2 111.22,-34.67 7.4,4.54 1.86,11.15 -12.5,14.93 -22.86,6.01 -77.57,27.94 -83.25,33.37 -6.58,6.31 -9.24,5.9 -14.3,-2.21 v 0"
           style="fill:#313131;fill-opacity:1;fill-rule:nonzero;stroke:none"
           id="path2932" /><path
           d="m 10018.4,6344.35 c -7.8,-6.78 -112.71,-29.92 -135.53,-29.92 -18.23,0 -5.18,-8.08 14.37,-8.9 16.94,-0.69 74.5,6.5 85.45,10.7 3.26,1.25 11.75,3.18 19.11,4.33 15.5,2.44 33.5,11.04 33.5,15.96 0,5.17 -13,11.19 -16.9,7.83 v 0"
           style="fill:#313131;fill-opacity:1;fill-rule:nonzero;stroke:none"
           id="path2934" /><path
           d="m 9641.97,6321.05 c -2.57,-2.57 -4.4,-6.25 -4.4,-8.84 0,-5.51 17.71,-17.19 22.08,-14.54 1.9,1.15 4.6,-0.18 6.31,-3.14 4.48,-7.73 48.83,-29.1 48.91,-23.57 0.04,3.56 0.86,3.51 3.2,-0.18 1.71,-2.78 8.64,-5.21 15.61,-5.52 7.01,-0.31 14.73,-2.67 17.52,-5.34 3.9,-3.76 6.08,-3.86 10.13,-0.47 6.42,5.39 3.31,10.78 -6.27,10.78 -6.27,0 -68.38,28.07 -73.37,33.15 -2.53,2.57 -32.72,22.1 -34.19,22.1 -0.62,0 -2.92,-1.85 -5.53,-4.43 v 0"
           style="fill:#313131;fill-opacity:1;fill-rule:nonzero;stroke:none"
           id="path2936" /><path
           d="m 10005.9,6289.39 c 0,-4.32 -53.44,-21.86 -75.52,-24.8 -10.32,-1.39 -24.26,-3.91 -31.7,-5.77 -7.32,-1.85 -20.06,-3.57 -28.5,-3.87 -12.19,-0.44 -14.49,-1.54 -11.34,-5.34 4.99,-6.02 81.12,-4.3 97.32,2.19 6.27,2.51 13.44,4.95 16.55,5.62 13.28,2.83 47.89,17.43 47.89,20.17 0,1.66 1,5.53 2.2,8.84 1.7,4.54 0,5.91 -7.3,5.91 -5.2,0 -9.6,-1.37 -9.6,-2.95 v 0"
           style="fill:#313131;fill-opacity:1;fill-rule:nonzero;stroke:none"
           id="path2938" /></g></g></g></svg>
