<svg id="Layer_1" data-name="Layer 1" xmlns="http://www.w3.org/2000/svg" xmlns:xlink="http://www.w3.org/1999/xlink" viewBox="0 0 386.11 291.07" width="406" height="306" class="illustration styles_illustrationTablet__1DWOa"><defs><linearGradient id="linear-gradient" x1="-753.17" y1="219.02" x2="-748.67" y2="43.33" gradientTransform="translate(-539.87 352) rotate(180)" gradientUnits="userSpaceOnUse"><stop offset="0.01"></stop><stop offset="0.08" stop-opacity="0.69"></stop><stop offset="0.21" stop-opacity="0.32"></stop><stop offset="1" stop-opacity="0"></stop></linearGradient><linearGradient id="linear-gradient-2" x1="-2230.97" y1="660.6" x2="-2077.99" y2="653.83" gradientTransform="translate(2325.72 -429.35)" xlink:href="#linear-gradient"></linearGradient><linearGradient id="linear-gradient-3" x1="-803.65" y1="96.38" x2="-770.81" y2="87.93" xlink:href="#linear-gradient"></linearGradient><linearGradient id="linear-gradient-4" x1="-819.35" y1="89.02" x2="-786.5" y2="80.58" xlink:href="#linear-gradient"></linearGradient><linearGradient id="linear-gradient-5" x1="-840.21" y1="171.54" x2="-817.75" y2="171.54" xlink:href="#linear-gradient"></linearGradient><linearGradient id="linear-gradient-6" x1="-832.92" y1="188.06" x2="-854.89" y2="130.99" xlink:href="#linear-gradient"></linearGradient><linearGradient id="linear-gradient-7" x1="-757.4" y1="183.33" x2="-752.33" y2="132.93" gradientTransform="translate(-548.73 315.46) rotate(180)" xlink:href="#linear-gradient"></linearGradient><linearGradient id="linear-gradient-8" x1="-728.92" y1="165.27" x2="-700.39" y2="173.53" gradientTransform="translate(-548.72 315.46) rotate(180)" xlink:href="#linear-gradient"></linearGradient></defs><title>8</title><path d="M10.27,227.29c1.93,8.41,5.84,16.43,12,22.47,4.82,4.76,7,7.11,10.14,13.22a109.12,109.12,0,0,0,10.37,16.25c15.34,19.9,37.28,33.61,61.08,41.1,28.33,8.9,59,9.15,88.08,3.38,15.21-3,30.25-7.64,45.75-8,11.75-.3,23.39,1.84,35,3.38,39.41,5.26,110.58,8.35,119.71-42.55,2.3-12.78-.15-25-3.59-37.31a44,44,0,0,0-7.1-14.22c-2.39-3.41-5-6.74-7.59-10.92-6-6-5.36-22.92-4.15-30.77,1.59-10.34,9.24-19.32,14.65-28.06,4-6.51,8.14-13.2,9.66-20.71,2.08-10.31-.93-20.9-3.92-31-3.25-11-6.78-22.38-14.71-30.61-6-6.22-14-10.06-21.8-13.76-21.16-10-43.25-20.38-66.92-22.29s-42.84,4-62.53,17.11c-14.22,9.41-28.08,20.12-44.48,24.75-12,3.39-24.69,3.29-37.1,4.62A163.46,163.46,0,0,0,37,139.21a97.48,97.48,0,0,0-11.72,16.57A122.14,122.14,0,0,0,17.92,173c-5.09,14.11-9.64,28.8-9,43.79A56.32,56.32,0,0,0,10.27,227.29Z" transform="translate(-8.86 -36.54)" fill="#68e1fd" opacity="0.18" style="isolation: isolate; --darkreader-inline-fill: #63e0fd;" data-darkreader-inline-fill=""></path><path d="M174,204.1a17.92,17.92,0,0,0-1.82-.88,6,6,0,0,0-2.38-.08l-9.59,1a3,3,0,0,0-1.63.5c-.64.52-.73,1.43-1,2.22-1.18,3.58-5.77,4.33-9.24,5.8a3.62,3.62,0,0,0-1.57,1.07c-.85,1.15-.23,2.84.75,3.88,2.23,2.36,5.75,2.82,9,3.06q7,.51,14,.47c3.59,0,9,.74,12.35-.81,6-2.82,2.77-9.16-1.65-11.13C183.82,204.76,176,204.94,174,204.1Z" transform="translate(-8.86 -36.54)" fill="#4c506d" style="--darkreader-inline-fill: #aea79c;" data-darkreader-inline-fill=""></path><path d="M330.23,256.89l-4.62,5.44,26,7.84a3.65,3.65,0,0,1,2.28,1.4c1,1.76-1.31,3.5-3.19,4.17-31.81,11.39-66.77,1.53-100.54.72-18.8-.46-37.53,2-56.29,3.37-9.2.7-18.46,1.16-27.64.16a203.52,203.52,0,0,1-20.63-3.85c-21.23-4.57-42.79-8-64.5-8.42-4.1-.08-8.27-.08-12.16-1.37a5.42,5.42,0,0,1-2.71-1.65c-1.27-1.65-.56-4.21,1-5.6s3.69-1.9,5.73-2.32c52.36-10.65,106.23,9.48,159.58,6.41,15.09-.87,30.76-.16,45.69-2.68,8-1.36,15.9-3.53,24-4.43C305.75,255.69,329.22,258.07,330.23,256.89Z" transform="translate(-8.86 -36.54)" fill="url(#linear-gradient)"></path><path d="M235.86,122.67a16.34,16.34,0,0,1,3.58,2.22,5.56,5.56,0,0,1,4.27-1.85c1.59.15,3.09,1.64,2.81,3.21-.1.6-.43,1.13-.51,1.73-.18,1.37.94,2.51,1.94,3.45a21.8,21.8,0,0,1,4.14,4.89,8.82,8.82,0,0,1,1.16,6.18,5.45,5.45,0,0,0-.31,2.71c.3,1,1.36,1.59,2,2.44,1.07,1.41.86,3.4.41,5.11s-1.11,3.47-.76,5.2c.23,1.18.9,2.24,1.07,3.42.29,2.17-1.51,3.32-1.95,5.18-.57,2.35-1.14,4.5-2.89,6.3a4.87,4.87,0,0,1-2.11,1.37,6.71,6.71,0,0,1-3.15-.16,30.82,30.82,0,0,1-6.9-2.07,10.39,10.39,0,0,1-5.13-4.87,15.69,15.69,0,0,1-1-3.92l-1.75-11a38.69,38.69,0,0,1-.67-6.62c.07-4.67,1.83-9.38.74-13.93-.55-2.23-2.36-6.56-.36-8.44a4.86,4.86,0,0,1,4.67-.81Z" transform="translate(-8.86 -36.54)" fill="#2f3554" style="--darkreader-inline-fill: #acbbd1;" data-darkreader-inline-fill=""></path><rect x="91.54" y="182.65" width="228.87" height="5.81" fill="#68e1fd" style="--darkreader-inline-fill: #63e0fd;" data-darkreader-inline-fill=""></rect><path d="M184.78,145.35c-1.87-.5-3.8-.41-5.74-.95a7.72,7.72,0,0,1-3.91-2.57,4.83,4.83,0,0,1-.76-4.49,1.25,1.25,0,0,1,.63-.76,1.47,1.47,0,0,1,.88,0,30.81,30.81,0,0,1,3.65,1.13,3.93,3.93,0,0,0,1.31.32,1.15,1.15,0,0,0,1.07-.68,1.53,1.53,0,0,1,.17-.55.63.63,0,0,1,.87-.06,2,2,0,0,1,.52.83,7.68,7.68,0,0,0,3.11,4.22,12.53,12.53,0,0,0,5.46,1.87c1.41.12,2.84,0,4.24.24a8.62,8.62,0,0,1,4.44,2.2,1.36,1.36,0,0,1,.44.62,1.39,1.39,0,0,1-.08.78c-.41,1.43-1,3-2.28,3.71a4.21,4.21,0,0,1-3.28.23,11.52,11.52,0,0,1-3-1.59,41.55,41.55,0,0,0-6.57-4.07A8.2,8.2,0,0,0,184.78,145.35Z" transform="translate(-8.86 -36.54)" fill="#fdb9a9" style="--darkreader-inline-fill: #fca591;" data-darkreader-inline-fill=""></path><path d="M213.44,243.06c-5.16-1.16-4.15,6.14-5.5,8.85a14.8,14.8,0,0,1-3.18,3.65,6.62,6.62,0,0,0-2.32,4.15,1.59,1.59,0,0,0,.18.88,1.67,1.67,0,0,0,1,.61,11.83,11.83,0,0,0,8.81-.87,6.88,6.88,0,0,0,3-2.8,9.57,9.57,0,0,0,.78-4.16C216.38,250.33,217.73,244,213.44,243.06Z" transform="translate(-8.86 -36.54)" fill="#fdb9a9" style="--darkreader-inline-fill: #fca591;" data-darkreader-inline-fill=""></path><path d="M208.88,258.1s-14.65.62-8.45,5.22,15.47-1.12,16.38-2.17.17-2.85.17-2.85Z" transform="translate(-8.86 -36.54)" fill="#68e1fd" style="--darkreader-inline-fill: #63e0fd;" data-darkreader-inline-fill=""></path><path d="M216.17,260.12c-1.31,1.59-8.19,3.73-11.24,3.51s-5.78-1.64-5.48-3.61,5.68-6.55,6.69-6.54,1.82,2.35,3.85,2.84a5.43,5.43,0,0,0,5-1.78,1.37,1.37,0,0,1,1.67-.43A6.5,6.5,0,0,1,216.17,260.12Z" transform="translate(-8.86 -36.54)" fill="#fff" style="--darkreader-inline-fill: #e8e6e3;" data-darkreader-inline-fill=""></path><path d="M231.1,246c-5.15-1.2-4.14,6.1-5.5,8.81a14.27,14.27,0,0,1-3.18,3.66,6.47,6.47,0,0,0-2.31,4.15,1.46,1.46,0,0,0,.18.87,1.68,1.68,0,0,0,1,.62,11.93,11.93,0,0,0,8.81-.87,7,7,0,0,0,3-2.81,9.71,9.71,0,0,0,.78-4.15C234,253.15,235.39,246.86,231.1,246Z" transform="translate(-8.86 -36.54)" fill="#fdb9a9" style="--darkreader-inline-fill: #fca591;" data-darkreader-inline-fill=""></path><path d="M226.54,260.91s-14.65.62-8.44,5.23S233.57,265,234.47,264s.17-2.86.17-2.86Z" transform="translate(-8.86 -36.54)" fill="#68e1fd" style="--darkreader-inline-fill: #63e0fd;" data-darkreader-inline-fill=""></path><path d="M233.83,262.9c-1.31,1.6-8.19,3.74-11.23,3.52s-5.79-1.63-5.49-3.6,5.68-6.56,6.69-6.55,1.82,2.36,3.86,2.84a5.43,5.43,0,0,0,5-1.78,1.37,1.37,0,0,1,1.67-.43A6.48,6.48,0,0,1,233.83,262.9Z" transform="translate(-8.86 -36.54)" fill="#fff" style="--darkreader-inline-fill: #e8e6e3;" data-darkreader-inline-fill=""></path><path d="M217.82,179.48l6.89,72.45,9.92-1.22c3.92-17.68,3-70.57,3-70.57Z" transform="translate(-8.86 -36.54)" fill="#473f47" style="--darkreader-inline-fill: #beb8b0;" data-darkreader-inline-fill=""></path><path d="M224.71,177.52,217.82,250l-9.94-1.22c-5.68-45.85-1-74.39-1-74.39Z" transform="translate(-8.86 -36.54)" fill="#473f47" style="--darkreader-inline-fill: #beb8b0;" data-darkreader-inline-fill=""></path><path d="M196.65,144.16c0-.35.26-.53.57-.85l2.27-2.32,6.43-6.59,5.32-5.45v16.56c0,1.35.26,2.54-1.2,3.22a8.54,8.54,0,0,1-1.85.48,47.48,47.48,0,0,0-7.94,2.13,3.56,3.56,0,0,1-1.2.28,1.12,1.12,0,0,1-1-.58c-.3-.66.34-1.35.47-2a3,3,0,0,0-.21-1.45,14.11,14.11,0,0,0-.55-1.54c-.25-.54-.84-1.05-1-1.57A.76.76,0,0,1,196.65,144.16Z" transform="translate(-8.86 -36.54)" fill="#fff" style="--darkreader-inline-fill: #e8e6e3;" data-darkreader-inline-fill=""></path><path d="M207.75,151.32c-.12-1.33-.47-2.64-.61-4a30.11,30.11,0,0,1,.15-8.21,31.51,31.51,0,0,1,2.59-8.37c1.15-2.3,3.22-3.28,5.54-4.42a19.53,19.53,0,0,1,6.25-2.13,15.93,15.93,0,0,1,4.62.26c4.67.89,10.84,3.3,14,7,2.4,2.78,2.69,6.74,2.76,10.41q.15,7.59-.31,15.18-.06,1.1-.15,2.19c-.43,5.55-.88,11.31-2.46,16.66-.5,1.68-1,3.37-2.58,4.27-3.65,2.13-9.25,1-13.21.41-5.24-.74-10.63-1.52-15.28-4.07a4.33,4.33,0,0,1-2.21-2.13c-.41-1.13.09-2.37.44-3.53,1.57-5.17.35-10.62.35-15.9,0-1,.13-1.93.13-2.89C207.79,151.81,207.75,151.56,207.75,151.32Z" transform="translate(-8.86 -36.54)" fill="#fff" style="--darkreader-inline-fill: #e8e6e3;" data-darkreader-inline-fill=""></path><path d="M228.73,181.49c-.52-1,.57-3.69.16-5.08-.72-2.53-1.61-4.48-1.49-7.28a36.84,36.84,0,0,1,.91-6l3.36-16c.61-2.93,1.94-17,6.41-15.44a9.3,9.3,0,0,1,5.24,5.83,24,24,0,0,1,.93,8c-.08,7-1.48,14.24-2.38,21.23-.35,2.65-.76,12.47-4.26,13.34-.68.18-1.36.52-2,.65-1.18.21-4.71,1.61-6.24,1.15A.94.94,0,0,1,228.73,181.49Z" transform="translate(-8.86 -36.54)" fill="#020202" opacity="0.1" style="isolation: isolate; --darkreader-inline-fill: #e7e5e1;" data-darkreader-inline-fill=""></path><path d="M223.44,181.73a11.06,11.06,0,0,0-1.14,6.87.62.62,0,0,0,.37.59.53.53,0,0,0,.44-.08c.9-.55.79-2.32,1.84-2.38a1.76,1.76,0,0,1,.64.15,14.21,14.21,0,0,0,2.83,1,3.86,3.86,0,0,0,2.87-.49,4.56,4.56,0,0,0,1.56-3.47,15,15,0,0,1,.48-4.12,21.91,21.91,0,0,0,1-3.82c.49-2.86.81-5.82,2.13-8.45,1-2,2.51-3.64,3.55-5.59,1.14-2.14,2.12-6.7-1.14-7.32a11.1,11.1,0,0,0-3.15-.14,2.63,2.63,0,0,0-1.13.32,2.9,2.9,0,0,0-1,1.68,114.6,114.6,0,0,0-4.73,17.34C228.24,177.3,225,178.56,223.44,181.73Z" transform="translate(-8.86 -36.54)" fill="#fdb9a9" style="--darkreader-inline-fill: #fca591;" data-darkreader-inline-fill=""></path><path d="M217.84,116.92a38.23,38.23,0,0,1,.26-4.16c.13-1.2.32-2.42.56-3.61a2.41,2.41,0,0,1,.92-1.83,11.55,11.55,0,0,1,6.19-1.7,5,5,0,0,1,5.7,4.18,4.74,4.74,0,0,1,.06.75c.33,3-.46,6.07-.9,9.1a38.24,38.24,0,0,0-.38,7.09,8.28,8.28,0,0,1-3.82,1.35,6,6,0,0,1-1.88-.31,1.38,1.38,0,0,1-.84-.55,1.52,1.52,0,0,1-.07-.79,6.34,6.34,0,0,0,.07-.75h0a23,23,0,0,0-.08-4.15.43.43,0,0,0-.12-.31.48.48,0,0,0-.29,0h-.39a10.23,10.23,0,0,1-2.07,0,3.39,3.39,0,0,1-2.16-1.07A4.53,4.53,0,0,1,217.84,116.92Z" transform="translate(-8.86 -36.54)" fill="#fdb9a9" style="--darkreader-inline-fill: #fca591;" data-darkreader-inline-fill=""></path><path d="M220.11,108.51a2.31,2.31,0,0,1-3.22.54l-.09-.07a.63.63,0,0,1-.28-.63c-.52.05-.86-.54-.93-1.06a3.08,3.08,0,0,1,.9-2.54,3,3,0,0,1,2.57-.79,2.82,2.82,0,0,1,1.21-2.06,2.87,2.87,0,0,1,2.37-.34,2.31,2.31,0,0,1,1.49-.93,7.1,7.1,0,0,1,2.62-.43,2.59,2.59,0,0,1,2.16,1.35.76.76,0,0,0,.13.23.62.62,0,0,0,.42.1,5.66,5.66,0,0,1,3,.59,4.43,4.43,0,0,1,2,2.76c.34,1.3,0,2.48.06,3.76,0,.24.28.38.49.51a4.32,4.32,0,0,1,1.28,1.24,3.84,3.84,0,0,1,.68,1.93c.07,1.71-1.14,3.21-2.45,4.3-.74.61-1.53,1.17-2.25,1.8a9.44,9.44,0,0,0-1,1c-.2.25-.4.82-.74.88s-.59-.3-.68-.62a6.21,6.21,0,0,1,.28-4.14,4.64,4.64,0,0,0,.67-2.11c-.07-.74-1.07-1.32-1.56-.89s-.57,1.5-1.16,1.29a7.76,7.76,0,0,0,.22-1.79,5.34,5.34,0,0,0-.42-1.75c-.3-.66-1.7-2.72-2.59-1.86a2.14,2.14,0,0,1-.44.41.8.8,0,0,1-.78-.06,2.66,2.66,0,0,1-.58-.58,2.52,2.52,0,0,1-1.74,1A1.43,1.43,0,0,1,220.11,108.51Z" transform="translate(-8.86 -36.54)" fill="#2f3554" style="--darkreader-inline-fill: #acbbd1;" data-darkreader-inline-fill=""></path><path d="M222.84,121.18a23.2,23.2,0,0,0,4.69-1.39c.13,4.89-3.84,5.9-3.84,5.9h0a23,23,0,0,0-.08-4.15.43.43,0,0,0-.12-.31.48.48,0,0,0-.29,0h-.36Z" transform="translate(-8.86 -36.54)" fill="#de9f93" style="--darkreader-inline-fill: #dc998c;" data-darkreader-inline-fill=""></path><path d="M106.81,179.21c2.85,1.64,5.25-.07,6-3,.31-1.31.43-2.67.86-4a19.78,19.78,0,0,1,2.61-4.61,12.8,12.8,0,0,0,2.28-4.76,5,5,0,0,0-1.54-4.82,1.57,1.57,0,0,0-1.13-.4c-.66.06-1,.81-1.16,1.47a8.42,8.42,0,0,1-.31,2,3.87,3.87,0,0,1-2.35,1.78c-2.22.91-4.6,1.72-6.16,3.53a8.37,8.37,0,0,0-1.77,5.92C104.22,174.41,104.84,178.09,106.81,179.21Z" transform="translate(-8.86 -36.54)" fill="#2f3554" style="--darkreader-inline-fill: #acbbd1;" data-darkreader-inline-fill=""></path><path d="M134.17,193.39,131,205.45c-9.36,1.94-20-1.78-20-1.78.51-5.38,0-12.73-1-15-2.65-6.1-5.91-14.19-2.12-18.8,3.06-3.72,8.66-3.36,12.08-3.26a98.09,98.09,0,0,0,10.14-.38C143.09,180.16,134.17,193.39,134.17,193.39Z" transform="translate(-8.86 -36.54)" fill="#4c506d" style="--darkreader-inline-fill: #aea79c;" data-darkreader-inline-fill=""></path><path d="M122.58,143.92l4,11.34s6.52.11,5.18-6.42-5.85-6.8-5.85-6.8Z" transform="translate(-8.86 -36.54)" fill="#2f3554" style="--darkreader-inline-fill: #acbbd1;" data-darkreader-inline-fill=""></path><path d="M116.72,144.05s10.91-3.07,12.7,4.58a20.63,20.63,0,0,1,.55,4.83,15.35,15.35,0,0,1-.06,1.66c-.49,5-3,8.8-7.06,8.46C115.76,163,108.19,147.88,116.72,144.05Z" transform="translate(-8.86 -36.54)" fill="#ec9c7d" style="--darkreader-inline-fill: #eb9878;" data-darkreader-inline-fill=""></path><path d="M118,158.35a.7.7,0,0,1-1,0h0a9,9,0,0,1,1.46,4c.55,4.13-1.46,4.3-1.46,4.3,7.44,4.16,8.54,1.34,8.54,1.34a4.37,4.37,0,0,1-.27-4.65c-3.38.93-6.35-3.05-7-5.31A.74.74,0,0,1,118,158.35Z" transform="translate(-8.86 -36.54)" fill="#d68369" style="--darkreader-inline-fill: #d7876e;" data-darkreader-inline-fill=""></path><path d="M124.55,142.92a4.52,4.52,0,0,0-1.79-.24c-3,0-6.17.18-8.89,1.53-1.72.85-3.32,2.37-3.45,4.29a7.73,7.73,0,0,0,.55,2.85,8.52,8.52,0,0,1,.6,2.21c0,.58-.23,1.18-.23,1.78a6.74,6.74,0,0,0,1.15,3.71,13,13,0,0,0,2.06,2.2l1.62,1.47a.48.48,0,0,0,.26.16.41.41,0,0,0,.24-.08,3.54,3.54,0,0,0,1.77-3.41,2,2,0,0,0-.6-1.33,7.65,7.65,0,0,0-1-.58,2.64,2.64,0,0,1-1.26-2.25,1.09,1.09,0,0,1,.45-1,1,1,0,0,1,1.09.19c.42.38.37.82.92.93a2.92,2.92,0,0,0,1.67-.52c3.61-2,5-7.27,6.09-11C125.29,143.71,125.07,143.14,124.55,142.92Z" transform="translate(-8.86 -36.54)" fill="#2f3554" style="--darkreader-inline-fill: #acbbd1;" data-darkreader-inline-fill=""></path><path d="M116,181.79c-3-8.72-5-13-8.06-11.92,0,0-4,2-1.73,10,2.54,9,9.27,17.39,9.27,17.39l3.11-6.86S117.58,186.59,116,181.79Z" transform="translate(-8.86 -36.54)" fill="#ec9c7d" style="--darkreader-inline-fill: #eb9878;" data-darkreader-inline-fill=""></path><path d="M147.77,213.73c-.19-.23-.81-1-1.73-2a1.7,1.7,0,0,1,.22.24C146.8,212.53,147.3,213.14,147.77,213.73Z" transform="translate(-8.86 -36.54)" fill="#dc9bd5" style="--darkreader-inline-fill: #d993d2;" data-darkreader-inline-fill=""></path><path d="M111.44,201.13c4.13.24,8.46.53,12.7,1.14,0,0,16.62,14,18.74,17.39,4.91,7.87,9.69,5.63,2.57,17.13q-7.11,11.49-14.25,23c-2.42.81-5-1.32-5.7-3.79s0-5.09.75-7.55q2.18-7.44,4.29-14.87c.3-1.13.61-2.4,0-3.4a4.18,4.18,0,0,0-1.54-1.29c-1.69-1-2.85-3.38-4.72-3.95a31.32,31.32,0,0,1-9-4,12.69,12.69,0,0,1-5.46-7.93C109.14,209.08,111,205.14,111.44,201.13Z" transform="translate(-8.86 -36.54)" fill="#68e1fd" style="--darkreader-inline-fill: #63e0fd;" data-darkreader-inline-fill=""></path><path d="M124.17,202.31c3.41.42,9-1.14,9-1.14,4.87,2.17,10.13,7.56,12.82,10.58h0c.93,1,1.55,1.78,1.74,2v.05h0l.27.34c3,4,4.89,8.71,6.75,13.35l9.38,23.37a5.59,5.59,0,0,1,.56,2.34c-.14,2.89-4,3.66-6.89,3.6l-12.46-20s2.36-7.14-2.58-17.13C141,216.09,124,202.28,124,202.28Z" transform="translate(-8.86 -36.54)" fill="#68e1fd" style="--darkreader-inline-fill: #63e0fd;" data-darkreader-inline-fill=""></path><path d="M124.17,202.31c3.41.42,9-1.14,9-1.14,4.87,2.17,10.13,7.56,12.82,10.58h0c.93,1,1.55,1.78,1.74,2v.05h0l.27.34c3,4,4.89,8.71,6.75,13.35l9.38,23.37a5.59,5.59,0,0,1,.56,2.34c-.14,2.89-4,3.66-6.89,3.6l-12.46-20s2.36-7.14-2.58-17.13C141,216.09,124,202.28,124,202.28Z" transform="translate(-8.86 -36.54)" fill="url(#linear-gradient-2)"></path><path d="M130.94,261.76a22.82,22.82,0,0,0-.94-2.08,12.76,12.76,0,0,0-2-1.58c-.29-.26-2-1.71-1.9-2.12a22,22,0,0,1-1.53,4,4.26,4.26,0,0,0-.71,2.5,3.81,3.81,0,0,0,1.53,2c2.66,2.19,5.84,4.27,9.26,3.88a.77.77,0,0,0,.57-.23.63.63,0,0,0,.12-.42c.06-1.52-1.42-2.54-2.53-3.57A9.6,9.6,0,0,1,130.94,261.76Z" transform="translate(-8.86 -36.54)" fill="#ec9c7d" style="--darkreader-inline-fill: #eb9878;" data-darkreader-inline-fill=""></path><path d="M164.4,255.18c-.69-.8-.75-.82-1.77-.36a13,13,0,0,0-2.11,1.21.47.47,0,0,0-.2.22.48.48,0,0,0,0,.29l1,3a2.06,2.06,0,0,0,.65,1.12,2,2,0,0,0,.91.28,22.09,22.09,0,0,0,7.52.22c.64-.13,1.34-.48,1.34-1.1a1.09,1.09,0,0,0-.25-.64c-.76-1-2.16-1.25-3.36-1.68A8.78,8.78,0,0,1,164.4,255.18Z" transform="translate(-8.86 -36.54)" fill="#ec9c7d" style="--darkreader-inline-fill: #eb9878;" data-darkreader-inline-fill=""></path><path d="M162.42,260.27a5.28,5.28,0,0,1,2,.36,14.85,14.85,0,0,0,2.31.26,2.44,2.44,0,0,0,1.88-.5c.46-.46.52-1.2.93-1.72a2,2,0,0,1,1.56-.7,4.87,4.87,0,0,1,1.72.37,8.31,8.31,0,0,1,3.76,2.57.68.68,0,0,1,.19.47.61.61,0,0,1-.13.32,3.71,3.71,0,0,1-2.65,1.16,45.75,45.75,0,0,1-6.82.63,17.15,17.15,0,0,0-3.36.12,1.09,1.09,0,0,1-.62,0,.92.92,0,0,1-.3-.35C162.5,262.59,161.09,260.61,162.42,260.27Z" transform="translate(-8.86 -36.54)" fill="#68e1fd" style="--darkreader-inline-fill: #63e0fd;" data-darkreader-inline-fill=""></path><path d="M124.43,261.13c.65.21,1.2,1.14,1.67,1.62a19.29,19.29,0,0,0,2,1.72,2.82,2.82,0,0,0,2.11.71c.74-.15,1.27-.82,2-1.05a2.29,2.29,0,0,1,1.92.33,5.56,5.56,0,0,1,1.41,1.41,9.62,9.62,0,0,1,1.94,4.84.82.82,0,0,1-.12.57.74.74,0,0,1-.33.22,4.3,4.3,0,0,1-3.26-.59,50.45,50.45,0,0,1-6.85-3.74,18.32,18.32,0,0,0-3.28-2,1,1,0,0,1-.57-.39.84.84,0,0,1-.07-.52C123.07,263.33,123,260.55,124.43,261.13Z" transform="translate(-8.86 -36.54)" fill="#68e1fd" style="--darkreader-inline-fill: #63e0fd;" data-darkreader-inline-fill=""></path><path d="M105,172.42c.75-2,4.54-6.59,7.1-4.71a8.94,8.94,0,0,1,3.33,4.94c.24.91.33,1.88.56,2.82.31,1.16.79,2.26,1,3.43a14.11,14.11,0,0,1,.07,3.73q-3.66-.51-7.3-1.07l-3.64-.58c-.68-.11-2.06.17-2.39-.54a2.15,2.15,0,0,1-.07-1.28l.29-2.07a22.25,22.25,0,0,1,1-4.49A1.21,1.21,0,0,1,105,172.42Z" transform="translate(-8.86 -36.54)" fill="#4c506d" style="--darkreader-inline-fill: #aea79c;" data-darkreader-inline-fill=""></path><path d="M261.49,256.7v6.06H239.81s1.27-4.65,9.86-6.06l2.81-2.29Z" transform="translate(-8.86 -36.54)" fill="#68e1fd" style="--darkreader-inline-fill: #63e0fd;" data-darkreader-inline-fill=""></path><path d="M261.49,255.49v6.05H239.81s1.27-4.64,9.86-6.05l2.81-2.29Z" transform="translate(-8.86 -36.54)" fill="url(#linear-gradient-3)"></path><path d="M277.19,264.06v6.05H255.51s1.27-4.65,9.85-6.05l2.82-2.29Z" transform="translate(-8.86 -36.54)" fill="#68e1fd" style="--darkreader-inline-fill: #63e0fd;" data-darkreader-inline-fill=""></path><path d="M277.19,262.84v6.06H255.51s1.27-4.65,9.85-6.06l2.82-2.29Z" transform="translate(-8.86 -36.54)" fill="url(#linear-gradient-4)"></path><path d="M318,186.2a20.72,20.72,0,0,0-1.36,3.9c-.29,1.64-.77,3.25-1.08,4.9a55.6,55.6,0,0,0-.82,10.06c0,1.33,0,2.83-1,3.75a4.64,4.64,0,0,1-2.43,1c-1.73.35-3.29,1-5,1.32a33.6,33.6,0,0,1-5.67.34c-5.59,0-16-.62-15.66-8.45.38-8.86,1.07-17.48,2.31-26.32.42-2.95.51-6.37,1.4-9.22.77-2.38,3.55-2.41,5.86-2.16H295a8.36,8.36,0,0,1,1.32.17,63.87,63.87,0,0,0,9.28.26c3.48-.1,9.05-.45,12.48,2.83a9.07,9.07,0,0,1,.67.72C322.18,173.51,320.32,180.25,318,186.2Z" transform="translate(-8.86 -36.54)" fill="#68e1fd" style="--darkreader-inline-fill: #63e0fd;" data-darkreader-inline-fill=""></path><path d="M272.86,184.11a36.78,36.78,0,0,0-.46,5.64,3.4,3.4,0,0,0,.41,1.9,3.22,3.22,0,0,0,2.87,1,13,13,0,0,0,9-3.76,56.2,56.2,0,0,0,6.09-7.16,5.91,5.91,0,0,0,1.37-4.34c0-2.14-.08-4.29-.28-6.43,0-.5-3.49-.11-3.84,0a13.94,13.94,0,0,0-3.65,1.64,27.54,27.54,0,0,1,.39-4.44,2.18,2.18,0,0,0-.15-1.26c-.39-.69-1.37-.76-2.17-.69-1.73.13-3.64.42-4.72,1.77a6.82,6.82,0,0,0-1,2.11A83.87,83.87,0,0,0,272.86,184.11Z" transform="translate(-8.86 -36.54)" fill="#68e1fd" style="--darkreader-inline-fill: #63e0fd;" data-darkreader-inline-fill=""></path><path d="M278,185.91a3,3,0,0,0,.2,2.08c.77,1.17,2.54.77,3.79.2a28.48,28.48,0,0,0,4.77-2.87,1.3,1.3,0,0,1,.95-.37,1.38,1.38,0,0,1,.63.46,24.68,24.68,0,0,0,8.37,6c1.08.47,2.51.76,3.29-.09s.17-2.45-.53-3.52l-8.23-12.72a1,1,0,0,0-.44-.42c-.31-.11-.63.13-.88.35a16.88,16.88,0,0,1-3.74,2.45,2.16,2.16,0,0,1-1.59.29c-.77-.26-1-1.2-1.13-2a21.4,21.4,0,0,1-.11-4,3.68,3.68,0,0,0-.11-1.65,1.84,1.84,0,0,0-2.44-.87h0a.56.56,0,0,0-.17.09c-1,.77-.86,3.67-1,4.91Z" transform="translate(-8.86 -36.54)" fill="url(#linear-gradient-5)"></path><path d="M306.44,185.46a12.13,12.13,0,0,1-2.95,3.54c-1.35,1.05-4.46,5.16-6.39,3.9a7.75,7.75,0,0,0,2.93,1.62c-3,2.09-6.74,2.65-10.32,3.32a7.06,7.06,0,0,0-2.64.89,2.51,2.51,0,0,0-1.21,2.36c.26,1.62,2.3,2.1,3.95,2.2,4,.25,8.05.33,12.05.82,3.4.42,7.07,1.31,9.16,4a1.47,1.47,0,0,0,.61.55.94.94,0,0,0,1.08-.52,3,3,0,0,0,.22-1.28,36.93,36.93,0,0,1,1.53-9.85c.39-1.29.43-2.61.81-3.84.46-1.54,1.3-3,1.82-4.49a43.38,43.38,0,0,0,2.1-9.42c.24-2.25.08-5-1.85-6.15a4.24,4.24,0,0,0-4.61.48,9.77,9.77,0,0,0-2.83,3.92C308.74,180.12,307.87,183,306.44,185.46Z" transform="translate(-8.86 -36.54)" fill="url(#linear-gradient-6)"></path><path d="M318.08,168.64c-3.43-3.28-9-2.93-12.49-2.82a65.22,65.22,0,0,1-9.27-.27c-.44-.06-.88-.12-1.33-.16,1.84-.77,4.45-.25,6.42-.19q4.45.15,8.91.55C313.14,166,316.25,166.49,318.08,168.64Z" transform="translate(-8.86 -36.54)" fill="#fff" style="--darkreader-inline-fill: #e8e6e3;" data-darkreader-inline-fill=""></path><path d="M307.52,156.38a6.28,6.28,0,0,1-7.63,3.77s1.45,4.41-.37,7.07c-.34.5,1.94,1,2.07,1a9.49,9.49,0,0,0,3.75-.8,25.28,25.28,0,0,1,5.74-1.9,4,4,0,0,1-2.08-2.16c-1.06-2.22-.71-4.22-.29-6.49a.86.86,0,0,1-1-.1A.72.72,0,0,1,307.52,156.38Z" transform="translate(-8.86 -36.54)" fill="#d68369" style="--darkreader-inline-fill: #d7876e;" data-darkreader-inline-fill=""></path><path d="M303.54,162.05c-4.28,1.26-7.77-2.27-9.35-7.48-.17-.57-.31-1.16-.44-1.77a22.72,22.72,0,0,1-.46-5.27c.23-8.54,12.51-7.68,12.51-7.68C315.74,142.08,311,159.86,303.54,162.05Z" transform="translate(-8.86 -36.54)" fill="#ec9c7d" style="--darkreader-inline-fill: #eb9878;" data-darkreader-inline-fill=""></path><path d="M297.24,138.46a6.58,6.58,0,0,0-3.84,2.68,19.67,19.67,0,0,1-1.34,2.14c-.76.93-1.9,1.6-2.3,2.73a8.62,8.62,0,0,0,5.63-1,1.55,1.55,0,0,0,1.34.77,4.83,4.83,0,0,0,1.6-.3,1.48,1.48,0,0,1,.88-.08,1.76,1.76,0,0,1,.58.43,3.91,3.91,0,0,0,3.7.76c.77-.23,1.54-.69,2.26-.46A2.37,2.37,0,0,1,307,148.3c0,.52-.26,1-.28,1.56a4.62,4.62,0,0,0,.24,1.65,4,4,0,0,1,1-1,1.38,1.38,0,0,1,1.36-.06,1.44,1.44,0,0,1,.42.43,2.68,2.68,0,0,1-.43,3.41c.13.53.26,1.07.38,1.6a8.48,8.48,0,0,0,1.6-2.53,15,15,0,0,1,1.3-3,7.39,7.39,0,0,0,1-1.37,11,11,0,0,1,.41-1.09c.5-.89,1.2-1.78.91-2.87s-1.54-2-1.26-3.07c.07-.21.13-.41.18-.62a1.6,1.6,0,0,0-.19-.91,8.48,8.48,0,0,0-5.82-4.43,18.45,18.45,0,0,0-7.51.07c-2.49.43-4.95,1.05-7.47,1.24a.56.56,0,0,0-.53.24.42.42,0,0,0,0,.27c.1.54.6.9,1,1.28s.77,1,.47,1.45" transform="translate(-8.86 -36.54)" fill="#ff681c" style="--darkreader-inline-fill: #ff732d;" data-darkreader-inline-fill=""></path><path d="M306.51,205.29s-5.2,13-9.38,14.37-19.63,6.08-19.63,6.08l-16.57,33.62-8.45-5.2,14-40.5L283.35,205S287.66,205.16,306.51,205.29Z" transform="translate(-8.86 -36.54)" fill="#2f3554" style="--darkreader-inline-fill: #acbbd1;" data-darkreader-inline-fill=""></path><path d="M313.73,207.79s1,11.85-3.21,13.22-19.62,6.09-19.62,6.09l-13.78,37.51-9-2.29L279.87,215l16.83-8.63S306.48,202.84,313.73,207.79Z" transform="translate(-8.86 -36.54)" fill="#4c506d" style="--darkreader-inline-fill: #aea79c;" data-darkreader-inline-fill=""></path><path d="M320.1,174.8s-7.33,16.44-15.11,18.66-17.14-20.82-17.14-20.82l6.24-2.35,10.47,10.52s6.49-13.78,9.13-13.15S321.09,172,320.1,174.8Z" transform="translate(-8.86 -36.54)" fill="#68e1fd" style="--darkreader-inline-fill: #63e0fd;" data-darkreader-inline-fill=""></path><path d="M286.26,161.12a3.3,3.3,0,0,1-.76,1.74,10.72,10.72,0,0,0-1,3.26,7,7,0,0,1-1.33,3.12,2.69,2.69,0,0,1-3.07.81,2.58,2.58,0,0,1-1.26-1.94,5.67,5.67,0,0,1,.27-2.38,15,15,0,0,1,1.14-2.89,7.1,7.1,0,0,1,1.76-2.31C283.11,159.62,286.12,158.83,286.26,161.12Z" transform="translate(-8.86 -36.54)" fill="#d68369" style="--darkreader-inline-fill: #d7876e;" data-darkreader-inline-fill=""></path><path d="M294.08,161.34a1.59,1.59,0,0,1,.48.74,1.38,1.38,0,0,1-.12.8,9.2,9.2,0,0,1-2.89,3.42l-1.93,1.63a1.65,1.65,0,0,1-.46.32,1.6,1.6,0,0,1-.92,0l-3.9-.54a3.11,3.11,0,0,1-1.42-.44,2.5,2.5,0,0,1-.77-1.07,7.92,7.92,0,0,1,.82-7.82,4.17,4.17,0,0,1,1.46-1.31c1.83-.9,3.4.34,5,1.11A16.56,16.56,0,0,1,294.08,161.34Z" transform="translate(-8.86 -36.54)" fill="#fff" style="--darkreader-inline-fill: #e8e6e3;" data-darkreader-inline-fill=""></path><path d="M291.88,161.88c.52-.1,1-.5,1.53-.33a.93.93,0,0,1,.44.34,1.9,1.9,0,0,1,0,2,5.6,5.6,0,0,1-1.38,1.53.86.86,0,0,1-.33.2c-.31.07-.58-.22-.78-.47l-1.82-2.46c-.4-.54-2-2.16-.58-2C290.05,160.8,290.66,162.11,291.88,161.88Z" transform="translate(-8.86 -36.54)" fill="#d8dae1" style="--darkreader-inline-fill: #d2cec8;" data-darkreader-inline-fill=""></path><path d="M289.38,162.11a4.25,4.25,0,0,0-1.65-1.66,4.47,4.47,0,0,0-2.08-.29c-1.38,0-3,.25-3.66,1.46a3.15,3.15,0,0,0,.3,3c.53.9,1.29,1.66,1.83,2.55.77,1.28,1.14,2.88,2.31,3.81a4,4,0,0,0,1.68.76c2,.47,4.68-.49,4.2-2.91A21.21,21.21,0,0,0,289.38,162.11Z" transform="translate(-8.86 -36.54)" fill="#ec9c7d" style="--darkreader-inline-fill: #eb9878;" data-darkreader-inline-fill=""></path><path d="M309.22,164.51a1.7,1.7,0,0,1,1,0c.5.22.73.86,1.24,1.06-1.19,1.1-2.81,1.6-4.18,2.46a18.15,18.15,0,0,0-3.78,3.54c-1.3-.71-1.22-2.72-2.35-3.67a7.94,7.94,0,0,0,2.27-1A13.69,13.69,0,0,0,305,166,12,12,0,0,1,309.22,164.51Z" transform="translate(-8.86 -36.54)" fill="#68e1fd" style="--darkreader-inline-fill: #63e0fd;" data-darkreader-inline-fill=""></path><path d="M298.11,165.27a7.36,7.36,0,0,0-1.1,1.2l-1.28,1.63a.62.62,0,0,0-.2.49.46.46,0,0,0,.54.29,4.62,4.62,0,0,0,.62-.23,5.34,5.34,0,0,1,1.44-.08,5.75,5.75,0,0,0,1.72-.45.23.23,0,0,0,.2-.26s0,0,0,0a4,4,0,0,1,.26-1.68c.14-.4.41-.86.14-1.27C299.93,164.08,298.62,164.85,298.11,165.27Z" transform="translate(-8.86 -36.54)" fill="#68e1fd" style="--darkreader-inline-fill: #63e0fd;" data-darkreader-inline-fill=""></path><path d="M141.55,188.54l-1.78-2.06s-19,3-21.75,4.09-2.59,6.68-2.59,6.68C122.87,199.31,141.55,188.54,141.55,188.54Z" transform="translate(-8.86 -36.54)" fill="#ec9c7d" style="--darkreader-inline-fill: #eb9878;" data-darkreader-inline-fill=""></path><path d="M138.14,189.1a1.15,1.15,0,0,0,.37.59,1.85,1.85,0,0,0,.65.22c1.34.32,2.38,1.39,3.66,1.89,1.74.68,3.7.27,5.51-.17A1.48,1.48,0,0,0,149.4,189a7.25,7.25,0,0,0-1.82-2.33c-1.59-1.2-3.81-.94-5.77-.63C140,186.33,137.33,186.42,138.14,189.1Z" transform="translate(-8.86 -36.54)" fill="#ec9c7d" style="--darkreader-inline-fill: #eb9878;" data-darkreader-inline-fill=""></path><path d="M244.46,144.43a22.42,22.42,0,0,1-.08,7.49,34.25,34.25,0,0,1-.86,3.6,3.39,3.39,0,0,0-.18,1c0,.35.22.63,0,1-.29.61-1.2.35-1.79,0a14.55,14.55,0,0,0-7.83-1.53c-.64.06-1.44.09-1.76-.47a1.62,1.62,0,0,1-.12-.92c.17-2.67.41-5.36.7-8.08a47,47,0,0,1,1.72-7c.58-2.12,2.43-7.82,5.42-6.54C242.14,134.1,244.07,142.12,244.46,144.43Z" transform="translate(-8.86 -36.54)" fill="#fff" style="--darkreader-inline-fill: #e8e6e3;" data-darkreader-inline-fill=""></path><rect x="100.81" y="157.07" width="210.34" height="3.64" fill="#68e1fd" style="--darkreader-inline-fill: #63e0fd;" data-darkreader-inline-fill=""></rect><rect x="100.81" y="157.07" width="210.34" height="3.64" fill="url(#linear-gradient-7)"></rect><path d="M232.3,151.17a55.88,55.88,0,0,1,1.69-7.78c1.2-4.1,3.23-8.44,7.17-10.06a2.36,2.36,0,0,0,1.38-.92c.32-.65-.1-1.41-.5-2-1.95-2.91-3.81-2.88-6.42-.84-2.44,1.91-4.49,3.81-5.66,6.76a22,22,0,0,0-1.28,9.24,37.37,37.37,0,0,0,1.69,9.44c.21.69.74,1.53,1.42,1.3C231.88,154.59,232.05,152.87,232.3,151.17Z" transform="translate(-8.86 -36.54)" fill="#2f3554" style="--darkreader-inline-fill: #acbbd1;" data-darkreader-inline-fill=""></path><path d="M184.07,132.14a3.87,3.87,0,0,1,.08,2.62c-.23,1.46-.16,3-.46,4.4a4.65,4.65,0,0,1-2.45,3.49,6.13,6.13,0,0,1-3.5,0,1.45,1.45,0,0,1-1.05-.54,1.42,1.42,0,0,1-.13-.61,11.35,11.35,0,0,0-.37-2.84c-.43-1.32-1.48-2.58-1.12-3.92.4-1.5,2.75-2.94,4.18-3.33S183.2,130.74,184.07,132.14Z" transform="translate(-8.86 -36.54)" fill="#fff" style="--darkreader-inline-fill: #e8e6e3;" data-darkreader-inline-fill=""></path><path d="M182.83,129.69a.69.69,0,0,0-.11-.28.89.89,0,0,0-.29-.26,8.81,8.81,0,0,0-1.29-.68,1,1,0,0,0-.65-.09.66.66,0,0,0-.36.3,2.2,2.2,0,0,0-.1,1.65l.18.87a3.7,3.7,0,0,1,.94-.09,2.9,2.9,0,0,1,1,.22c.23.1.47.27.72.14a.61.61,0,0,0,.28-.59A4.87,4.87,0,0,0,182.83,129.69Z" transform="translate(-8.86 -36.54)" fill="#68e1fd" style="--darkreader-inline-fill: #63e0fd;" data-darkreader-inline-fill=""></path><path d="M178.67,129a1.17,1.17,0,0,0-1.79,0l-1.57,1.12a2,2,0,0,0-.91,1.07,1.75,1.75,0,0,0,0,.72,7.71,7.71,0,0,0,1,2.43c-.14-.22,1.23-1.28,1.4-1.4a15.44,15.44,0,0,1,1.77-1,1.73,1.73,0,0,0,.57-2.39A1.76,1.76,0,0,0,178.67,129Z" transform="translate(-8.86 -36.54)" fill="#68e1fd" style="--darkreader-inline-fill: #63e0fd;" data-darkreader-inline-fill=""></path><rect x="162.88" y="136.12" width="9.78" height="20.95" rx="2.36" fill="#68e1fd" style="--darkreader-inline-fill: #63e0fd;" data-darkreader-inline-fill=""></rect><rect x="162.88" y="136.12" width="9.78" height="20.95" rx="2.36" fill="url(#linear-gradient-8)"></rect><rect x="177.32" y="160.71" width="3.75" height="72.86" fill="#68e1fd" style="--darkreader-inline-fill: #63e0fd;" data-darkreader-inline-fill=""></rect><rect x="234" y="160.71" width="3.75" height="72.86" fill="#68e1fd" style="--darkreader-inline-fill: #63e0fd;" data-darkreader-inline-fill=""></rect><rect x="307.34" y="160.71" width="3.75" height="72.86" fill="#68e1fd" style="--darkreader-inline-fill: #63e0fd;" data-darkreader-inline-fill=""></rect><rect x="102.2" y="160.71" width="3.75" height="72.86" fill="#68e1fd" style="--darkreader-inline-fill: #63e0fd;" data-darkreader-inline-fill=""></rect><path d="M288.12,155.53a3.74,3.74,0,0,1,2.38-.51,2.32,2.32,0,0,1,1.86,1.44,2.46,2.46,0,0,1,0,1.65,6.26,6.26,0,0,1-.83,1.47,6.24,6.24,0,0,0,1.34-1c.35-.34.76-.75,1.23-.62a1.2,1.2,0,0,1,.51.35c.2.21.41.43.6.65a1.46,1.46,0,0,1,.34.54,1.67,1.67,0,0,1-.33,1.24,2,2,0,0,1-1,1,1.9,1.9,0,0,1-1.57-.54l-2.08-1.54a11.12,11.12,0,0,0-1-.69c-.41-.22-.84-.42-1.27-.6s-2-.64-1.9-1.29S287.62,155.8,288.12,155.53Z" transform="translate(-8.86 -36.54)" fill="#68e1fd" style="--darkreader-inline-fill: #63e0fd;" data-darkreader-inline-fill=""></path><polygon points="247.33 157.07 257.37 157.07 259.25 141.11 245.35 140.97 247.33 157.07" fill="#68e1fd" style="--darkreader-inline-fill: #63e0fd;" data-darkreader-inline-fill=""></polygon><rect x="243.62" y="139.4" width="16.94" height="3.1" fill="#fff" style="--darkreader-inline-fill: #e8e6e3;" data-darkreader-inline-fill=""></rect><polyline points="257.04 130.37 253.52 130.37 251.76 139.4" fill="none" stroke="#2f3554" stroke-miterlimit="10" style="--darkreader-inline-stroke: #acbbd1;" data-darkreader-inline-stroke=""></polyline><polygon points="184.12 157.07 217.91 157.07 220.58 153.95 181.73 153.95 184.12 157.07" fill="#fff" style="--darkreader-inline-fill: #e8e6e3;" data-darkreader-inline-fill=""></polygon><path d="M216.49,187.09a7.1,7.1,0,0,0-2.05-2,6.34,6.34,0,0,0-2.67-.59,6.89,6.89,0,0,0-3.64.54,7.87,7.87,0,0,0-2.88,3.45,1.06,1.06,0,0,0-.18.55c0,.48.56.73,1,.85a25.67,25.67,0,0,0,7.9.81c.75,0,3.76.21,4.2-.53S217,187.67,216.49,187.09Z" transform="translate(-8.86 -36.54)" fill="#fff" style="--darkreader-inline-fill: #e8e6e3;" data-darkreader-inline-fill=""></path><path d="M206.35,187.09a6.81,6.81,0,0,0-2-2,6.34,6.34,0,0,0-2.67-.59A7,7,0,0,0,198,185a7.87,7.87,0,0,0-2.88,3.45,1.06,1.06,0,0,0-.18.55c0,.48.56.73,1,.85a25.67,25.67,0,0,0,7.9.81c.75,0,3.76.21,4.2-.53S206.81,187.67,206.35,187.09Z" transform="translate(-8.86 -36.54)" fill="#fff" style="--darkreader-inline-fill: #e8e6e3;" data-darkreader-inline-fill=""></path><path d="M211.55,182.58a7.1,7.1,0,0,0-2.05-2,6.53,6.53,0,0,0-2.68-.58,7,7,0,0,0-3.64.54,7.91,7.91,0,0,0-2.87,3.45,1.21,1.21,0,0,0-.19.55c0,.48.57.73,1,.85a26,26,0,0,0,7.9.81c.75,0,3.75.2,4.2-.53S212,183.16,211.55,182.58Z" transform="translate(-8.86 -36.54)" fill="#fff" style="--darkreader-inline-fill: #e8e6e3;" data-darkreader-inline-fill=""></path><path d="M146.58,180.1c1.11.15,2.19.81,3.27.55s1.81-1.41,2.91-1.65a2.61,2.61,0,0,1,2.5,1.08,7.45,7.45,0,0,1,1.15,2.61,3.67,3.67,0,0,1,.23,1.94c-.35,1.43-2.18,2-2.85,3.28-.37.71-.37,1.6-.89,2.2a3.2,3.2,0,0,1-2.19.79,16.85,16.85,0,0,1-4.81,0c-2.33-.43-5.26-2.48-4.5-5.19C142.09,183.27,143.47,179.68,146.58,180.1Z" transform="translate(-8.86 -36.54)" fill="#fff" style="--darkreader-inline-fill: #e8e6e3;" data-darkreader-inline-fill=""></path><path d="M155,176.89a3.1,3.1,0,0,0-.36-1.55c-.63-1-2.09-.9-3.11-.39a5.49,5.49,0,0,0-2.56,2.67,2.83,2.83,0,0,0-4-.48,2.94,2.94,0,0,0-.63.69,5.45,5.45,0,0,0-.64,1.84,2,2,0,0,0,.09,1.6,2,2,0,0,0,1.41.62c1.05.15,2.11.27,3.16.35a8.45,8.45,0,0,0,5-.7C155.05,180.6,155.1,178.54,155,176.89Z" transform="translate(-8.86 -36.54)" fill="#68e1fd" style="--darkreader-inline-fill: #63e0fd;" data-darkreader-inline-fill=""></path><path d="M290.15,186.16a6.09,6.09,0,0,1,2.89-2,9,9,0,0,1,2.74,0c4.87.44,9.68-1.08,14.53-1.72a6.76,6.76,0,0,1,4.34.48,9.86,9.86,0,0,1,1.92,1.73c2.6,2.6,6.2,4,9,6.33a1.47,1.47,0,0,1,.56.74c.2.76-.72,1.31-1.48,1.51-6.55,1.74-13.48-.75-20.22-.1-2.84.27-5.64,1.1-8.49,1a44.53,44.53,0,0,1-5.12-.88c-.89-.16-3.57,0-4.22-.56C285.18,191.38,289.09,187.29,290.15,186.16Z" transform="translate(-8.86 -36.54)" fill="#2f3554" style="--darkreader-inline-fill: #acbbd1;" data-darkreader-inline-fill=""></path><path d="M317.87,195a43.67,43.67,0,0,0-1.38,7.69c-.11,2.15.11,4.82,1.63,6.49a6.34,6.34,0,0,0,3,1.77,4.44,4.44,0,0,1,1.46.5,2.4,2.4,0,0,1,1,2.11,5.33,5.33,0,0,1-.77,2.29,2,2,0,0,1-.56.69,1.83,1.83,0,0,1-1.23.23,8.54,8.54,0,0,1-5.72-2.64,11.79,11.79,0,0,1-3.68-8.73c.11-2.83,1.35-5.47,2.34-8.12s1.75-5.6.86-8.29c-.08-.24-.16-.56,0-.73a.66.66,0,0,1,.43-.11C319.19,188.17,318.52,192.26,317.87,195Z" transform="translate(-8.86 -36.54)" fill="#2f3554" style="--darkreader-inline-fill: #acbbd1;" data-darkreader-inline-fill=""></path></svg>