<svg width="210" height="133" viewBox="0 0 210 133" fill="none" xmlns="http://www.w3.org/2000/svg">
<g clip-path="url(#clip0_1_2)">
<path d="M128.871 116.68C128.698 116.975 128.165 117.228 127.725 117.228C127.285 117.228 127.058 116.975 127.231 116.68C127.405 116.39 127.951 116.136 128.391 116.136C128.818 116.136 129.045 116.39 128.871 116.68ZM132.965 115.047C132.965 115.358 132.565 115.588 132.018 115.588C131.191 115.588 131.178 115.512 131.871 115.052C132.911 114.37 132.965 114.37 132.965 115.047V115.047ZM95.5381 104.148C95.3515 104.46 95.0314 104.548 94.7114 104.368C94.4048 104.183 94.3114 103.859 94.498 103.548C94.6714 103.236 95.0048 103.151 95.3114 103.328C95.6314 103.508 95.7115 103.838 95.5381 104.148ZM96.1381 100.079C95.9381 101.118 95.5781 101.939 95.3114 101.939C95.0581 101.939 95.0581 101.008 95.3114 99.9164C95.5648 98.8257 95.7648 97.7443 95.7381 97.5656C95.6448 96.6363 96.0047 96.3936 96.2314 97.2376C96.378 97.7856 96.3248 99.039 96.1381 100.079V100.079ZM208.965 74.763C208.431 75.2937 208.365 75.2297 208.631 74.463C208.831 73.919 209.138 73.6137 209.311 73.7803C209.498 73.9483 209.351 74.3817 208.965 74.763ZM106.751 65.1256C106.751 65.2456 106.258 65.3444 105.658 65.3444C105.058 65.3444 104.565 65.1256 104.565 64.8536C104.565 64.5816 105.058 64.4844 105.658 64.6337C106.258 64.783 106.751 65.0043 106.751 65.1256ZM4.92746 51.5831C4.75946 51.7631 4.32748 51.607 3.94348 51.2256C3.41681 50.6936 3.48211 50.6243 4.24478 50.8963C4.79145 51.099 5.09546 51.3977 4.92746 51.5831V51.5831ZM117.125 48.9617C117.125 49.279 116.778 49.503 116.285 49.503C115.791 49.503 115.578 49.279 115.765 48.9617C115.965 48.6324 116.298 48.4137 116.618 48.4137C116.925 48.4137 117.125 48.6324 117.125 48.9617ZM117.685 47.323C117.685 47.6497 117.578 47.8697 117.431 47.8697C117.285 47.8697 117.058 47.6497 116.858 47.323C116.671 47.0097 116.778 46.7724 117.111 46.7724C117.431 46.7724 117.685 47.0097 117.685 47.323ZM121.231 44.7297C120.738 45.0003 120.165 45.0923 120.005 44.919C119.818 44.7297 119.965 44.591 120.351 44.591C120.738 44.591 120.871 44.3657 120.685 44.047C120.485 43.7137 120.711 43.6377 121.258 43.851C122.098 44.187 122.098 44.239 121.231 44.7297V44.7297ZM10.4715 36.7256C10.2955 36.9056 9.81544 36.9284 9.4341 36.7844C8.98477 36.6097 9.10613 36.4883 9.7608 36.4536C10.3075 36.4243 10.6461 36.5523 10.4715 36.7256V36.7256ZM168.191 33.891C175.458 34.9883 183.658 37.691 186.218 39.8203C192.111 44.735 198.525 52.5711 197.698 53.8777C197.498 54.2044 197.578 54.4243 197.911 54.4243C198.205 54.4243 198.605 54.9151 198.778 55.5164C198.951 56.1151 199.405 56.6083 199.765 56.6083C200.125 56.6083 200.458 57.3696 200.525 58.2989C200.591 59.2283 200.911 60.315 201.245 60.7017C201.565 61.0883 201.925 61.8736 202.031 62.4216C202.138 62.9829 202.631 65.015 203.151 66.9844C204.058 70.3737 204.058 73.9696 203.218 81.2936C202.818 84.7349 201.258 88.587 199.365 90.7923C197.445 93.039 195.938 93.9443 190.858 95.915C189.218 96.5443 187.365 97.2949 186.765 97.5656C185.805 97.9936 180.151 99.5349 177.751 100.022C177.298 100.112 173.845 101.204 170.138 102.428C166.418 103.652 162.778 104.67 162.111 104.67C161.445 104.67 160.218 104.916 159.458 105.211C158.671 105.512 156.391 106.123 154.378 106.582C152.338 107.035 149.031 107.89 146.898 108.515C144.791 109.132 140.618 110.103 137.618 110.675C134.605 111.247 130.791 112.24 129.151 112.886C127.511 113.526 124.285 114.635 122.045 115.323C115.711 117.28 107.045 120.276 105.831 120.942C104.658 121.571 95.9381 123.915 92.3914 124.546L90.2581 124.924L91.5247 123.123C92.2047 122.142 92.9514 121.2 93.1514 121.052C93.3648 120.9 94.0714 119.411 94.7114 117.772C95.3514 116.136 96.2581 114.024 96.6848 113.13C98.0048 110.455 100.631 100.152 100.445 98.439C100.338 97.5137 100.431 96.5549 100.671 96.2269C100.885 95.9149 101.111 95.107 101.165 94.4536C101.205 93.795 101.751 90.7697 102.391 87.7617C103.018 84.759 103.365 81.9924 103.151 81.6444C102.925 81.2817 103.045 81.1909 103.418 81.4269C104.138 81.8709 104.458 81.1843 104.791 78.4523C105.111 75.9403 105.685 74.0803 106.151 74.0803C106.351 74.0803 106.578 73.591 106.618 73.047C106.711 71.6963 111.511 62.1737 112.951 60.4831C113.351 60.0084 114.218 58.4616 114.845 57.0976C115.485 55.7016 117.591 52.9884 119.618 50.9844C121.631 48.9737 123.085 47.1203 122.898 46.8017C122.698 46.4963 122.871 46.359 123.245 46.5017C123.645 46.6523 125.058 45.7684 126.418 44.5111C131.951 39.3991 140.285 35.4376 148.698 33.9256C153.725 33.0256 162.351 33.007 168.191 33.891V33.891ZM154.111 26.8404C156.391 27.5964 158.645 28.2309 159.125 28.2603C159.618 28.2949 159.298 28.5257 158.418 28.779C157.551 29.0337 155.685 29.0337 154.325 28.7844C150.725 28.1217 142.258 29.7483 142.258 31.1017C142.258 31.3603 142.031 31.407 141.711 31.2124C141.405 31.0324 139.138 31.7589 136.685 32.8216C134.231 33.8856 132.031 34.763 131.818 34.763C131.138 34.763 129.031 35.7443 126.911 37.0603C125.818 37.7363 123.685 39.0244 122.258 39.867C119.365 41.5884 113.311 47.559 113.311 48.6844C113.311 48.9337 112.938 49.503 112.458 49.9963C111.645 50.8163 107.845 56.5443 107.845 56.9363C107.845 57.027 108.258 57.2017 108.805 57.3404C109.565 57.5377 109.511 57.6017 108.578 57.647C107.711 57.6883 106.991 58.571 105.738 61.1404C103.698 65.3444 101.205 70.9043 101.045 71.6269C100.978 71.9216 100.498 73.099 100.005 74.191C99.5248 75.2817 99.1114 76.5017 99.1114 76.8404C99.1114 77.1937 98.7648 78.2336 98.3114 79.215C97.5514 80.907 95.8314 85.8856 95.8314 86.4269C95.8314 86.5776 96.1381 86.519 96.5114 86.287C97.0581 85.9643 97.0714 86.0403 96.5781 86.647C95.7114 87.739 93.1248 95.2216 93.4848 95.603C93.6581 95.7763 93.5514 96.2563 93.2448 96.6363C92.7381 97.2656 92.2314 99.9697 91.6581 104.94C91.5247 106.152 91.1248 108.215 90.7781 109.583C90.4314 110.946 90.2047 112.102 90.2581 112.176C90.3247 112.251 89.8447 113.734 89.1914 115.478C87.7381 119.359 84.3248 124.464 82.6181 125.296C81.0048 126.075 77.4288 126.72 75.3501 126.607C74.4235 126.554 73.1914 126.514 72.5127 126.514C71.8581 126.514 71.1621 126.266 70.9848 125.964C70.8008 125.659 71.0368 125.418 71.5288 125.418C72.7581 125.418 72.5674 124.47 71.2568 124.054C69.7594 123.575 70.1074 122.164 72.1874 120.318C73.1634 119.446 74.1994 117.94 74.5354 116.9C75.2501 114.699 74.8607 114.139 71.4194 112.407C69.8914 111.634 68.9928 110.72 68.5835 109.526C67.8608 107.423 68.0354 107.227 71.3674 106.338C73.8781 105.668 77.1794 102.862 77.9647 100.736C78.6847 98.807 77.2607 96.5723 74.2594 94.8803C71.0927 93.091 69.9807 91.647 70.5647 90.0816C70.762 89.5456 72.3767 87.6803 74.1247 85.959C76.7461 83.3843 77.2501 82.5923 76.9461 81.5643C76.5114 80.1163 76.8275 80.3403 73.9888 79.4577C70.9848 78.527 70.3274 76.8456 71.9927 74.359C73.6354 71.8976 76.7554 69.3164 79.1247 68.4497C80.0047 68.1337 80.0981 67.7176 79.7781 65.7536C79.5648 64.4963 79.0314 62.7044 78.6181 61.8497C77.7514 60.1004 77.5914 58.7897 78.2448 58.7897C78.4848 58.7897 79.0181 57.8603 79.4181 56.7683C80.7114 53.1657 86.2314 48.9617 89.6581 48.9617C92.7381 48.9617 93.1781 48.471 93.2848 44.8083C93.4448 39.7177 95.2314 38.4803 103.485 37.7536C105.445 37.575 107.565 37.0897 108.231 36.663C110.138 35.419 111.671 33.5603 111.671 32.4697C111.671 31.9217 111.991 31.447 112.378 31.407C113.151 31.3284 113.991 31.1417 114.405 30.9737C114.871 30.7777 116.805 30.387 117.685 30.3043C118.125 30.2643 120.765 30.4017 123.498 30.6111C128.191 30.9684 128.538 30.9216 129.285 29.8483C129.711 29.2243 131.005 28.0056 132.098 27.1976C134.058 25.7363 134.338 25.691 142.031 25.587C149.138 25.4896 150.391 25.6164 154.111 26.8404V26.8404ZM45.5901 25.419C45.5901 26.0777 44.5554 26.7937 44.1687 26.407C43.7647 26.0017 44.4394 24.9284 45.098 24.9284C45.3927 24.9284 45.5901 25.1243 45.5901 25.419ZM129.698 18.9256C132.858 19.219 136.205 19.6056 137.178 19.7656C139.191 20.1256 144.085 22.1843 143.725 22.5323C143.605 22.6536 141.271 22.851 138.485 22.9763C132.205 23.271 131.525 23.4737 129.085 25.8177L127.125 27.7177L121.725 27.6603C118.765 27.6309 115.565 27.5724 114.671 27.5337C110.685 27.359 110.031 27.5897 109.698 29.3004C109.511 30.2297 109.045 31.2004 108.618 31.5404C108.178 31.8804 107.845 32.4697 107.845 32.903C107.845 34.359 104.085 35.4723 100.418 35.0963C97.5248 34.803 96.9647 34.9069 96.098 35.8549C95.5647 36.4536 94.9248 36.9457 94.6848 36.9457C93.9248 36.9457 91.4581 39.3177 91.4581 40.0577C91.4581 40.4497 90.978 41.183 90.3647 41.6976C89.5514 42.391 89.3648 43.0591 89.6048 44.3724C89.9248 46.0804 89.8847 46.1204 87.698 46.1497C86.0047 46.1671 85.0181 46.583 83.6848 47.8417C82.6981 48.7657 81.7381 49.503 81.5247 49.503C80.4847 49.503 77.5594 52.7843 76.454 55.1857C75.0967 58.1363 74.9127 63.2136 76.1194 64.415C76.8274 65.1256 76.894 65.9563 76.226 65.7656C75.7847 65.6323 72.6368 68.7283 69.8768 72.0083C69.1461 72.8737 68.4754 74.631 68.2501 76.2696C67.8194 79.3256 68.4901 80.555 71.4194 82.0803L72.9488 82.8763L71.2288 84.4857C70.3021 85.3577 69.3354 86.0976 69.126 86.0976C68.4514 86.0976 66.8755 90.1391 67.1048 91.2831C67.2261 91.8831 67.3461 92.5497 67.3715 92.7617C67.4528 93.4724 70.7834 97.0177 71.3674 97.0177C71.6568 97.0177 72.6194 97.5243 73.4394 98.1096C76.2914 100.136 74.0407 102.792 68.3074 104.16C66.7754 104.53 65.3381 105.102 65.1127 105.431C64.8821 105.766 64.8355 107.232 65.0048 108.763C65.3501 111.863 66.5607 113.47 69.7807 115.115C72.0194 116.264 72.1821 117.124 70.3275 118.066C69.6755 118.4 68.83 118.938 68.3647 119.33C67.434 120.099 66.8021 123.782 67.5954 123.782C67.9234 123.782 67.9994 123.92 67.7874 124.135C67.5847 124.336 67.8434 124.827 68.3901 125.284C69.2648 126.006 69.2648 126.046 68.4168 125.774C67.9235 125.612 67.3367 125.718 67.1594 125.994C66.9487 126.33 66.5048 126.318 65.9048 125.964C65.4021 125.671 63.9127 125.156 62.6527 124.844C61.3994 124.534 60.3301 124.036 60.3301 123.754C60.3301 123.466 59.7594 122.967 59.0501 122.635C58.2781 122.275 57.1368 120.694 56.1834 118.672C54.8274 115.803 54.5981 114.607 54.5728 110.404C54.5568 107.671 54.7501 104.391 55.0074 103.028C55.2647 101.678 55.5675 98.6056 55.6821 96.2043C55.8968 91.7403 55.9661 91.231 57.0354 86.0976C57.3754 84.4576 57.7821 82.4696 57.9288 81.7256C58.0874 80.9643 58.2994 80.075 58.4194 79.7043C58.5407 79.3483 58.802 77.6323 58.998 75.8816C59.1887 74.1496 59.8474 70.367 60.4407 67.5256C61.0407 64.691 61.7207 61.475 61.942 60.431C62.17 59.3803 62.846 57.5377 63.4474 56.335C64.046 55.1283 64.726 53.5576 64.954 52.8363C65.85 50.0017 69.5994 44.4297 73.4394 40.2243C77.7248 35.5243 86.8581 27.6603 88.0181 27.6603C88.4048 27.6603 88.7247 27.4589 88.7247 27.2269C88.7247 26.6429 100.698 20.9524 104.298 19.8057C107.125 18.9257 119.431 17.8056 122.325 18.1656C123.231 18.2856 126.525 18.619 129.698 18.9256V18.9256ZM59.6247 12.7391C60.9354 13.0857 61.3447 13.9924 60.2247 14.0724C59.0781 14.1391 51.7048 19.059 49.0834 21.4976C47.7208 22.7696 47.2634 22.9297 46.7367 22.335C46.1954 21.7297 45.7527 21.8749 44.2207 23.1549C41.9287 25.0723 41.4594 26.1057 42.5288 26.891C43.2448 27.4177 43.1661 27.7697 41.9288 29.6297C41.1661 30.7723 40.3194 31.8803 40.098 32.031C39.8714 32.1816 39.5207 32.9617 39.3074 33.7803C39.0954 34.595 38.5861 35.5297 38.1608 35.8831C37.7408 36.2231 37.3967 36.9164 37.3967 37.407C37.3967 37.9044 36.926 39.0764 36.3594 40.0057C35.7767 40.9524 35.1514 42.519 34.9367 43.5523C34.7247 44.591 34.3287 45.6884 34.0367 46.0404C33.7687 46.3697 33.5741 46.8883 33.6288 47.1323C33.6888 47.3789 33.5741 47.9803 33.3848 48.4137C32.3021 50.9257 30.8994 55.7243 31.1301 56.115C31.2861 56.3763 31.1928 56.671 30.8995 56.8564C30.0621 57.375 27.9941 64.8537 27.8048 68.075C27.7021 69.7163 27.5727 71.079 27.5087 71.079C27.4514 71.079 27.3407 71.9497 27.27 72.9897C27.098 75.4497 25.4354 85.047 24.998 86.0976C24.2687 87.847 24.2474 89.3724 24.9461 89.3724C25.3821 89.3724 25.4434 89.5336 25.1074 89.7816C24.8127 90.0056 24.2167 91.179 23.8127 92.323C22.3714 96.4164 21.0407 98.115 19.2634 98.115C18.0621 98.115 17.7034 97.907 17.9247 97.347C18.0927 96.919 17.286 95.5457 16.098 94.235C14.91 92.923 14.0901 91.6924 14.2394 91.451C14.3981 91.1964 14.1581 90.8737 13.6687 90.6831C12.9541 90.4124 12.8688 89.6497 13.1221 85.879C13.5408 79.7044 14.2994 77.0897 15.9314 76.2297C16.6754 75.831 17.7821 74.5497 18.3634 73.4004C19.3874 71.379 19.3915 71.227 18.4435 69.5483C17.8901 68.5656 17.1634 67.6136 16.7807 67.3656C16.4247 67.1389 16.098 66.5736 16.098 66.1923C16.098 65.8003 15.7154 65.1364 15.2781 64.7724C14.3554 64.0111 14.4034 60.8283 15.3301 61.1816C15.6607 61.3083 16.6167 60.7923 17.4354 60.0483C18.8407 58.767 18.9234 58.4391 18.7448 54.7777L18.554 50.8737L20.8474 49.7124C23.3061 48.4764 25.0888 46.9351 25.1341 46.0111C25.1474 45.6764 24.4821 44.1003 23.6341 42.4603C22.7848 40.8256 22.1101 38.759 22.1194 37.8177C22.1394 35.271 24.67 32.043 27.5087 30.951C30.4047 29.8364 31.2794 28.7217 31.4687 25.9164C31.5634 24.4964 32.0887 23.3803 33.1367 22.3923C34.5807 21.0243 34.8315 20.9723 37.6155 21.475C41.2181 22.1217 42.8594 21.6136 42.8594 19.859C42.8594 16.299 43.3941 15.419 46.2995 14.179C47.8821 13.499 49.7421 12.8723 50.5048 12.7523C52.7435 12.3923 58.3021 12.3791 59.6247 12.7391V12.7391ZM98.4848 13.3523C100.391 14.1657 101.938 15.0723 101.925 15.3656C101.911 15.6723 101.071 16.1124 100.098 16.3391C95.938 17.3124 93.7514 18.139 90.6448 19.8857C86.9248 21.971 82.5515 24.987 80.5381 26.8404C79.7781 27.539 78.0847 28.267 76.7194 28.4803C75.3701 28.6883 70.9274 29.703 66.8847 30.7203C62.8461 31.7363 59.1194 32.5737 58.6407 32.5737C57.2181 32.5737 55.8847 33.9083 56.2807 34.9243C56.7514 36.1363 58.4781 36.0963 60.2781 34.831C61.0674 34.2763 62.7928 33.6643 64.1568 33.4523C66.9941 33.0137 73.3994 31.0963 74.2594 30.4256C74.9167 29.9163 77.2608 29.295 77.2608 29.6297C77.2608 29.743 76.3141 30.8297 75.2127 31.9737C70.1567 37.2177 65.9101 42.4377 64.0488 45.6831C60.8341 51.3071 60.3301 52.3217 60.3301 53.219C60.3301 53.7497 59.8301 55.1857 59.2407 56.335C58.6501 57.479 58.1474 58.8937 58.1474 59.391C58.1474 60.5977 57.0035 61.2216 50.5048 63.543C47.6635 64.5576 44.2541 65.783 42.9687 66.251C38.7047 67.799 36.038 69.467 35.8647 70.6976C35.6634 72.123 35.8127 72.1351 38.054 70.9164C39.0407 70.3737 41.4661 69.2937 43.4288 68.5137C45.3861 67.735 49.1381 66.079 51.7048 64.8536C54.2715 63.6283 56.5754 62.6124 56.7861 62.6124C57.3287 62.6124 56.5047 67.0364 55.6474 68.7284C55.2514 69.519 54.782 70.9403 54.598 71.9269C54.4194 72.9096 54.1248 73.943 53.9448 74.2483C53.7568 74.5603 53.8647 74.6417 54.1914 74.4404C54.5567 74.2084 54.4994 75.2017 54.026 77.223C53.6167 78.9724 53.2754 81.3576 53.2634 82.6043C53.2474 83.8576 53.0554 85.0244 52.8234 85.2497C52.5794 85.4977 52.4047 85.8031 52.3861 86.0164C52.3741 86.2124 52.1901 87.4603 51.9768 88.8297C51.5661 91.451 51.1554 94.2923 51.0914 95.0017C51.0661 95.263 50.8634 95.327 50.5848 95.1643C50.3328 95.0136 48.5635 95.6256 46.7101 96.503C44.8515 97.375 43.0461 98.115 42.7488 98.115C42.4475 98.115 40.8367 98.935 39.1461 99.951C33.9007 103.11 27.2781 104.496 23.3061 103.264C21.8328 102.81 21.8328 102.81 23.4621 101.059C24.2234 100.24 24.7141 99.4657 24.5608 99.3164C24.4208 99.1711 24.7807 98.6924 25.326 98.3111C26.1994 97.6924 30.5301 90.2204 30.2461 89.8111C30.1821 89.7257 30.4195 88.7724 30.7608 87.739C31.0995 86.699 31.4767 85.323 31.5807 84.735C31.6847 84.1283 31.9101 83.275 32.0768 82.8177C32.7235 81.0857 33.2168 77.7417 33.8568 70.807C34.0568 68.5657 34.3407 66.2163 34.4741 65.615C34.6087 65.015 34.8541 63.0524 35.0221 61.2497C35.1835 59.4484 35.5527 57.5323 35.8407 56.9883C36.1274 56.4403 36.4435 55.5911 36.5488 55.0777C38.6555 44.8084 46.4381 32.4936 55.0914 25.731C56.2274 24.847 58.2034 23.2884 59.4594 22.295C62.1274 20.1924 71.7474 15.4324 74.5314 14.8457C75.57 14.6324 77.1941 14.0591 78.0848 13.6057C80.0048 12.6057 84.5248 12.0056 90.6448 11.9256C94.2448 11.8856 95.6181 12.139 98.4848 13.3523V13.3523ZM74.5314 7.85898C77.242 9.09898 76.8821 9.51228 72.4581 10.2323C67.4861 11.0456 66.9941 11.1523 66.3435 11.5523C66.0075 11.7657 65.3327 11.419 64.8127 10.7523C63.9527 9.67233 63.3914 9.57903 57.3288 9.57903C52.2541 9.57903 49.9541 9.83236 47.1194 10.7124C43.4287 11.859 42.9328 12.259 39.1661 17.179C38.2515 18.3657 37.97 18.4323 36.0034 17.8857C33.926 17.299 33.7688 17.3656 31.7995 19.2989C30.6501 20.4323 29.7514 21.6257 29.7514 22.0057C29.7514 22.3924 29.3688 23.0749 28.8781 23.5656C28.3861 24.0549 28.1448 24.5817 28.3288 24.767C28.9141 25.3497 26.418 28.2083 25.326 28.2083C23.294 28.2083 19.202 33.2843 18.598 36.5643C18.2994 38.1856 18.5567 39.2949 19.898 42.1883C21.8034 46.2829 21.7914 46.231 20.6848 46.231C19.3208 46.231 15.0221 49.5911 14.9555 50.7057C14.9221 51.2537 14.8461 51.995 14.7888 52.3737C14.7248 52.7564 14.8461 53.2976 15.0581 53.6043C16.5207 55.6896 15.4407 58.6296 12.5474 60.4363C11.5074 61.0816 10.6367 61.9776 10.6367 62.3936C10.6367 63.2896 12.0421 66.003 13.7234 68.3457C14.3888 69.2764 14.9767 70.4604 15.0794 71.079C15.3127 72.4697 13.9688 74.3589 12.3821 74.8549C10.7461 75.3696 10.1461 78.0137 10.1461 84.735C10.1461 89.5403 10.3074 90.4697 11.4954 92.4857C13.6221 96.0937 13.0848 96.2963 9.81548 93.131C4.82882 88.303 4.36072 86.8604 4.38606 76.5404C4.41272 67.0884 4.25005 67.8563 9.61405 51.2536C10.5141 48.471 11.0914 45.9884 10.9087 45.6831C10.7114 45.3591 10.79 45.1391 11.098 45.1391C11.3914 45.1391 11.6181 44.591 11.6181 43.879C11.6181 43.1924 12.8834 39.9483 14.4034 36.7256C15.9247 33.503 17.1901 30.7016 17.1901 30.559C17.1901 30.4016 17.9234 29.3523 18.826 28.2083C19.7314 27.059 20.4647 25.9844 20.4647 25.8057C20.4647 24.6644 26.8581 17.2989 30.4608 14.2989C37.0835 8.77895 47.8821 4.93895 57.2768 4.76562C60.0075 4.71228 62.2621 4.59228 62.3527 4.49895C62.6767 4.19228 72.294 6.83231 74.5314 7.85898V7.85898ZM40.0728 0.872387C35.5928 2.12572 33.85 3.03231 31.17 5.52564C30.022 6.59231 28.0581 8.13905 26.9101 8.87239C25.7648 9.60572 24.3514 10.9656 23.854 11.7923C23.3487 12.6456 21.5861 14.5657 20.0021 16.0057C18.2474 17.5924 16.5128 19.8589 15.6608 21.6549C14.8861 23.2936 13.9848 24.9283 13.6768 25.2577C12.2781 26.747 11.3794 28.0403 10.5087 29.8483C7.98605 35.035 6.10337 39.4737 6.10337 40.2243C6.10337 40.659 5.89807 41.1831 5.6634 41.3391C5.42207 41.5071 5.08474 42.599 4.90207 43.8004C4.71541 45.0004 4.20869 46.7443 3.75403 47.731C3.30336 48.7136 2.8008 50.7924 2.6328 52.3737C2.4728 53.9564 2.12474 55.851 1.86874 56.6083C1.61274 57.3643 1.24748 60.0484 1.04882 62.6124C0.854151 65.1657 0.526119 69.7163 0.316786 72.719C-0.441881 83.7483 0.19938 92.6643 1.84205 93.875C2.35938 94.2577 3.30611 95.4349 3.97278 96.5269C5.37278 98.8256 8.25141 101.17 10.3074 101.683C11.0727 101.88 11.7275 102.271 11.7275 102.538C11.7275 102.799 12.1087 103.028 12.5474 103.028C12.9834 103.028 13.3674 103.271 13.3674 103.548C13.3674 103.832 13.9101 104.24 14.5687 104.45C15.2207 104.658 16.1034 105.164 16.5061 105.57C16.9248 105.986 17.7101 106.303 18.3114 106.303C18.8834 106.303 20.3035 106.667 21.3941 107.099C24.2501 108.22 26.3087 108.578 29.5314 108.51C33.1367 108.435 35.546 107.747 35.3314 106.852C35.2127 106.36 35.374 106.315 35.8647 106.707C36.7367 107.412 41.7661 106.083 41.7661 105.159C41.7661 104.831 41.9634 104.734 42.2568 104.911C42.5288 105.078 44.3594 104.362 46.3794 103.3C48.4021 102.236 50.0581 101.388 50.1221 101.388C50.1795 101.388 50.2167 103.572 50.2021 106.251C50.1861 108.924 50.3847 112.546 50.642 114.306C50.8954 116.051 51.0914 118.29 51.0754 119.248C51.0567 120.34 51.4274 121.264 52.0594 121.704C52.6194 122.095 53.4715 123.204 53.9715 124.192C54.5261 125.284 55.4527 126.104 56.3754 126.324C57.1927 126.514 58.2007 126.998 58.5874 127.387C58.9794 127.778 61.9194 128.951 65.142 130.002C71.1474 131.96 77.7781 132.814 79.6181 131.879C80.1648 131.595 81.858 131.266 83.4314 131.128C85.0047 130.99 88.4581 130.515 91.1914 130.059C93.9247 129.608 97.4448 129.015 99.1114 128.731C101.978 128.242 104.138 127.726 113.311 125.336C115.551 124.752 118.391 124.048 119.591 123.782C120.791 123.511 122.751 122.859 123.965 122.332C125.165 121.807 126.311 121.427 126.525 121.491C126.738 121.548 127.565 121.346 128.391 121.028C131.418 119.862 139.365 117.8 149.138 115.646C151.871 115.047 156.178 113.908 158.698 113.13C169.831 109.67 179.151 106.634 179.671 106.286C179.965 106.083 181.791 105.386 183.765 104.722C185.725 104.056 187.791 103.311 188.405 103.058C189.005 102.799 191.138 101.932 193.151 101.118C195.178 100.303 197.098 99.2991 197.445 98.8777C197.791 98.4391 198.258 98.115 198.511 98.115C199.325 98.115 205.031 93.875 204.671 93.5243C204.511 93.3577 204.645 93.195 204.978 93.195C205.298 93.195 205.605 92.923 205.605 92.623C205.605 92.311 206.231 90.683 206.978 89.0483C207.725 87.4083 208.338 85.671 208.338 85.2256C208.338 84.787 208.711 83.695 209.125 82.8763C210.311 80.5816 209.645 63.715 208.391 64.4897C208.205 64.599 208.045 64.063 208.005 63.243C207.978 62.4216 207.778 61.2043 207.538 60.431C207.311 59.6616 207.018 58.4617 206.858 57.7004C206.471 55.731 203.538 49.8283 202.298 48.471C201.685 47.8123 201.245 47.207 201.245 47.051C201.245 46.9004 200.458 45.6296 199.485 44.2096C195.658 38.6136 190.311 34.9137 181.578 31.8004C179.338 30.9977 177.418 30.375 177.338 30.419C177.271 30.4657 174.671 30.3044 171.605 30.0617C168.551 29.8244 165.591 29.6749 165.085 29.7323C164.045 29.8536 163.778 28.9523 164.751 28.6243C165.111 28.5083 165.205 27.9363 164.965 27.2269C164.765 26.5696 164.391 26.135 164.151 26.2737C163.685 26.5457 157.271 24.871 153.991 23.6297C152.791 23.1723 151.245 22.787 150.551 22.775C149.085 22.7403 147.525 21.3643 147.858 20.3923C148.178 19.4456 144.711 17.5656 141.165 16.7656C139.525 16.3923 137.658 15.8723 137.071 15.619C136.471 15.3657 135.098 15.0457 134.058 14.9124C133.031 14.779 131.165 14.4056 130.018 14.0989C128.178 13.6189 124.938 13.6323 112.058 14.1923C110.471 14.259 109.791 13.9924 109.191 13.0724C108.431 11.9257 105.498 10.179 104.298 10.179C103.925 10.179 102.885 9.80569 101.898 9.31236C100.925 8.83236 99.0048 8.35236 97.5781 8.24569C96.1514 8.13903 93.6981 7.77895 92.0581 7.43228C89.8847 6.96562 88.4714 6.96562 86.6314 7.43228C84.5514 7.95228 84.0714 7.92562 83.7114 7.23228C83.4714 6.77895 81.938 6.03228 80.298 5.56562C78.658 5.09895 77.1701 4.48569 76.9901 4.17903C76.8181 3.88569 76.0901 3.63228 75.4341 3.63228C74.7794 3.63228 73.978 3.41898 73.714 3.19231C72.6714 2.24564 67.1047 0.872283 63.0634 0.565617C52.4701 -0.287717 43.7728 -0.167613 40.0728 0.872387" fill="#313131"/>
<path d="M82.1782 19.3256C78.4048 19.5123 74.0101 20.5389 70.8754 21.9602C68.0354 23.2416 67.5461 23.923 68.4368 25.367C68.8248 26.0017 69.1821 25.955 70.4914 25.1123C72.4034 23.8776 75.4088 22.7283 77.5368 22.411C82.1248 21.7243 85.9515 20.819 87.9115 19.939L90.0981 18.979L87.3648 19.0856C85.8314 19.1523 83.5515 19.2456 82.1782 19.3256" fill="#313131"/>
<path d="M66.0688 36.5817C65.4715 36.9857 63.6115 37.6497 61.9715 38.0363C60.3302 38.423 58.7208 38.9257 58.4195 39.1444C57.8981 39.5257 56.5075 39.8084 51.4861 40.5724C49.1928 40.9177 48.4942 41.979 49.7382 43.227C50.4582 43.943 51.4342 43.891 52.9062 43.0483C53.2062 42.8763 54.0808 42.6736 54.8461 42.599C55.6075 42.5243 56.3235 42.199 56.4275 41.8883C56.5315 41.583 57.0581 41.3164 57.5474 41.3164C58.4781 41.3164 66.7755 37.2443 67.7049 36.3376C68.5195 35.5416 67.3248 35.715 66.0688 36.5817" fill="#313131"/>
<path d="M59.6247 45.2029C58.2033 45.7682 56.498 46.3297 55.802 46.4497C52.47 47.0457 47.01 48.7709 44.4967 50.0256C43.2447 50.6536 43.458 52.5415 44.77 52.4322C46.026 52.3282 56.1166 48.4603 56.5313 47.923C56.6633 47.7483 57.1687 47.5189 57.602 47.4309C59.2407 47.1029 63.0633 45.1163 63.0633 44.5909C63.0633 43.8856 62.7927 43.9376 59.6247 45.2029" fill="#313131"/>
<path d="M53.9168 55.2963C52.0595 55.9483 49.5568 56.6603 48.4275 56.8563C45.4235 57.3697 41.0488 58.8136 40.2914 59.5296C39.8688 59.9323 39.8034 60.4309 40.0981 60.9202C40.4887 61.5669 40.9768 61.5737 43.2128 60.9723C44.6888 60.5803 46.1034 60.1297 46.4087 59.9617C46.7034 59.8017 47.3621 59.5923 47.8527 59.5003C48.3501 59.415 49.9301 58.7203 51.3501 57.9696C52.7688 57.2243 54.2168 56.603 54.5461 56.5963C55.3074 56.5843 57.9674 54.5976 57.6021 54.3083C57.4554 54.1923 55.7755 54.6443 53.9168 55.2963" fill="#313131"/>
<path d="M50.2314 70.951C49.3127 71.547 43.6208 73.475 38.6528 74.8843C37.4808 75.219 36.8341 76.5403 37.2568 77.7416C37.6088 78.7403 38.7048 78.5616 40.0728 77.2856C40.7275 76.6683 41.4235 76.2937 41.6008 76.4617C41.7782 76.6217 42.5862 76.3043 43.3489 75.7736C44.1142 75.2483 45.3222 74.619 45.9715 74.4163C47.9369 73.8097 52.1435 71.3083 52.1435 70.7497C52.1435 70.0683 51.4861 70.1363 50.2314 70.951" fill="#313131"/>
<path d="M48.3194 78.3844C47.8701 78.6324 45.5328 79.279 43.1301 79.815C37.7234 81.0284 34.1207 82.5577 34.1207 83.6377C34.1207 85.007 35.4847 85.1097 37.7754 83.9097C38.9794 83.2804 40.5527 82.6565 41.2754 82.5165C42.5594 82.2751 44.3874 81.6564 47.2261 80.5017C49.6327 79.5257 50.1688 79.187 50.3888 78.5044C50.6195 77.787 49.5234 77.7244 48.3194 78.3844" fill="#313131"/>
<path d="M45.3141 88.3896C44.4048 88.6976 42.5862 89.2909 41.2182 89.7349C36.0848 91.3989 29.2021 94.5749 29.2021 95.2749C29.2021 96.8149 31.0608 96.4976 35.9235 94.1243C38.7048 92.7616 41.5516 91.4923 42.3102 91.2776C44.5489 90.6323 47.7715 88.8629 47.7715 88.2802C47.7715 87.6522 47.5008 87.663 45.3141 88.3896" fill="#313131"/>
<path d="M31.9354 33.307C31.1634 33.711 29.7795 34.727 28.9048 35.5243C28.0288 36.327 26.8794 37.3883 26.3914 37.847C25.8234 38.3763 25.5914 39.2362 25.7594 40.1656C26.3247 43.2802 26.2208 48.2229 25.5621 49.5029C25.0861 50.4336 25.0554 51.0243 25.4647 51.5256C25.7914 51.9363 25.9221 52.5643 25.7647 53.0029C25.6087 53.4363 25.7368 54.0149 26.0675 54.3376C26.4728 54.7482 27.0314 54.3377 28.0021 52.9177C28.9768 51.5017 29.1727 50.8617 28.6874 50.7057C28.1621 50.5377 28.1674 50.3882 28.7128 50.0429C29.4208 49.5909 29.5315 47.8122 29.1781 42.5709C28.9995 39.8962 29.1208 39.5377 30.7901 37.8177C31.8461 36.7257 33.3541 35.8137 34.4474 35.6057C36.5754 35.195 36.7542 34.7563 35.3222 33.4736C34.1035 32.383 33.7368 32.3656 31.9354 33.307" fill="#313131"/>
<path d="M20.7234 66.4922C20.5221 66.8228 20.8848 67.8042 21.5341 68.6762C22.7914 70.3668 22.6807 71.8975 21.1807 73.5909C20.5287 74.3242 20.4861 74.7628 20.9834 75.6922C21.3368 76.3508 21.902 76.7722 22.27 76.6562C23.2554 76.3336 25.5913 71.6788 24.8873 71.4428C24.126 71.1868 24.126 70.2175 24.8873 70.3909C25.9793 70.6335 25.95 69.4962 24.8207 67.6362C23.726 65.8349 21.5101 65.2188 20.7234 66.4922Z" fill="#313131"/>
<path d="M111.458 38.7483C110.898 39.1443 110.298 40.2764 110.085 41.3164C109.791 42.7897 109.378 43.239 108.098 43.5004C107.205 43.6777 105.445 44.4297 104.191 45.1563C101.511 46.7097 101.098 48.379 103.045 49.7416C104.738 50.931 105.125 50.8389 105.125 49.2323C105.125 47.7536 106.698 46.7724 109.098 46.7724C110.991 46.7724 112.191 45.6296 112.831 43.2269C114.005 38.7482 113.551 37.2283 111.458 38.7483" fill="#313131"/>
<path d="M91.458 54.9202C86.818 57.3815 85.3647 61.3896 87.858 64.7949C90.618 68.5656 90.7247 69.0402 89.1381 70.6975C85.4047 74.5895 89.4447 74.1909 93.5381 70.2629L94.7913 69.0563L92.8313 66.6548C90.2846 63.5428 89.258 61.0588 89.9247 59.6095C90.5513 58.2468 94.3914 56.3535 95.618 56.8095C96.178 57.0162 96.818 56.7683 97.258 56.1669C98.898 53.9176 94.9513 53.0669 91.458 54.9202Z" fill="#313131"/>
<path d="M85.1248 81.7671C83.0981 82.7484 82.9382 82.9857 82.8049 85.1684C82.7115 86.8604 82.9781 87.9111 83.7915 88.9391C84.3915 89.7017 84.9115 90.5337 84.9115 90.7404C84.9115 90.947 85.4181 91.8323 86.0581 92.7043C86.8848 93.8523 87.0982 94.7244 86.8448 95.8737C86.3915 97.8377 87.1782 98.387 88.6715 97.151C90.2582 95.839 90.7381 93.1083 89.5915 91.9417C89.1115 91.451 88.8715 91.0111 89.0848 91.0111C89.3115 91.0111 88.8181 90.3017 87.9648 89.4297C86.0714 87.4604 85.7114 84.3083 87.3648 84.043C90.3248 83.5736 90.9248 83.2803 90.9248 82.327C90.9248 81.7443 90.3648 81.1497 89.6581 80.959C87.9115 80.5017 87.6448 80.5551 85.1248 81.7671" fill="#313131"/>
<path d="M81.9514 104.611C80.9514 106.552 80.8981 107.943 81.7114 110.724C82.1648 112.258 82.6448 112.858 83.4048 112.858C84.3248 112.858 84.4181 112.614 84.0847 111.084C83.8847 110.103 83.4847 109.224 83.2181 109.12C82.6847 108.918 84.0314 107.395 84.7514 107.395C84.9914 107.395 85.2447 106.523 85.3247 105.431C85.4314 103.85 85.2981 103.531 84.6048 103.792C84.1115 103.982 83.8981 103.888 84.0847 103.572C84.2714 103.282 84.0314 103.028 83.5914 103.028C83.1514 103.028 82.4047 103.74 81.9514 104.611" fill="#313131"/>
<path d="M165.472 39.3523C161.045 40.999 157.151 43.1004 157.978 43.3844C158.338 43.511 160.658 42.9723 163.165 42.1883C165.685 41.4029 168.338 40.7684 169.125 40.7684C170.871 40.7684 171.511 39.9071 170.591 38.8057C169.778 37.8297 169.445 37.8697 165.472 39.3523" fill="#313131"/>
<path d="M170.538 42.1122C169.112 42.8589 166.645 43.7589 164.951 44.1522C162.605 44.7055 161.911 45.0989 161.911 45.9002C161.911 47.2242 163.551 46.9402 169.391 44.6015C173.978 42.7655 175.165 42.0255 174.698 41.2588C174.231 40.4908 173.325 40.6762 170.538 42.1122Z" fill="#313131"/>
<path d="M137.498 43.5056C135.258 44.5043 134.205 45.4976 134.765 46.0629C134.951 46.2429 135.805 46.1043 136.631 45.7616C137.458 45.4229 139.525 45.1162 141.165 45.0988C144.658 45.0468 146.072 44.7296 146.072 43.9896C146.072 43.6616 145.885 43.5629 145.591 43.7482C145.285 43.9255 145.018 43.8269 144.898 43.5003C144.525 42.4549 139.858 42.4603 137.498 43.5056" fill="#313131"/>
<path d="M176.392 46.6176C175.765 46.767 174.672 47.3336 173.845 47.923C173.032 48.5123 172.032 48.9616 171.552 48.9616C171.058 48.9616 170.565 49.1882 170.378 49.5029C170.205 49.7989 169.432 49.8976 168.712 49.723C167.898 49.5216 167.378 49.6309 167.378 49.9963C167.378 51.2309 169.125 51.2535 173.818 50.0882C176.445 49.4362 179.005 48.8056 179.552 48.6843C181.245 48.303 181.672 47.8015 180.992 46.9935C180.365 46.2429 178.512 46.0856 176.392 46.6176" fill="#313131"/>
<path d="M136.058 49.8909C135.978 49.9789 135.285 50.1683 134.578 50.2963C133.872 50.4269 133.245 50.567 133.245 50.595C133.245 50.631 132.312 50.7523 131.218 50.8616C128.925 51.099 126.285 52.6349 126.605 53.5469C126.832 54.1829 130.125 54.0669 131.058 53.3963C131.365 53.1829 133.405 52.4029 135.592 51.6696C139.738 50.2896 140.738 49.3949 137.885 49.6029C136.952 49.6656 136.125 49.7989 136.058 49.8909" fill="#313131"/>
<path d="M176.005 52.1776C171.805 53.5936 170.151 54.3949 170.138 55.0256C170.111 55.7656 170.458 55.8282 172.431 55.4576C173.698 55.2202 176.338 54.5176 178.245 53.9056C180.151 53.2923 181.938 52.7843 182.178 52.7843C182.418 52.7843 183.271 52.5296 184.031 52.2362C185.285 51.7562 185.365 51.5949 184.631 50.8736C183.538 49.7763 182.778 49.891 176.005 52.1776" fill="#313131"/>
<path d="M185.072 54.903C184.432 55.4696 174.312 59.1763 172.018 59.6857C171.085 59.887 170.165 60.1643 169.885 60.3269C168.925 60.8616 171.472 61.3203 173.112 60.903C174.018 60.667 176.445 60.0723 178.578 59.559C180.698 59.0376 182.645 58.4964 182.938 58.3284C183.272 58.1484 183.712 57.9804 184.032 57.9124C185.458 57.607 188.445 56.2723 188.792 55.7883C189.578 54.6856 186.218 53.883 185.072 54.903" fill="#313131"/>
<path d="M134.285 59.3095C133.645 59.5642 132.418 59.8456 131.551 59.9389C130.671 60.0256 129.725 60.2628 129.418 60.4601C129.125 60.6495 127.885 60.9895 126.738 61.1975C124.285 61.6482 122.591 62.6068 122.591 63.5428C122.591 64.8068 123.685 64.8415 126.258 63.6575C127.671 63.0055 129.111 62.4975 129.391 62.5601C129.671 62.6188 130.431 62.3882 131.031 62.0695C131.631 61.7402 133.271 61.1402 134.578 60.7588C135.898 60.3722 137.111 59.7429 137.231 59.3909C137.471 58.6682 135.978 58.6242 134.285 59.3095" fill="#313131"/>
<path d="M187.912 60.8215C185.845 61.9082 173.445 65.8922 172.125 65.8922C171.525 65.8922 171.192 66.1869 171.338 66.6029C171.632 67.4336 172.618 67.371 177.752 66.2163C179.992 65.7083 182.392 65.1777 183.045 65.0443C183.698 64.911 184.965 64.519 185.778 64.195C186.605 63.8777 187.952 63.4842 188.672 63.3536C189.445 63.2136 190.352 62.8029 190.752 62.4215C191.338 61.8562 191.298 61.5963 190.472 60.8683C189.592 60.083 189.325 60.0775 187.912 60.8215" fill="#313131"/>
<path d="M132.965 65.783C132.965 66.291 128.498 67.6016 126.138 67.7869C121.058 68.1789 118.231 69.2643 118.231 70.807C118.231 71.9497 119.085 72.7017 119.551 71.9497C119.725 71.6857 121.911 70.9163 124.365 70.2576C126.831 69.6056 129.178 68.8096 129.551 68.5136C129.938 68.2083 130.231 68.1097 130.231 68.295C130.231 68.479 131.005 68.191 131.991 67.6416C133.738 66.6603 134.645 65.3444 133.565 65.3444C133.245 65.3444 132.965 65.5404 132.965 65.783" fill="#313131"/>
<path d="M188.672 70.103C187.312 70.859 185.245 71.8243 184.032 72.279C182.832 72.731 181.352 73.307 180.752 73.5564C178.405 74.5444 174.552 75.5897 172.952 75.6803C172.565 75.703 172.378 75.9576 172.538 76.2416C172.698 76.519 173.765 76.6856 174.858 76.5989C178.298 76.3283 181.578 75.6057 181.312 75.1724C181.192 74.9644 181.632 74.8377 182.285 74.8897C183.432 74.975 185.285 74.3469 189.005 72.6096C189.978 72.1456 191.152 71.731 191.685 71.6564C192.778 71.5057 193.805 69.9364 193.312 69.167C192.792 68.3337 191.352 68.6296 188.672 70.103" fill="#313131"/>
<path d="M132.311 72.7708C132.165 72.9255 130.725 73.2896 129.085 73.5909C127.458 73.8962 125.658 74.2202 125.058 74.3296C124.458 74.4336 123.631 74.5443 123.245 74.5723C122.871 74.6016 122.685 74.8789 122.871 75.1723C123.045 75.4683 122.871 75.5949 122.485 75.4443C121.445 75.0389 115.925 77.0136 115.298 78.0136C115.018 78.4456 114.951 79.2736 115.138 79.7629C115.458 80.5882 115.738 80.5309 117.765 79.2443C119.018 78.4403 120.298 77.7469 120.631 77.6843C121.298 77.5629 125.218 76.3095 126.418 75.8362C127.405 75.4495 127.405 75.4496 129.698 74.9402C130.725 74.7109 131.951 74.2309 132.365 73.8909C132.805 73.5322 133.271 73.3363 133.458 73.4283C133.645 73.5163 133.885 73.3189 133.991 72.9896C134.178 72.3883 132.858 72.2148 132.311 72.7708" fill="#313131"/>
<path d="M192.178 76.2003C191.378 76.8923 186.112 78.7696 181.952 79.8429C179.938 80.3629 177.952 81.0749 177.592 81.4029C177.218 81.7376 176.632 82.027 176.258 82.0563C175.872 82.0857 175.072 82.1496 174.472 82.1936C173.872 82.2402 173.378 82.5456 173.378 82.8763C173.378 83.5616 178.952 83.131 182.392 82.1723C183.592 81.8363 184.952 81.5243 185.405 81.479C186.485 81.3683 194.272 78.3897 194.898 77.839C195.472 77.3497 194.298 75.7203 193.378 75.7203C192.992 75.7203 192.485 75.9163 192.178 76.2003" fill="#313131"/>
<path d="M126.138 83.6656C124.645 84.0136 121.445 84.7296 119.045 85.2603C114.725 86.2083 112.765 87.2576 112.765 88.6096C112.765 89.8576 113.752 90.0003 115.605 89.0203C116.592 88.5003 117.591 88.015 117.818 87.9577C118.058 87.887 118.391 87.803 118.631 87.739C118.885 87.6684 119.218 87.6523 119.485 87.6803C119.725 87.7096 121.445 87.1323 123.298 86.3976C125.165 85.6643 127.365 84.8977 128.191 84.707C129.005 84.5097 129.818 84.1523 129.965 83.9149C130.458 83.1256 128.925 83.0323 126.138 83.6656" fill="#313131"/>
<path d="M191.138 84.9429C189.432 85.9429 187.418 86.6697 176.445 90.267C166.685 93.4617 170.058 93.427 182.392 90.1976C185.405 89.4176 188.218 88.6856 188.672 88.5696C193.592 87.351 194.778 86.895 195.245 86.0403C195.658 85.267 195.552 84.943 194.738 84.4976C193.378 83.7536 193.098 83.7883 191.138 84.9429" fill="#313131"/>
<path d="M125.591 92.5203C123.271 93.3229 119.698 94.0203 115.218 94.5523C109.818 95.199 108.245 96.1523 109.445 98.0576C109.925 98.819 110.525 98.8483 111.391 98.1617C111.698 97.9243 113.805 97.2883 116.045 96.7576C120.405 95.7176 127.458 93.3576 128.218 92.675C129.111 91.8656 127.725 91.7856 125.591 92.5203Z" fill="#313131"/>
<path d="M123.738 99.2522C122.992 99.5575 121.752 99.8815 120.978 99.9695C120.232 100.062 118.712 100.395 117.685 100.707C116.632 101.02 114.405 101.567 112.765 101.915C107.952 102.931 106.205 103.595 106.205 104.391C106.205 105.8 108.018 106.246 110.298 105.408C111.512 104.97 113.352 104.368 114.405 104.068C115.445 103.768 117.058 103.184 117.952 102.78C118.845 102.376 121.258 101.504 123.272 100.847C125.298 100.182 126.965 99.4188 126.965 99.1481C126.965 98.5175 125.432 98.5642 123.738 99.2522" fill="#313131"/>
<path d="M122.591 106.303C122.151 106.598 120.978 106.852 120.058 106.852C119.111 106.852 117.378 107.262 116.231 107.752C115.085 108.243 113.578 108.718 112.925 108.792C112.271 108.866 109.738 109.593 107.325 110.404C103.445 111.701 102.925 112.031 102.925 113.187C102.925 114.168 103.205 114.496 104.031 114.496C105.005 114.496 107.618 113.187 108.378 112.315C108.538 112.13 110.365 111.523 112.485 110.94C116.525 109.831 116.685 109.79 118.605 109.364C120.685 108.9 124.285 106.8 123.951 106.251C123.578 105.651 123.578 105.651 122.591 106.303" fill="#313131"/>
</g>
<defs>
<clipPath id="clip0_1_2">
<rect width="209.745" height="132.259" fill="white"/>
</clipPath>
</defs>
</svg>
