<?xml version="1.0" encoding="UTF-8" standalone="no"?>
<!-- Created with Inkscape (http://www.inkscape.org/) -->

<svg
   version="1.1"
   id="svg2"
   xml:space="preserve"
   width="80.007759"
   height="262.9751"
   viewBox="0 0 80.007759 262.97509"
   sodipodi:docname="wine.svg"
   inkscape:version="1.1.1 (eb90963e84, 2021-10-02)"
   xmlns:inkscape="http://www.inkscape.org/namespaces/inkscape"
   xmlns:sodipodi="http://sodipodi.sourceforge.net/DTD/sodipodi-0.dtd"
   xmlns="http://www.w3.org/2000/svg"
   xmlns:svg="http://www.w3.org/2000/svg"><defs
     id="defs6"><clipPath
       clipPathUnits="userSpaceOnUse"
       id="clipPath4465"><g
         inkscape:label="Clip"
         id="use4467"><path
           d="m 10384.4,9282.04 c -1.3,-2.21 -5.3,-4.11 -8.6,-4.11 -3.3,0 -5,1.9 -3.7,4.11 1.3,2.18 5.4,4.08 8.7,4.08 3.2,0 4.9,-1.9 3.6,-4.08 z m 30.7,12.25 c 0,-2.33 -3,-4.06 -7.1,-4.06 -6.2,0 -6.3,0.57 -1.1,4.02 7.8,5.12 8.2,5.12 8.2,0.04 z m -280.7,81.74 c -1.4,-2.34 -3.8,-3 -6.2,-1.65 -2.3,1.39 -3,3.82 -1.6,6.15 1.3,2.34 3.8,2.98 6.1,1.65 2.4,-1.35 3,-3.82 1.7,-6.15 z m 4.5,30.52 c -1.5,-7.79 -4.2,-13.95 -6.2,-13.95 -1.9,0 -1.9,6.98 0,15.17 1.9,8.18 3.4,16.29 3.2,17.63 -0.7,6.97 2,8.79 3.7,2.46 1.1,-4.11 0.7,-13.51 -0.7,-21.31 z m 846.2,189.87 c -4,-3.98 -4.5,-3.5 -2.5,2.25 1.5,4.08 3.8,6.37 5.1,5.12 1.4,-1.26 0.3,-4.51 -2.6,-7.37 z m -766.6,72.28 c 0,-0.9 -3.7,-1.64 -8.2,-1.64 -4.5,0 -8.2,1.64 -8.2,3.68 0,2.04 3.7,2.77 8.2,1.65 4.5,-1.12 8.2,-2.78 8.2,-3.69 z m -763.68,101.57 c -1.26,-1.35 -4.5,-0.18 -7.38,2.68 -3.95,3.99 -3.46,4.51 2.26,2.47 4.1,-1.52 6.38,-3.76 5.12,-5.15 z m 841.48,19.66 c 0,-2.38 -2.6,-4.06 -6.3,-4.06 -3.7,0 -5.3,1.68 -3.9,4.06 1.5,2.47 4,4.11 6.4,4.11 2.3,0 3.8,-1.64 3.8,-4.11 z m 4.2,12.29 c 0,-2.45 -0.8,-4.1 -1.9,-4.1 -1.1,0 -2.8,1.65 -4.3,4.1 -1.4,2.35 -0.6,4.13 1.9,4.13 2.4,0 4.3,-1.78 4.3,-4.13 z m 26.6,19.45 c -3.7,-2.03 -8,-2.72 -9.2,-1.42 -1.4,1.42 -0.3,2.46 2.6,2.46 2.9,0 3.9,1.69 2.5,4.08 -1.5,2.5 0.2,3.07 4.3,1.47 6.3,-2.52 6.3,-2.91 -0.2,-6.59 z m -830.7,60.03 c -1.32,-1.35 -4.92,-1.52 -7.78,-0.44 -3.37,1.31 -2.46,2.22 2.45,2.48 4.1,0.22 6.64,-0.74 5.33,-2.04 z m 1182.9,21.26 c 54.5,-8.23 116,-28.5 135.2,-44.47 44.2,-36.86 92.3,-95.63 86.1,-105.43 -1.5,-2.45 -0.9,-4.1 1.6,-4.1 2.2,0 5.2,-3.68 6.5,-8.19 1.3,-4.49 4.7,-8.19 7.4,-8.19 2.7,0 5.2,-5.71 5.7,-12.68 0.5,-6.97 2.9,-15.12 5.4,-18.02 2.4,-2.9 5.1,-8.79 5.9,-12.9 0.8,-4.21 4.5,-19.45 8.4,-34.22 6.8,-25.42 6.8,-52.39 0.5,-107.32 -3,-25.81 -14.7,-54.7 -28.9,-71.24 -14.4,-16.85 -25.7,-23.64 -63.8,-38.42 -12.3,-4.72 -26.2,-10.35 -30.7,-12.38 -7.2,-3.21 -49.6,-14.77 -67.6,-18.42 -3.4,-0.68 -29.3,-8.87 -57.1,-18.05 -27.9,-9.18 -55.2,-16.81 -60.2,-16.81 -5,0 -14.2,-1.85 -19.9,-4.06 -5.9,-2.26 -23,-6.84 -38.1,-10.28 -15.3,-3.4 -40.1,-9.81 -56.1,-14.5 -15.8,-4.63 -47.1,-11.91 -69.6,-16.2 -22.6,-4.29 -51.2,-11.74 -63.5,-16.58 -12.3,-4.8 -36.5,-13.12 -53.3,-18.28 -47.5,-14.68 -112.5,-37.15 -121.6,-42.14 -8.8,-4.72 -74.2,-22.3 -100.8,-27.03 l -16,-2.84 9.5,13.51 c 5.1,7.36 10.7,14.42 12.2,15.53 1.6,1.14 6.9,12.31 11.7,24.6 4.8,12.27 11.6,28.11 14.8,34.82 9.9,20.06 29.6,97.33 28.2,110.18 -0.8,6.94 -0.1,14.13 1.7,16.59 1.6,2.34 3.3,8.4 3.7,13.3 0.3,4.94 4.4,27.63 9.2,50.19 4.7,22.52 7.3,43.27 5.7,45.88 -1.7,2.72 -0.8,3.4 2,1.63 5.4,-3.33 7.8,1.82 10.3,22.31 2.4,18.84 6.7,32.79 10.2,32.79 1.5,0 3.2,3.67 3.5,7.75 0.7,10.13 36.7,81.55 47.5,94.23 3,3.56 9.5,15.16 14.2,25.39 4.8,10.47 20.6,30.82 35.8,45.85 15.1,15.08 26,28.98 24.6,31.37 -1.5,2.29 -0.2,3.32 2.6,2.25 3,-1.13 13.6,5.5 23.8,14.93 41.5,38.34 104,68.05 167.1,79.39 37.7,6.75 102.4,6.89 146.2,0.26 z m -105.6,52.88 c 17.1,-5.67 34,-10.43 37.6,-10.65 3.7,-0.26 1.3,-1.99 -5.3,-3.89 -6.5,-1.91 -20.5,-1.91 -30.7,-0.04 -27,4.97 -90.5,-7.23 -90.5,-17.38 0,-1.94 -1.7,-2.29 -4.1,-0.83 -2.3,1.35 -19.3,-4.1 -37.7,-12.07 -18.4,-7.98 -34.9,-14.56 -36.5,-14.56 -5.1,0 -20.9,-7.36 -36.8,-17.23 -8.2,-5.07 -24.2,-14.73 -34.9,-21.05 -21.7,-12.91 -67.1,-57.69 -67.1,-66.13 0,-1.87 -2.8,-6.14 -6.4,-9.84 -6.1,-6.15 -34.6,-49.11 -34.6,-52.05 0,-0.68 3.1,-1.99 7.2,-3.03 5.7,-1.48 5.3,-1.96 -1.7,-2.3 -6.5,-0.31 -11.9,-6.93 -21.3,-26.2 -15.3,-31.53 -34,-73.23 -35.2,-78.65 -0.5,-2.21 -4.1,-11.04 -7.8,-19.23 -3.6,-8.18 -6.7,-17.33 -6.7,-19.87 0,-2.65 -2.6,-10.45 -6,-17.81 -5.7,-12.69 -18.6,-50.03 -18.6,-54.09 0,-1.13 2.3,-0.69 5.1,1.05 4.1,2.42 4.2,1.85 0.5,-2.7 -6.5,-8.19 -25.9,-64.31 -23.2,-67.17 1.3,-1.3 0.5,-4.9 -1.8,-7.75 -3.8,-4.72 -7.6,-25 -11.9,-62.28 -1,-9.09 -4,-24.56 -6.6,-34.82 -2.6,-10.22 -4.3,-18.89 -3.9,-19.45 0.5,-0.56 -3.1,-11.68 -8,-24.76 -10.9,-29.11 -36.5,-67.4 -49.3,-73.64 -12.1,-5.84 -38.92,-10.68 -54.51,-9.83 -6.95,0.4 -16.19,0.7 -21.28,0.7 -4.91,0 -10.13,1.86 -11.46,4.12 -1.38,2.29 0.39,4.1 4.08,4.1 9.22,0 7.79,7.11 -2.04,10.23 -11.23,3.59 -8.62,14.17 6.98,28.02 7.32,6.54 15.09,17.83 17.61,25.63 5.36,16.51 2.44,20.71 -23.37,33.7 -11.46,5.8 -18.2,12.65 -21.27,21.61 -5.42,15.77 -4.11,17.24 20.88,23.91 18.83,5.02 43.59,26.07 49.48,42.01 5.4,14.47 -5.28,31.23 -27.79,43.92 -23.75,13.42 -32.09,24.25 -27.71,35.99 1.48,4.02 13.59,18.01 26.7,30.92 19.66,19.31 23.44,25.25 21.16,32.96 -3.26,10.86 -0.89,9.18 -22.18,15.8 -22.53,6.98 -27.46,19.59 -14.97,38.24 12.32,18.46 35.72,37.82 53.49,44.32 6.6,2.37 7.3,5.49 4.9,20.22 -1.6,9.43 -5.6,22.87 -8.7,29.28 -6.5,13.12 -7.7,22.95 -2.8,22.95 1.8,0 5.8,6.97 8.8,15.16 9.7,27.02 51.1,58.55 76.8,58.55 23.1,0 26.4,3.68 27.2,31.15 1.2,38.18 14.6,47.46 76.5,52.91 14.7,1.34 30.6,4.98 35.6,8.18 14.3,9.33 25.8,23.27 25.8,31.45 0,4.11 2.4,7.67 5.3,7.97 5.8,0.59 12.1,1.99 15.2,3.25 3.5,1.47 18,4.4 24.6,5.02 3.3,0.3 23.1,-0.73 43.6,-2.3 35.2,-2.68 37.8,-2.33 43.4,5.72 3.2,4.68 12.9,13.82 21.1,19.88 14.7,10.96 16.8,11.3 74.5,12.08 53.3,0.73 62.7,-0.22 90.6,-9.4 z m -813.91,10.66 c 0,-4.94 -7.76,-10.31 -10.66,-7.41 -3.03,3.04 2.03,11.09 6.97,11.09 2.21,0 3.69,-1.47 3.69,-3.68 z m 630.81,48.7 c 23.7,-2.2 48.8,-5.1 56.1,-6.3 15.1,-2.7 51.8,-18.14 49.1,-20.75 -0.9,-0.91 -18.4,-2.39 -39.3,-3.33 -47.1,-2.21 -52.2,-3.73 -70.5,-21.31 l -14.7,-14.25 -40.5,0.43 c -22.2,0.22 -46.2,0.66 -52.9,0.95 -29.9,1.31 -34.8,-0.42 -37.3,-13.25 -1.4,-6.97 -4.9,-14.25 -8.1,-16.8 -3.3,-2.55 -5.8,-6.97 -5.8,-10.22 0,-10.92 -28.2,-19.27 -55.7,-16.45 -21.7,2.2 -25.9,1.42 -32.4,-5.69 -4,-4.49 -8.8,-8.18 -10.6,-8.18 -5.7,0 -24.2,-17.79 -24.2,-23.34 0,-2.94 -3.6,-8.44 -8.2,-12.3 -6.1,-5.2 -7.5,-10.21 -5.7,-20.06 2.4,-12.81 2.1,-13.11 -14.3,-13.33 -12.7,-0.13 -20.1,-3.25 -30.1,-12.69 -7.4,-6.93 -14.6,-12.46 -16.2,-12.46 -7.8,0 -29.74,-24.61 -38.03,-42.62 -10.18,-22.13 -11.56,-60.21 -2.51,-69.22 5.31,-5.33 5.81,-11.56 0.8,-10.13 -3.31,1 -26.92,-22.22 -47.62,-46.82 -5.48,-6.49 -10.51,-19.67 -12.2,-31.96 -3.23,-22.92 1.8,-32.14 23.77,-43.58 l 11.47,-5.97 -12.9,-12.07 c -6.95,-6.54 -14.2,-12.09 -15.77,-12.09 -5.06,0 -16.88,-30.31 -15.16,-38.89 0.91,-4.5 1.81,-9.5 2,-11.09 0.61,-5.33 25.59,-31.92 29.97,-31.92 2.17,0 9.39,-3.8 15.54,-8.19 21.39,-15.2 4.51,-35.12 -38.49,-45.38 -11.49,-2.77 -22.27,-7.06 -23.96,-9.53 -1.73,-2.51 -2.08,-13.51 -0.81,-24.99 2.59,-23.25 11.67,-35.3 35.82,-47.64 16.79,-8.62 18.01,-15.07 4.1,-22.13 -4.89,-2.51 -11.23,-6.54 -14.72,-9.48 -6.98,-5.77 -11.72,-33.39 -5.77,-33.39 2.46,0 3.03,-1.04 1.44,-2.65 -1.52,-1.51 0.42,-5.19 4.52,-8.62 6.56,-5.41 6.56,-5.71 0.2,-3.67 -3.7,1.21 -8.1,0.42 -9.43,-1.65 -1.58,-2.52 -4.91,-2.43 -9.41,0.22 -3.77,2.2 -14.94,6.06 -24.39,8.4 -9.4,2.33 -17.42,6.06 -17.42,8.18 0,2.16 -4.28,5.9 -9.6,8.39 -5.79,2.7 -14.35,14.56 -21.5,29.72 -10.17,21.52 -11.89,30.49 -12.08,62.01 -0.12,20.5 1.33,45.1 3.26,55.32 1.93,10.13 4.2,33.17 5.06,51.18 1.61,33.48 2.13,37.3 10.15,75.8 2.55,12.3 5.6,27.21 6.7,32.79 1.19,5.71 2.78,12.38 3.68,15.16 0.91,2.67 2.87,15.54 4.34,28.67 1.43,12.99 6.37,41.36 10.82,62.67 4.5,21.26 9.6,45.38 11.26,53.21 1.71,7.88 6.78,21.7 11.29,30.72 4.49,9.05 9.59,20.83 11.3,26.24 6.72,21.26 34.84,63.05 63.64,94.59 32.14,35.25 100.64,94.23 109.34,94.23 2.9,0 5.3,1.51 5.3,3.25 0,4.38 89.8,47.06 116.8,55.66 21.2,6.6 113.5,15 135.2,12.3 6.8,-0.9 31.5,-3.4 55.3,-5.7 z m -525.55,46.4 c 9.83,-2.6 12.9,-9.4 4.5,-10 -8.6,-0.5 -63.9,-37.4 -83.56,-55.69 -10.22,-9.54 -13.65,-10.74 -17.6,-6.28 -4.06,4.54 -7.38,3.45 -18.87,-6.15 -17.19,-14.38 -20.71,-22.13 -12.69,-28.02 5.37,-3.95 4.78,-6.59 -4.5,-20.54 -5.72,-8.57 -12.07,-16.88 -13.73,-18.01 -1.7,-1.13 -4.33,-6.98 -5.93,-13.12 -1.59,-6.11 -5.41,-13.12 -8.6,-15.77 -3.15,-2.55 -5.73,-7.75 -5.73,-11.43 0,-3.73 -3.53,-12.52 -7.78,-19.49 -4.37,-7.1 -9.06,-18.85 -10.67,-26.6 -1.59,-7.79 -4.56,-16.02 -6.75,-18.66 -2.01,-2.47 -3.47,-6.36 -3.06,-8.19 0.45,-1.85 -0.41,-6.36 -1.83,-9.61 -8.12,-18.84 -18.64,-54.83 -16.91,-57.76 1.17,-1.96 0.47,-4.17 -1.73,-5.56 -6.28,-3.89 -21.79,-59.98 -23.21,-84.14 -0.77,-12.31 -1.74,-22.53 -2.22,-22.53 -0.43,0 -1.26,-6.53 -1.79,-14.33 -1.29,-18.45 -13.76,-90.43 -17.04,-98.31 -5.47,-13.12 -5.63,-24.56 -0.39,-24.56 3.27,0 3.73,-1.21 1.21,-3.07 -2.21,-1.68 -6.68,-10.48 -9.71,-19.06 -10.81,-30.7 -20.79,-43.44 -34.12,-43.44 -9.01,0 -11.7,1.56 -10.04,5.76 1.26,3.21 -4.79,13.51 -13.7,23.34 -8.91,9.84 -15.06,19.07 -13.94,20.88 1.19,1.91 -0.61,4.33 -4.28,5.76 -5.36,2.03 -6,7.75 -4.1,36.03 3.14,46.31 8.83,65.92 21.07,72.37 5.58,2.99 13.88,12.6 18.24,21.22 7.68,15.16 7.71,16.3 0.6,28.89 -4.15,7.37 -9.6,14.51 -12.47,16.37 -2.67,1.7 -5.12,5.94 -5.12,8.8 0,2.94 -2.87,7.92 -6.15,10.65 -6.92,5.71 -6.56,29.58 0.39,26.93 2.48,-0.95 9.65,2.92 15.79,8.5 10.54,9.61 11.16,12.07 9.82,39.53 l -1.43,29.28 17.2,8.71 c 18.44,9.27 31.81,20.83 32.15,27.76 0.1,2.51 -4.89,14.33 -11.25,26.63 -6.37,12.26 -11.43,27.76 -11.36,34.82 0.15,19.1 19.13,43.31 40.42,51.5 21.72,8.36 28.28,16.72 29.7,37.76 0.71,10.65 4.65,19.02 12.51,26.43 10.83,10.26 12.71,10.65 33.59,6.88 27.02,-4.85 39.33,-1.04 39.33,12.12 0,26.7 4.01,33.3 25.8,42.6 11.87,5.1 25.82,9.8 31.54,10.7 16.79,2.7 58.48,2.8 68.4,0.1 z m 291.45,-4.6 c 14.3,-6.1 25.9,-12.9 25.8,-15.1 -0.1,-2.3 -6.4,-5.6 -13.7,-7.3 -31.2,-7.3 -47.6,-13.5 -70.9,-26.6 -27.9,-15.64 -60.7,-38.26 -75.8,-52.16 -5.7,-5.24 -18.4,-10.7 -28.64,-12.3 -10.12,-1.56 -43.44,-9.17 -73.76,-16.8 -30.29,-7.62 -58.24,-13.9 -61.83,-13.9 -10.67,0 -20.67,-10.01 -17.7,-17.63 3.53,-9.09 16.48,-8.79 29.98,0.7 5.92,4.16 18.86,8.75 29.09,10.34 21.28,3.29 69.32,17.67 75.77,22.7 4.93,3.82 22.51,8.48 22.51,5.97 0,-0.85 -7.1,-9 -15.36,-17.58 -37.92,-39.33 -69.77,-78.48 -83.73,-102.82 -24.11,-42.18 -27.89,-49.79 -27.89,-56.52 0,-3.98 -3.75,-14.75 -8.17,-23.37 -4.43,-8.58 -8.2,-19.19 -8.2,-22.92 0,-9.05 -8.58,-13.73 -57.32,-31.14 -21.31,-7.61 -46.88,-16.8 -56.52,-20.31 -31.98,-11.61 -51.98,-24.12 -53.28,-33.35 -1.51,-10.69 -0.39,-10.78 16.42,-1.64 7.4,4.07 25.59,12.17 40.31,18.02 14.68,5.84 42.82,18.26 62.07,27.45 19.25,9.19 36.53,16.81 38.11,16.81 4.07,0 -2.11,-33.18 -8.54,-45.87 -2.97,-5.93 -6.49,-16.59 -7.87,-23.99 -1.34,-7.37 -3.55,-15.12 -4.9,-17.41 -1.41,-2.34 -0.6,-2.95 1.85,-1.44 2.74,1.74 2.31,-5.71 -1.24,-20.87 -3.07,-13.12 -5.63,-31.01 -5.72,-40.36 -0.12,-9.4 -1.56,-18.15 -3.3,-19.84 -1.83,-1.86 -3.14,-4.15 -3.28,-5.75 -0.09,-1.47 -1.47,-10.83 -3.07,-21.1 -3.08,-19.66 -6.16,-40.97 -6.64,-46.29 -0.19,-1.96 -1.71,-2.44 -3.8,-1.22 -1.89,1.13 -15.16,-3.46 -29.06,-10.04 -13.94,-6.54 -27.48,-12.09 -29.71,-12.09 -2.26,0 -14.34,-6.15 -27.02,-13.77 -39.34,-23.69 -89.01,-34.09 -118.8,-24.85 -11.05,3.41 -11.05,3.41 1.17,16.54 5.71,6.14 9.39,11.95 8.24,13.07 -1.05,1.09 1.65,4.68 5.74,7.54 6.55,4.64 39.03,60.68 36.9,63.75 -0.48,0.64 1.3,7.79 3.86,15.54 2.54,7.8 5.37,18.12 6.15,22.53 0.78,4.55 2.47,10.95 3.72,14.38 4.85,12.99 8.55,38.07 13.35,90.08 1.5,16.81 3.63,34.43 4.63,38.94 1.01,4.5 2.85,19.22 4.11,32.74 1.21,13.51 3.98,27.88 6.14,31.96 2.15,4.11 4.52,10.48 5.31,14.33 15.8,77.02 74.17,169.38 139.07,220.1 8.52,6.63 23.34,18.32 32.76,25.77 20.01,15.77 92.16,51.47 113.04,55.87 7.79,1.6 19.97,5.9 26.65,9.3 14.4,7.5 48.3,12 94.2,12.6 27,0.3 37.3,-1.6 58.8,-10.7 z m -179.65,41.2 c 20.33,-9.3 17.63,-12.4 -15.55,-17.8 -37.29,-6.1 -40.98,-6.9 -45.86,-9.9 -2.52,-1.6 -7.58,1 -11.48,6 -6.45,8.1 -10.66,8.8 -56.13,8.8 -38.06,0 -55.31,-1.9 -76.57,-8.5 -27.68,-8.6 -31.4,-11.6 -59.65,-48.5 -6.86,-8.9 -8.97,-9.4 -23.72,-5.3 -15.58,4.4 -16.76,3.9 -31.53,-10.6 -8.62,-8.5 -15.36,-17.45 -15.36,-20.3 0,-2.9 -2.87,-8.02 -6.55,-11.7 -3.69,-3.67 -5.5,-7.62 -4.12,-9.01 4.39,-4.37 -14.33,-25.81 -22.52,-25.81 -15.24,0 -45.93,-38.07 -50.46,-62.67 -2.24,-12.16 -0.31,-20.48 9.75,-42.18 14.29,-30.71 14.2,-30.32 5.9,-30.32 -10.23,0 -42.47,-25.2 -42.97,-33.56 -0.25,-4.11 -0.82,-9.67 -1.25,-12.51 -0.48,-2.87 0.43,-6.93 2.02,-9.23 10.97,-15.64 2.87,-37.69 -18.83,-51.24 -7.8,-4.84 -14.33,-11.56 -14.33,-14.68 0,-6.72 10.54,-27.07 23.15,-44.64 4.99,-6.98 9.4,-15.86 10.17,-20.5 1.75,-10.43 -8.33,-24.6 -20.23,-28.32 -12.27,-3.86 -16.77,-23.69 -16.77,-74.1 0,-36.04 1.21,-43.01 10.12,-58.13 15.95,-27.06 11.92,-28.58 -12.6,-4.84 -37.4,36.21 -40.91,47.03 -40.72,124.43 0.2,70.89 -1.02,65.13 39.21,189.65 6.75,20.87 11.08,39.49 9.71,41.78 -1.48,2.43 -0.89,4.08 1.42,4.08 2.2,0 3.9,4.11 3.9,9.45 0,5.15 9.49,29.48 20.89,53.65 11.41,24.17 20.9,45.18 20.9,46.25 0,1.18 5.5,9.05 12.27,17.63 6.79,8.62 12.29,16.68 12.29,18.02 0,8.56 47.95,63.8 74.97,86.3 49.67,41.4 130.66,70.2 201.12,71.5 20.48,0.4 37.39,1.3 38.07,2 2.43,2.3 74.56,-17.5 91.34,-25.2 z m -258.44,52.4 c -33.6,-9.4 -46.67,-16.2 -66.77,-34.9 -8.61,-8 -23.34,-19.6 -31.95,-25.1 -8.59,-5.5 -19.19,-15.7 -22.92,-21.9 -3.79,-6.4 -17.01,-20.8 -28.89,-31.6 -13.16,-11.9 -26.17,-28.9 -32.56,-42.37 -5.81,-12.29 -12.57,-24.55 -14.88,-27.02 -10.49,-11.17 -17.23,-20.87 -23.76,-34.43 -18.92,-38.9 -33.04,-72.19 -33.04,-77.82 0,-3.26 -1.54,-7.19 -3.3,-8.36 -1.81,-1.26 -4.34,-9.45 -5.71,-18.46 -1.4,-9 -5.2,-22.08 -8.61,-29.48 -3.38,-7.37 -7.15,-22.96 -8.41,-34.82 -1.2,-11.87 -3.81,-26.08 -5.73,-31.76 -1.92,-5.67 -4.66,-25.8 -6.15,-45.03 -1.46,-19.15 -3.92,-53.28 -5.49,-75.8 -5.69,-82.72 -0.88,-149.59 11.44,-158.67 3.88,-2.87 10.98,-11.7 15.98,-19.89 10.5,-17.24 32.09,-34.82 47.51,-38.67 5.74,-1.48 10.65,-4.41 10.65,-6.41 0,-1.96 2.86,-3.68 6.15,-3.68 3.27,0 6.15,-1.82 6.15,-3.9 0,-2.13 4.07,-5.19 9.01,-6.76 4.89,-1.56 11.51,-5.36 14.53,-8.4 3.14,-3.12 9.03,-5.5 13.54,-5.5 4.29,0 14.94,-2.73 23.12,-5.97 21.42,-8.41 36.86,-11.09 61.03,-10.58 27.04,0.56 45.11,5.72 43.5,12.43 -0.89,3.69 0.32,4.03 4,1.09 6.54,-5.29 44.26,4.68 44.26,11.61 0,2.46 1.48,3.19 3.68,1.86 2.04,-1.25 15.77,4.12 30.92,12.08 15.17,7.98 27.59,14.34 28.07,14.34 0.43,0 0.71,-16.38 0.6,-36.47 -0.12,-20.05 1.37,-47.21 3.3,-60.41 1.9,-13.09 3.37,-29.88 3.25,-37.07 -0.14,-8.19 2.64,-15.12 7.38,-18.42 4.2,-2.93 10.59,-11.25 14.34,-18.66 4.16,-8.19 11.11,-14.34 18.03,-15.99 6.13,-1.42 13.69,-5.05 16.59,-7.97 2.94,-2.93 24.99,-11.73 49.16,-19.61 45.04,-14.69 94.77,-21.09 108.57,-14.08 4.1,2.13 16.8,4.6 28.6,5.63 11.8,1.04 37.7,4.6 58.2,8.02 20.5,3.38 46.9,7.83 59.4,9.96 21.5,3.67 37.7,7.54 106.5,25.46 16.8,4.38 38.1,9.66 47.1,11.66 9,2.03 23.7,6.92 32.8,10.87 9,3.94 17.6,6.79 19.2,6.31 1.6,-0.43 7.8,1.09 14,3.47 22.7,8.75 82.3,24.21 155.6,40.37 20.5,4.49 52.8,13.03 71.7,18.87 83.5,25.95 153.4,48.72 157.3,51.33 2.2,1.52 15.9,6.75 30.7,11.73 14.7,4.99 30.2,10.58 34.8,12.48 4.5,1.94 20.5,8.44 35.6,14.55 15.2,6.11 29.6,13.64 32.2,16.8 2.6,3.29 6.1,5.72 8,5.72 6.1,0 48.9,31.8 46.2,34.43 -1.2,1.25 -0.2,2.47 2.3,2.47 2.4,0 4.7,2.04 4.7,4.29 0,2.34 4.7,14.55 10.3,26.81 5.6,12.3 10.2,25.33 10.2,28.67 0,3.29 2.8,11.48 5.9,17.62 8.9,17.21 3.9,143.71 -5.5,137.9 -1.4,-0.82 -2.6,3.2 -2.9,9.35 -0.2,6.16 -1.7,15.29 -3.5,21.09 -1.7,5.77 -3.9,14.77 -5.1,20.48 -2.9,14.77 -24.9,59.04 -34.2,69.22 -4.6,4.94 -7.9,9.48 -7.9,10.65 0,1.13 -5.9,10.66 -13.2,21.31 -28.7,41.97 -68.8,69.72 -134.3,93.07 -16.8,6.02 -31.2,10.69 -31.8,10.36 -0.5,-0.35 -20,0.86 -43,2.68 -22.9,1.78 -45.1,2.9 -48.9,2.47 -7.8,-0.91 -9.8,5.85 -2.5,8.31 2.7,0.87 3.4,5.16 1.6,10.48 -1.5,4.93 -4.3,8.19 -6.1,7.15 -3.5,-2.04 -51.6,10.52 -76.2,19.83 -9,3.43 -20.6,6.32 -25.8,6.41 -11,0.26 -22.7,10.58 -20.2,17.87 2.4,7.1 -23.6,21.2 -50.2,27.2 -12.3,2.8 -26.3,6.7 -30.7,8.6 -4.5,1.9 -14.8,4.3 -22.6,5.3 -7.7,1 -21.7,3.8 -30.3,6.1 -13.8,3.6 -38.1,3.5 -134.7,-0.7 -11.9,-0.5 -17,1.5 -21.5,8.4 -5.7,8.6 -27.7,21.7 -36.7,21.7 -2.8,0 -10.6,2.8 -18,6.5 -7.3,3.6 -21.7,7.2 -32.4,8 -10.7,0.8 -29.1,3.5 -41.4,6.1 -16.3,3.5 -26.9,3.5 -40.7,0 -15.6,-3.9 -19.2,-3.7 -21.9,1.5 -1.8,3.4 -13.3,9 -25.6,12.5 -12.3,3.5 -23.46,8.1 -24.81,10.4 -1.29,2.2 -6.75,4.1 -11.67,4.1 -4.91,0 -10.92,1.6 -12.9,3.3 -7.82,7.1 -49.57,17.4 -79.88,19.7 -79.45,6.4 -144.68,5.5 -172.43,-2.3 v 0"
           style="fill:#313131;fill-opacity:1;fill-rule:nonzero;stroke:none"
           id="path9646" /><path
           d="m 10034.2,10012.2 c -28.3,-1.4 -61.26,-9.1 -84.77,-19.76 -21.3,-9.61 -24.97,-14.72 -18.29,-25.55 2.91,-4.76 5.59,-4.41 15.41,1.91 14.34,9.26 36.88,17.88 52.84,20.26 34.41,5.15 63.11,11.94 77.81,18.54 l 16.4,7.2 -20.5,-0.8 c -11.5,-0.5 -28.6,-1.2 -38.9,-1.8 v 0"
           style="fill:#313131;fill-opacity:1;fill-rule:nonzero;stroke:none"
           id="path9648" /><path
           d="m 9913.38,9882.78 c -4.48,-3.03 -18.43,-8.01 -30.73,-10.91 -12.31,-2.9 -24.38,-6.67 -26.64,-8.31 -3.91,-2.86 -14.34,-4.98 -52,-10.71 -17.2,-2.59 -22.44,-10.55 -13.11,-19.91 5.4,-5.37 12.72,-4.98 23.76,1.34 2.25,1.29 8.81,2.81 14.55,3.37 5.71,0.56 11.08,3 11.86,5.33 0.78,2.29 4.73,4.29 8.4,4.29 6.98,0 69.21,30.54 76.18,37.34 6.11,5.97 -2.85,4.67 -12.27,-1.83 v 0"
           style="fill:#313131;fill-opacity:1;fill-rule:nonzero;stroke:none"
           id="path9650" /><path
           d="m 9865.05,9818.12 c -10.66,-4.24 -23.45,-8.45 -28.67,-9.35 -24.99,-4.47 -65.94,-17.41 -84.79,-26.82 -9.39,-4.71 -7.79,-18.87 2.05,-18.05 9.42,0.78 85.1,29.79 88.21,33.82 0.99,1.31 4.78,3.03 8.03,3.69 12.29,2.46 40.96,17.36 40.96,21.3 0,5.29 -2.03,4.9 -25.79,-4.59 v 0"
           style="fill:#313131;fill-opacity:1;fill-rule:nonzero;stroke:none"
           id="path9652" /><path
           d="m 9822.24,9742.42 c -13.93,-4.89 -32.7,-10.23 -41.17,-11.7 -22.53,-3.85 -55.34,-14.68 -61.02,-20.05 -3.17,-3.02 -3.66,-6.76 -1.45,-10.43 2.93,-4.85 6.59,-4.9 23.36,-0.39 11.07,2.94 21.68,6.32 23.97,7.58 2.21,1.2 7.15,2.77 10.83,3.46 3.73,0.64 15.58,5.85 26.23,11.48 10.64,5.59 21.5,10.25 23.97,10.3 5.71,0.09 25.66,14.99 22.92,17.16 -1.1,0.87 -13.7,-2.52 -27.64,-7.41 v 0"
           style="fill:#313131;fill-opacity:1;fill-rule:nonzero;stroke:none"
           id="path9654" /><path
           d="m 9794.6,9625.01 c -6.89,-4.47 -49.58,-18.93 -86.84,-29.5 -8.79,-2.51 -13.64,-12.42 -10.47,-21.43 2.64,-7.49 10.86,-6.15 21.12,3.42 4.91,4.63 10.13,7.44 11.46,6.18 1.33,-1.2 7.39,1.18 13.11,5.16 5.74,3.94 14.8,8.66 19.67,10.18 14.74,4.55 46.29,23.31 46.29,27.5 0,5.11 -4.93,4.6 -14.34,-1.51 v 0"
           style="fill:#313131;fill-opacity:1;fill-rule:nonzero;stroke:none"
           id="path9656" /><path
           d="m 9780.26,9569.26 c -3.37,-1.86 -20.9,-6.71 -38.92,-10.73 -40.55,-9.1 -67.57,-20.57 -67.57,-28.67 0,-10.27 10.23,-11.04 27.41,-2.04 9.03,4.72 20.83,9.4 26.25,10.45 9.63,1.81 23.34,6.45 44.63,15.11 18.05,7.32 22.07,9.86 23.72,14.98 1.73,5.38 -6.49,5.85 -15.52,0.9 v 0"
           style="fill:#313131;fill-opacity:1;fill-rule:nonzero;stroke:none"
           id="path9658" /><path
           d="m 9757.72,9494.22 c -6.82,-2.31 -20.46,-6.76 -30.72,-10.09 -38.5,-12.48 -90.12,-36.3 -90.12,-41.55 0,-11.55 13.94,-9.17 50.41,8.63 20.86,10.22 42.21,19.74 47.9,21.35 16.79,4.84 40.96,18.11 40.96,22.48 0,4.71 -2.03,4.63 -18.43,-0.82 v 0"
           style="fill:#313131;fill-opacity:1;fill-rule:nonzero;stroke:none"
           id="path9660" /><path
           d="m 9657.38,9907.34 c -5.79,-3.03 -16.17,-10.65 -22.73,-16.63 -6.57,-6.02 -15.19,-13.98 -18.85,-17.42 -4.26,-3.97 -6,-10.42 -4.74,-17.39 4.24,-23.36 3.46,-60.43 -1.48,-70.03 -3.57,-6.98 -3.8,-11.41 -0.73,-15.17 2.45,-3.08 3.43,-7.79 2.25,-11.08 -1.17,-3.25 -0.21,-7.59 2.27,-10.01 3.04,-3.08 7.23,0 14.51,10.65 7.31,10.62 8.78,15.42 5.14,16.59 -3.94,1.26 -3.9,2.38 0.19,4.97 5.31,3.39 6.14,16.73 3.49,56.04 -1.34,20.06 -0.43,22.75 12.09,35.65 7.92,8.19 19.23,15.03 27.43,16.59 15.96,3.08 17.3,6.37 6.56,15.99 -9.14,8.18 -11.89,8.31 -25.4,1.25 v 0"
           style="fill:#313131;fill-opacity:1;fill-rule:nonzero;stroke:none"
           id="path9662" /><path
           d="m 9573.29,9658.45 c -1.51,-2.48 1.21,-9.84 6.08,-16.38 9.43,-12.68 8.6,-24.16 -2.65,-36.86 -4.89,-5.5 -5.21,-8.79 -1.48,-15.76 2.65,-4.94 6.89,-8.1 9.65,-7.23 7.39,2.42 24.91,37.33 19.63,39.1 -5.71,1.92 -5.71,9.19 0,7.89 8.19,-1.82 7.97,6.71 -0.5,20.66 -8.21,13.51 -24.83,18.13 -30.73,8.58 v 0"
           style="fill:#313131;fill-opacity:1;fill-rule:nonzero;stroke:none"
           id="path9664" /><path
           d="m 10253.8,9866.53 c -4.2,-2.97 -8.7,-11.46 -10.3,-19.26 -2.2,-11.05 -5.3,-14.42 -14.9,-16.38 -6.7,-1.33 -19.9,-6.97 -29.3,-12.42 -20.1,-11.65 -23.2,-24.17 -8.6,-34.39 12.7,-8.92 15.6,-8.23 15.6,3.82 0,11.09 11.8,18.45 29.8,18.45 14.2,0 23.2,8.57 28,26.59 8.8,33.59 5.4,44.99 -10.3,33.59 v 0"
           style="fill:#313131;fill-opacity:1;fill-rule:nonzero;stroke:none"
           id="path9666" /><path
           d="m 10103.8,9745.24 c -34.8,-18.46 -45.7,-48.52 -27,-74.06 20.7,-28.28 21.5,-31.84 9.6,-44.27 -28,-29.19 2.3,-26.2 33,3.26 l 9.4,9.05 -14.7,18.01 c -19.1,23.34 -26.8,41.97 -21.8,52.84 4.7,10.22 33.5,24.42 42.7,21 4.2,-1.55 9,0.31 12.3,4.82 12.3,16.87 -17.3,23.25 -43.5,9.35 v 0"
           style="fill:#313131;fill-opacity:1;fill-rule:nonzero;stroke:none"
           id="path9668" /><path
           d="m 10056.3,9543.89 c -15.2,-7.36 -16.4,-9.14 -17.4,-25.51 -0.7,-12.69 1.3,-20.57 7.4,-28.28 4.5,-5.72 8.4,-11.96 8.4,-13.51 0,-1.55 3.8,-8.19 8.6,-14.73 6.2,-8.61 7.8,-15.15 5.9,-23.77 -3.4,-14.73 2.5,-18.85 13.7,-9.58 11.9,9.84 15.5,30.32 6.9,39.07 -3.6,3.68 -5.4,6.98 -3.8,6.98 1.7,0 -2,5.32 -8.4,11.86 -14.2,14.77 -16.9,38.41 -4.5,40.4 22.2,3.52 26.7,5.72 26.7,12.87 0,4.37 -4.2,8.83 -9.5,10.26 -13.1,3.43 -15.1,3.03 -34,-6.06 v 0"
           style="fill:#313131;fill-opacity:1;fill-rule:nonzero;stroke:none"
           id="path9670" /><path
           d="m 10032.5,9372.56 c -7.5,-14.56 -7.9,-24.99 -1.8,-45.85 3.4,-11.5 7,-16 12.7,-16 6.9,0 7.6,1.83 5.1,13.3 -1.5,7.36 -4.5,13.95 -6.5,14.73 -4,1.52 6.1,12.94 11.5,12.94 1.8,0 3.7,6.54 4.3,14.73 0.8,11.86 -0.2,14.25 -5.4,12.29 -3.7,-1.42 -5.3,-0.72 -3.9,1.65 1.4,2.18 -0.4,4.08 -3.7,4.08 -3.3,0 -8.9,-5.34 -12.3,-11.87 v 0"
           style="fill:#313131;fill-opacity:1;fill-rule:nonzero;stroke:none"
           id="path9672" /><path
           d="m 10658.9,9862 c -33.2,-12.35 -62.4,-28.11 -56.2,-30.24 2.7,-0.95 20.1,3.09 38.9,8.97 18.9,5.89 38.8,10.65 44.7,10.65 13.1,0 17.9,6.46 11,14.72 -6.1,7.32 -8.6,7.02 -38.4,-4.1 v 0"
           style="fill:#313131;fill-opacity:1;fill-rule:nonzero;stroke:none"
           id="path9674" /><path
           d="m 10696.9,9841.3 c -10.7,-5.6 -29.2,-12.35 -41.9,-15.3 -17.6,-4.15 -22.8,-7.1 -22.8,-13.11 0,-9.93 12.3,-7.8 56.1,9.74 34.4,13.77 43.3,19.32 39.8,25.07 -3.5,5.76 -10.3,4.37 -31.2,-6.4 v 0"
           style="fill:#313131;fill-opacity:1;fill-rule:nonzero;stroke:none"
           id="path9676" /><path
           d="m 10449.1,9830.85 c -16.8,-7.49 -24.7,-14.94 -20.5,-19.18 1.4,-1.35 7.8,-0.31 14,2.26 6.2,2.54 21.7,4.84 34,4.97 26.2,0.39 36.8,2.77 36.8,8.32 0,2.46 -1.4,3.2 -3.6,1.81 -2.3,-1.33 -4.3,-0.59 -5.2,1.86 -2.8,7.84 -37.8,7.8 -55.5,-0.04 v 0"
           style="fill:#313131;fill-opacity:1;fill-rule:nonzero;stroke:none"
           id="path9678" /><path
           d="m 10740.8,9807.51 c -4.7,-1.12 -12.9,-5.37 -19.1,-9.79 -6.1,-4.42 -13.6,-7.79 -17.2,-7.79 -3.7,0 -7.4,-1.7 -8.8,-4.06 -1.3,-2.22 -7.1,-2.96 -12.5,-1.65 -6.1,1.51 -10,0.69 -10,-2.05 0,-9.26 13.1,-9.43 48.3,-0.69 19.7,4.89 38.9,9.62 43,10.53 12.7,2.86 15.9,6.62 10.8,12.68 -4.7,5.63 -18.6,6.81 -34.5,2.82 v 0"
           style="fill:#313131;fill-opacity:1;fill-rule:nonzero;stroke:none"
           id="path9680" /><path
           d="m 10438.3,9782.96 c -0.6,-0.66 -5.8,-2.08 -11.1,-3.04 -5.3,-0.98 -10,-2.03 -10,-2.24 0,-0.27 -7,-1.18 -15.2,-2 -17.2,-1.78 -37,-13.3 -34.6,-20.14 1.7,-4.77 26.4,-3.9 33.4,1.13 2.3,1.6 17.6,7.45 34,12.95 31.1,10.35 38.6,17.06 17.2,15.5 -7,-0.47 -13.2,-1.47 -13.7,-2.16 v 0"
           style="fill:#313131;fill-opacity:1;fill-rule:nonzero;stroke:none"
           id="path9682" /><path
           d="m 10737.9,9765.81 c -31.5,-10.62 -43.9,-16.63 -44,-21.36 -0.2,-5.55 2.4,-6.02 17.2,-3.24 9.5,1.78 29.3,7.05 43.6,11.64 14.3,4.6 27.7,8.41 29.5,8.41 1.8,0 8.2,1.91 13.9,4.11 9.4,3.6 10,4.81 4.5,10.22 -8.2,8.23 -13.9,7.37 -64.7,-9.78 v 0"
           style="fill:#313131;fill-opacity:1;fill-rule:nonzero;stroke:none"
           id="path9684" /><path
           d="m 10805.9,9745.37 c -4.8,-4.25 -80.7,-32.05 -97.9,-35.87 -7,-1.51 -13.9,-3.59 -16,-4.81 -7.2,-4.01 11.9,-7.45 24.2,-4.32 6.8,1.77 25,6.23 41,10.08 15.9,3.91 30.5,7.97 32.7,9.23 2.5,1.35 5.8,2.61 8.2,3.12 10.7,2.29 33.1,12.3 35.7,15.93 5.9,8.27 -19.3,14.29 -27.9,6.64 v 0"
           style="fill:#313131;fill-opacity:1;fill-rule:nonzero;stroke:none"
           id="path9686" /><path
           d="m 10425,9712.32 c -4.8,-1.91 -14,-4.02 -20.5,-4.72 -6.6,-0.65 -13.7,-2.43 -16,-3.91 -2.2,-1.42 -11.5,-3.97 -20.1,-5.53 -18.4,-3.38 -31.1,-10.57 -31.1,-17.59 0,-9.48 8.2,-9.74 27.5,-0.86 10.6,4.89 21.4,8.7 23.5,8.23 2.1,-0.44 7.8,1.29 12.3,3.68 4.5,2.47 16.8,6.97 26.6,9.83 9.9,2.9 19,7.62 19.9,10.26 1.8,5.42 -9.4,5.75 -22.1,0.61 v 0"
           style="fill:#313131;fill-opacity:1;fill-rule:nonzero;stroke:none"
           id="path9688" /><path
           d="m 10827.2,9700.98 c -15.5,-8.15 -108.5,-38.03 -118.4,-38.03 -4.5,0 -7,-2.21 -5.9,-5.33 2.2,-6.23 9.6,-5.76 48.1,2.9 16.8,3.81 34.8,7.79 39.7,8.79 4.9,1 14.4,3.94 20.5,6.37 6.2,2.38 16.3,5.33 21.7,6.31 5.8,1.05 12.6,4.13 15.6,6.99 4.4,4.24 4.1,6.19 -2.1,11.65 -6.6,5.89 -8.6,5.93 -19.2,0.35 v 0"
           style="fill:#313131;fill-opacity:1;fill-rule:nonzero;stroke:none"
           id="path9690" /><path
           d="m 10415.1,9663.77 c 0,-3.81 -33.5,-13.64 -51.2,-15.03 -38.1,-2.94 -59.3,-11.08 -59.3,-22.65 0,-8.57 6.4,-14.21 9.9,-8.57 1.3,1.98 17.7,7.75 36.1,12.69 18.5,4.89 36.1,10.86 38.9,13.08 2.9,2.29 5.1,3.03 5.1,1.64 0,-1.38 5.8,0.78 13.2,4.9 13.1,7.36 19.9,17.23 11.8,17.23 -2.4,0 -4.5,-1.47 -4.5,-3.29 v 0"
           style="fill:#313131;fill-opacity:1;fill-rule:nonzero;stroke:none"
           id="path9692" /><path
           d="m 10832.9,9631.37 c -10.2,-5.67 -25.7,-12.91 -34.8,-16.32 -9,-3.39 -20.1,-7.71 -24.6,-9.58 -17.6,-7.41 -46.5,-15.25 -58.5,-15.93 -2.9,-0.17 -4.3,-2.08 -3.1,-4.21 1.2,-2.08 9.2,-3.33 17.4,-2.68 25.8,2.03 50.4,7.45 48.4,10.7 -0.9,1.56 2.4,2.51 7.3,2.12 8.6,-0.64 22.5,4.07 50.4,17.1 7.3,3.48 16.1,6.59 20.1,7.15 8.2,1.13 15.9,12.9 12.2,18.67 -3.9,6.25 -14.7,4.03 -34.8,-7.02 v 0"
           style="fill:#313131;fill-opacity:1;fill-rule:nonzero;stroke:none"
           id="path9694" /><path
           d="m 10410.2,9611.36 c -1.1,-1.16 -11.9,-3.89 -24.2,-6.15 -12.2,-2.29 -25.7,-4.72 -30.2,-5.54 -4.5,-0.78 -10.7,-1.61 -13.6,-1.82 -2.8,-0.22 -4.2,-2.3 -2.8,-4.5 1.3,-2.22 0,-3.17 -2.9,-2.04 -7.8,3.04 -49.2,-11.77 -53.9,-19.27 -2.1,-3.24 -2.6,-9.45 -1.2,-13.12 2.4,-6.19 4.5,-5.76 19.7,3.89 9.4,6.03 19,11.23 21.5,11.7 5,0.91 34.4,10.31 43.4,13.86 7.4,2.9 7.4,2.9 24.6,6.72 7.7,1.72 16.9,5.32 20,7.87 3.3,2.69 6.8,4.16 8.2,3.47 1.4,-0.66 3.2,0.82 4,3.29 1.4,4.51 -8.5,5.81 -12.6,1.64 v 0"
           style="fill:#313131;fill-opacity:1;fill-rule:nonzero;stroke:none"
           id="path9696" /><path
           d="m 10859.2,9585.64 c -6,-5.19 -45.5,-19.27 -76.7,-27.32 -15.1,-3.9 -30,-9.24 -32.7,-11.7 -2.8,-2.51 -7.2,-4.68 -10,-4.9 -2.9,-0.22 -8.9,-0.7 -13.4,-1.03 -4.5,-0.35 -8.2,-2.64 -8.2,-5.12 0,-5.14 41.8,-1.91 67.6,5.28 9,2.52 19.2,4.86 22.6,5.2 8.1,0.83 66.5,23.17 71.2,27.3 4.3,3.67 -4.5,15.89 -11.4,15.89 -2.9,0 -6.7,-1.47 -9,-3.6 v 0"
           style="fill:#313131;fill-opacity:1;fill-rule:nonzero;stroke:none"
           id="path9698" /><path
           d="m 10363.9,9529.65 c -11.2,-2.61 -35.2,-7.98 -53.2,-11.96 -32.4,-7.11 -47.1,-14.98 -47.1,-25.12 0,-9.36 7.4,-10.43 21.3,-3.08 7.4,3.9 14.9,7.54 16.6,7.97 1.8,0.53 4.3,1.16 6.1,1.64 1.9,0.53 4.4,0.65 6.4,0.44 1.8,-0.22 14.7,4.11 28.6,9.62 14,5.5 30.5,11.25 36.7,12.68 6.1,1.48 12.2,4.16 13.3,5.94 3.7,5.92 -7.8,6.62 -28.7,1.87 v 0"
           style="fill:#313131;fill-opacity:1;fill-rule:nonzero;stroke:none"
           id="path9700" /><path
           d="m 10851.4,9520.07 c -12.8,-7.5 -27.9,-12.95 -110.2,-39.93 -73.2,-23.96 -47.9,-23.7 44.6,0.52 22.6,5.85 43.7,11.34 47.1,12.21 36.9,9.14 45.8,12.56 49.3,18.97 3.1,5.8 2.3,8.23 -3.8,11.57 -10.2,5.58 -12.3,5.32 -27,-3.34 v 0"
           style="fill:#313131;fill-opacity:1;fill-rule:nonzero;stroke:none"
           id="path9702" /><path
           d="m 10359.8,9463.24 c -17.4,-6.02 -44.2,-11.25 -77.8,-15.24 -40.5,-4.85 -52.3,-12 -43.3,-26.29 3.6,-5.71 8.1,-5.93 14.6,-0.78 2.3,1.78 18.1,6.55 34.9,10.53 32.7,7.8 85.6,25.5 91.3,30.62 6.7,6.07 -3.7,6.67 -19.7,1.16 v 0"
           style="fill:#313131;fill-opacity:1;fill-rule:nonzero;stroke:none"
           id="path9704" /><path
           d="m 10345.9,9412.75 c -5.6,-2.29 -14.9,-4.72 -20.7,-5.38 -5.6,-0.69 -17,-3.19 -24.7,-5.53 -7.9,-2.35 -24.6,-6.45 -36.9,-9.06 -36.1,-7.62 -49.2,-12.6 -49.2,-18.57 0,-10.57 13.6,-13.91 30.7,-7.63 9.1,3.29 22.9,7.8 30.8,10.05 7.8,2.25 19.9,6.63 26.6,9.66 6.7,3.03 24.8,9.57 39.9,14.5 15.2,4.99 27.7,10.71 27.7,12.74 0,4.73 -11.5,4.38 -24.2,-0.78 v 0"
           style="fill:#313131;fill-opacity:1;fill-rule:nonzero;stroke:none"
           id="path9706" /><path
           d="m 10337.3,9359.87 c -3.3,-2.21 -12.1,-4.12 -19,-4.12 -7.1,0 -20.1,-3.07 -28.7,-6.75 -8.6,-3.68 -19.9,-7.24 -24.8,-7.8 -4.9,-0.55 -23.9,-6.01 -42,-12.09 -29.1,-9.73 -33,-12.2 -33,-20.87 0,-7.36 2.1,-9.82 8.3,-9.82 7.3,0 26.9,9.82 32.6,16.36 1.2,1.39 14.9,5.94 30.8,10.31 30.3,8.32 31.5,8.63 45.9,11.82 15.6,3.48 42.6,19.23 40.1,23.35 -2.8,4.5 -2.8,4.5 -10.2,-0.39 v 0"
           style="fill:#313131;fill-opacity:1;fill-rule:nonzero;stroke:none"
           id="path9708" /></g></clipPath></defs><sodipodi:namedview
     id="namedview4"
     pagecolor="#505050"
     bordercolor="#eeeeee"
     borderopacity="1"
     inkscape:pageshadow="0"
     inkscape:pageopacity="0"
     inkscape:pagecheckerboard="0"
     showgrid="false"
     fit-margin-top="0"
     fit-margin-left="0"
     fit-margin-right="0"
     fit-margin-bottom="0"
     inkscape:zoom="0.3726135"
     inkscape:cx="-554.19355"
     inkscape:cy="127.47794"
     inkscape:window-width="2560"
     inkscape:window-height="1440"
     inkscape:window-x="0"
     inkscape:window-y="0"
     inkscape:window-maximized="1"
     inkscape:current-layer="g10" /><g
     id="g8"
     inkscape:groupmode="layer"
     inkscape:label="ink_ext_XXXXXX"
     transform="matrix(1.3333333,0,0,-1.3333333,78.772733,1039.2248)"><g
       id="g10"
       transform="scale(0.1)"><g
         id="g11088"
         transform="translate(-2695.2725,-1328.5744)"><path
           d="m 2663.73,7545.47 c 0.29,-15.62 0.92,-47.51 1.38,-70.68 0.53,-29.49 2.45,-44.27 6.27,-48.92 3.57,-4.32 3.78,-5.65 0.57,-3.73 -3.02,1.82 -5.06,0.99 -5.27,-2.16 -0.24,-2.75 -0.78,-6.9 -1.2,-9.02 -0.41,-2.2 -2.16,-16.11 -3.86,-31.43 -4.07,-36.13 -12.71,-66.24 -24.17,-84.43 -15.4,-24.46 -90.19,-72.84 -119.64,-77.4 -5.4,-0.88 -20.43,-3.2 -33.39,-5.19 -103.69,-16.03 -99.28,-15.86 -160.61,-5.52 -67.15,11.33 -152.2,62.49 -154.24,92.8 -0.5,7.15 -1.78,23.6 -2.86,36.54 -1.08,12.92 -3.04,65.21 -4.32,115.86 -1.29,50.67 -3.41,98.22 -4.73,105.44 -2.29,12.96 -2.21,13.08 7.1,7.27 5.27,-3.28 13.74,-7.1 19.22,-8.63 5.48,-1.55 18.48,-6.82 29.45,-11.97 11,-5.19 25.37,-10.01 32.6,-11 7.1,-0.96 20.43,-5.73 29.48,-10.55 50.24,-26.75 57.63,-30.18 59.67,-28.15 4.94,4.94 1.21,13.12 -7.85,17.18 -5.47,2.49 -9.8,5.99 -9.8,7.98 0,2.12 1.25,2.74 3.11,1.62 5.28,-3.16 62.88,-8.22 93.11,-8.14 40.07,0.09 112.12,10.58 121.76,17.73 4.52,3.36 20.43,6.77 44.34,9.52 21.22,2.4 20.89,1.66 -20.09,-41.58 -27.2,-28.65 -29.91,-32.84 -24.67,-38.29 5.27,-5.43 6.8,-4.89 14.82,5.32 7.89,10.05 35.26,41.62 48.34,55.78 2.24,2.4 9.05,10.58 15.4,18.43 6.32,7.89 13.29,14.16 15.71,14.16 2.44,0 9.42,4.15 16.11,9.63 6.68,5.44 13.04,9.68 14.74,9.81 1.62,0.11 3.19,-12.59 3.52,-28.28 z m -288.27,672.18 c -4.74,-2.7 -9.05,-2.7 -13.74,0 -5.69,3.24 -4.53,3.91 6.85,3.91 11.37,0 12.58,-0.67 6.89,-3.91 z m -203.64,48.88 c 12.16,-5.77 26.2,-13.62 31.43,-17.65 5.48,-4.23 12.41,-6.39 16.65,-5.11 4.32,1.29 7.27,0.42 7.27,-2.16 0,-2.37 -1.78,-3.23 -3.91,-1.99 -2.36,1.45 -3.94,1.58 -3.94,0.42 0,-4.12 29.49,-16.91 45.18,-19.65 8.72,-1.54 23.55,-5.06 33.39,-7.93 65.99,-19.44 131.48,-24.25 183.79,-13.58 11.39,2.33 23.76,3.07 27.28,1.66 3.71,-1.41 11.6,-0.12 18.29,3.03 18.05,8.52 56.84,20.06 59.29,17.61 1.29,-1.29 -11.63,-16.49 -28.32,-33.39 -61.34,-62.04 -69.23,-72.33 -60.05,-77.94 4.74,-2.91 19.64,5.27 19.64,10.79 0,5.24 32.15,42.4 72.72,84.05 23.71,24.34 35.21,33.23 47.09,36.42 17.64,4.78 24.29,4.33 22.38,-1.49 -1.49,-4.49 -1.37,-20.8 0.59,-68.72 0.74,-18.44 1.61,-42.61 1.95,-53.99 0.49,-16.48 1.99,-20.68 7.47,-21.01 5.77,-0.34 5.68,-0.71 -0.59,-2.37 -5.51,-1.45 -6.14,-2.78 -2.36,-5.11 2.74,-1.66 3.74,-5.32 2.16,-7.85 -3.91,-6.27 -4.83,-102.11 -1,-102.11 1.66,0 1.54,-3.16 -0.29,-6.69 -5.86,-11.37 -5.9,-126.61 -0.04,-133.92 2.86,-3.53 3.36,-5.23 1.11,-3.9 -2.53,1.5 -4.1,-18.48 -4.47,-56.19 -0.42,-38.08 0.74,-57.68 3.32,-56.14 2.07,1.25 1.74,-1.79 -0.79,-6.48 -2.95,-5.52 -4.94,-29.27 -5.32,-63.03 l -0.58,-54.19 -17.64,-7.78 c -37.71,-16.56 -49.51,-20.89 -60.88,-22.46 -6.69,-0.92 -15.04,-2.61 -19.27,-3.94 -5.99,-1.92 -5.03,0.57 4.74,12.37 6.8,8.22 11.12,16.45 9.79,18.64 -1.42,2.38 -0.79,2.91 1.58,1.38 2.2,-1.42 9.8,4.52 17.28,13.53 7.47,9.06 18.35,22.06 24.74,29.65 8.93,10.64 10.35,14.58 6.49,18.27 -3.87,3.71 -7.56,1.37 -17.29,-10.79 -6.72,-8.38 -21,-24.17 -31.22,-34.34 -10.22,-10.22 -17.4,-18.98 -15.69,-19.06 1.78,-0.13 0.16,-2.42 -3.75,-5.32 -3.73,-2.78 -9.38,-11 -12.36,-18.06 -2.99,-7.06 -8.81,-13.58 -12.76,-14.33 -3.94,-0.75 -13.57,-2.28 -21.01,-3.32 -7.6,-1.08 -20.84,-3.95 -29.49,-6.31 -19.6,-5.4 -113.11,-10.26 -135.87,-7.11 -9.59,1.33 -25.12,3.45 -34.96,4.74 -41.62,5.44 -65.41,11.87 -77.37,20.89 -7.22,5.44 -18.85,10.13 -26.32,10.63 -13.75,0.91 -43.56,19.05 -49.55,30.15 -3.48,6.51 -6.01,55.39 -10.09,196.38 -1.12,37.7 -2.53,77.6 -3.19,88.36 -0.66,10.84 -1.71,38.12 -2.37,60.88 -0.62,22.8 -2.75,44.31 -4.69,48.13 -2.25,4.31 -1.99,6.85 0.58,6.85 2.78,0 3.4,28.7 1.95,87.2 -2.03,83.26 -2.03,113.96 0.04,158.26 1.45,30.24 -0.58,29.19 29.24,15.12 z m 146.3,355.05 c 3.98,0.96 17.85,-3.74 30.81,-10.43 24.74,-12.82 38.03,-15.69 32.76,-7.05 -1.79,2.91 -0.17,2.53 4.15,-0.96 9.97,-7.98 49.13,-6.02 82.89,4.11 39.66,11.97 61.46,15.82 70.67,12.58 4.33,-1.53 9.64,-2.86 11.8,-2.99 7.84,-0.42 29.61,-15.94 31.6,-22.55 1.24,-3.98 5.52,-8.88 9.85,-11.21 4.31,-2.32 7.63,-6.52 7.63,-9.64 0,-5.55 8.65,-26.7 24.34,-59.66 4.32,-9.06 6.98,-17.94 5.9,-19.64 -1.09,-1.75 -0.13,-7.48 2.16,-12.96 2.32,-5.48 4.39,-12.42 4.73,-15.7 0.33,-3.24 1.83,-12.95 3.32,-21.64 1.54,-8.68 3.82,-30.6 5.11,-49.08 1.33,-18.44 3.24,-34.75 4.32,-36.5 3.78,-6.07 8.26,-67.19 5.48,-74.62 -2.94,-7.94 -47.51,-27.21 -73.79,-31.9 l -14.96,-2.69 13.75,11.58 c 7.48,6.31 17.69,14.91 22.39,18.85 4.85,4.07 13,10.76 18.47,15.17 5.49,4.35 9.89,10.08 10.01,12.94 0.13,2.79 -11.17,-2.98 -24.91,-12.78 -13.75,-9.76 -26.33,-17.86 -27.7,-17.86 -1.42,0 -6.48,-3.53 -11.21,-7.76 -30.23,-27.25 -30.94,-27.58 -55.36,-27.99 -13.21,-0.21 -48.71,-1 -78.94,-1.75 -30.27,-0.74 -57.64,-0.29 -60.87,1 -8.64,3.49 -8.64,3.49 -33.4,6.52 -12.95,1.58 -27.99,4.4 -33.38,6.23 -5.49,1.87 -16.33,4.44 -24.55,5.9 -10.99,1.9 -14.73,4.48 -14.73,10.21 0,5.02 -4.53,9.51 -13.17,13.12 -7.23,3.04 -25.33,15.98 -40.24,28.78 -25.54,21.92 -36.92,26.49 -36.92,14.82 0,-2.69 4.11,-7.84 8.85,-11 4.98,-3.32 13.91,-10.46 20.6,-16.49 6.69,-6.01 15.61,-12.12 20.63,-14.11 4.7,-1.91 8.85,-5.57 8.85,-7.89 0,-4.61 -8.26,-2.71 -38.5,9 -11.41,4.41 -20.43,9.31 -20.43,11.05 0,1.79 -5.1,4.32 -11.79,5.82 -10.59,2.45 -21.93,14.07 -17.65,18.18 1.58,1.55 3.15,15.66 8.02,71.43 1.49,16.9 6.85,41.52 12.66,57.72 1.13,3.16 2.62,7.73 3.25,9.85 15.02,51.82 20.46,66.85 32.17,88.37 13.5,24.74 48.75,62.82 58.19,62.82 2.61,0 12.16,3.36 21.59,7.63 10.21,4.66 19.14,6.45 22.59,4.54 3.07,-1.7 9.01,-2.33 12.96,-1.37 z m 48.08,239.32 c 6.85,-4.99 7.43,-11.34 7.1,-73.79 -0.25,-37.68 -1.53,-83.72 -2.95,-102.7 -2.53,-34.18 -2.62,-34.34 -13.37,-34.34 h -10.79 l 1.78,71.67 c 0.96,39.28 1.66,87.99 1.58,107.81 -0.21,38.06 1.91,42.01 16.65,31.35 z m 111.05,-1.92 c 0.29,-5.94 1.53,-19.22 2.86,-30.23 3.61,-29.9 6.43,-70.68 8.22,-118.6 l 1.62,-43.22 -12.59,-7.48 c -29.06,-17.36 -84.88,-27.36 -91.69,-16.48 -1.61,2.61 -3.56,53.02 -4.31,112.32 -1.09,83.26 -0.33,107.27 3.32,106.05 3.33,-1.11 5.14,-19.84 6.28,-64.19 1.07,-42.82 3.06,-63.58 6.31,-65.61 2.73,-1.7 2.98,-2.95 0.57,-2.95 -2.57,0 -4.35,-14.9 -4.73,-39.28 -0.54,-35.72 0.08,-39.24 6.89,-39.24 8.35,0 13.54,11.74 10.01,22.75 -2.95,9.34 -6.77,85.25 -7.02,139.81 -0.21,44.77 2.08,50.76 18.61,48.6 7.43,-1 7.89,-4.2 8.63,-59.96 0.41,-32.6 0.96,-71.39 1.17,-86.8 0.24,-16.9 -1.91,-33.56 -5.48,-42.23 -5.82,-14.12 -5.73,-14.37 4.31,-16.86 14.5,-3.57 16.53,2.91 14.24,45.34 -2.86,54.2 -2.4,142.07 0.8,152.36 5.73,18.36 9.09,7.85 9.38,-29.06 0.17,-21.18 0.42,-41.11 0.55,-44.36 0.07,-3.28 -0.63,-31.01 -1.59,-62.08 -1.73,-55.35 -1.66,-56.14 6.68,-54.98 7.78,1.13 8.36,3.16 7.61,26.71 -1.29,38.12 0.24,153.4 2.41,180.31 0.71,9.38 6.35,0.75 6.94,-10.64 z m -16.62,108.01 c 1.41,-25.54 3.53,-48.79 4.69,-51.82 2.2,-5.9 -8.84,-12.75 -13.33,-8.26 -3.03,3.03 -1.53,100.16 1.62,105.26 3.74,6.07 4.36,1.96 7.02,-45.18 z m 32.89,55.4 c 1.54,-46.76 3.32,-58.68 9.39,-62.67 4.32,-2.82 4.32,-3.32 0,-3.32 -2.87,0 -4.7,-3.15 -4.12,-7.1 1.87,-13.33 -11.88,-40.03 -20.64,-40.03 -4.31,0 -7.06,15.45 -3.15,17.86 2.12,1.28 2.7,3.57 1.37,5.69 -1.16,1.94 -2.95,27.9 -3.91,57.34 -1.57,47.92 -1.03,54.37 4.9,58.93 12.92,9.84 15.08,6.28 16.16,-26.7 z m -126.9,24.54 c 2.15,-1.62 11.58,-3.94 21.01,-5.11 9.42,-1.2 17.86,-3.03 18.85,-4.15 0.96,-1.08 2.66,-30.82 3.73,-66.15 1.09,-36.13 3.66,-64.82 5.9,-65.61 7.19,-2.61 10.38,17.49 8.65,54.4 -3.62,77.77 -3.71,76.15 3.11,77.57 5.31,1.08 7.23,-2.95 9.18,-19.44 2.7,-22.38 0.74,-108.13 -2.5,-111.37 -3.52,-3.49 -26.16,-8.97 -28.28,-6.86 -1.29,1.34 -16.11,2.04 -32.97,1.62 -46.55,-1.15 -48.38,1.14 -50.33,62.8 -0.83,26.69 -2.4,58.22 -3.49,69.72 l -1.95,21.02 22.59,-2.76 c 12.55,-1.52 24.29,-4.06 26.5,-5.68 z m 137.07,10.8 c -1.44,-2.41 -3.65,-1.99 -5.68,1.16 -5.65,8.64 -4.45,12.87 2.16,7.51 3.11,-2.53 4.77,-6.6 3.52,-8.67 z m -115.49,42.02 c 7.48,-1.29 16.45,-2.53 19.65,-2.74 3.16,-0.21 6.97,-2.07 8.26,-3.95 1.37,-2.07 10.18,-1.74 21.18,0.76 20.43,4.64 42.52,2.08 40.33,-4.7 -2.83,-8.67 -28.54,-18.77 -47.76,-18.68 -40.07,0.12 -80.44,14.2 -80.73,28.11 -0.04,2.86 15.12,6.06 21.39,4.52 2.16,-0.53 10.21,-2.03 17.68,-3.32 z m -32.17,21.59 c -22.81,-1.16 -40.07,-3.94 -43.02,-6.89 -2.79,-2.77 -9.44,-4.9 -15.32,-4.9 -10.31,0 -10.42,-0.37 -12.5,-32.97 -1.67,-26.33 -1.38,-117.06 0.53,-162.2 0.21,-4.73 3.69,-9.64 7.64,-10.8 3.91,-1.16 13.38,-7.64 20.43,-13.95 9.43,-8.43 11.92,-12.99 8.85,-16.12 -2.62,-2.61 -3.25,-8.42 -1.58,-14.73 1.5,-5.66 2.28,-16.65 1.75,-24.13 -0.54,-7.52 -1.87,-42.6 -2.95,-77.57 -1.04,-34.97 -3.53,-66.77 -5.48,-70.31 -1.92,-3.53 -2.92,-9.34 -2.2,-12.75 1.75,-8.13 -5.28,-16.27 -20.97,-24.49 -9.02,-4.7 -13.01,-5.28 -14.12,-2.03 -1.21,3.36 -3.74,3.27 -10.06,-0.38 -4.69,-2.75 -10.51,-4.91 -13.11,-4.91 -6.07,0 -69.07,-65.98 -72.02,-75.41 -1.24,-3.94 -3.74,-7.1 -5.55,-7.1 -1.92,0 -4.28,-2.91 -5.53,-6.85 -1.21,-3.82 -6.69,-19.06 -12.37,-34.39 -5.7,-15.27 -12.04,-34.42 -14.33,-43.18 -2.24,-8.63 -5.82,-21.35 -7.85,-28.28 -2.12,-7.06 -4.48,-16.07 -5.48,-20.6 -0.96,-4.31 -2.78,-12.2 -3.94,-16.9 -1.21,-4.85 -2.91,-19.43 -3.87,-32.38 -1.61,-22.85 -2.53,-28.71 -8.26,-54.98 -1.46,-6.53 -3.03,-62.09 -3.57,-123.75 -0.54,-61.64 -2.33,-129.57 -3.99,-151.21 -3.74,-49.08 -3.53,-188.06 0.38,-217.55 3.49,-26.83 3.9,-32.6 5.15,-75.04 l 0.99,-33.38 7.69,9.42 c 7.3,9.05 7.59,9.09 6.47,1 -0.66,-4.74 -4.32,-10.72 -8.27,-13.54 -6.18,-4.48 -6.76,-9.05 -4.73,-36.13 3.49,-46.76 6.81,-129.64 6.57,-163.78 -0.17,-16.89 1.07,-30.64 2.69,-30.64 1.62,0 3.36,-25.91 3.91,-57.73 0.78,-47.55 4.77,-117.93 7.14,-126.85 0.29,-1.09 1.95,-9.06 3.74,-17.7 5.93,-29.35 55.31,-79.69 100.49,-102.4 11.75,-5.94 25.54,-12.92 31.02,-15.66 18.6,-9.38 69.1,-16.44 119.76,-16.73 43.61,-0.25 58.26,1.41 100.16,11.37 73.47,17.49 75,18.03 97.8,33.1 11.37,7.52 22.96,13.75 25.53,13.75 6.12,0 29.87,24.33 29.87,30.64 0,2.58 3.52,6.9 7.85,9.64 4.31,2.7 7.84,8.43 7.84,12.75 0,4.23 4.48,17.48 9.79,28.85 5.33,11.38 9.85,23.43 9.85,26.33 0,3 2.74,6.86 6.27,8.81 3.53,1.99 6.02,4.24 5.69,5.11 -0.28,0.87 0.29,4.31 1.25,7.47 5.27,16.9 9.17,49.46 6.97,58.51 -1.9,7.89 -2.23,78.57 -0.7,145.72 0.08,3.19 -1.29,17.11 -3,30.44 -1.7,13.36 -2.07,24.54 -0.78,24.54 3.19,0 4.36,42.44 1.53,55.77 -1.49,7.06 -3.94,10.01 -6.84,8.26 -2.66,-1.62 -2.33,0 0.78,3.91 3.28,4.11 4.78,13.37 3.94,23.95 -0.74,9.43 0.13,16.33 1.96,15.12 1.82,-1.16 2.12,1.79 0.66,6.48 -3.11,10.05 -3.06,67.98 0.09,257.67 2.86,170.05 3.12,178.69 5.73,178.69 4.36,0 1.45,207.75 -3.41,245.46 -8.18,63.24 -27.45,159.87 -33.88,169.68 -3.32,5.1 -5.9,9.88 -5.9,10.95 0,1.09 -4.37,10.64 -9.5,20.85 -13.92,27.49 -52,59.67 -70.61,59.67 -3.23,0 -14.36,5.36 -24.58,11.8 -10.17,6.44 -21.84,11.8 -25.7,11.8 -5.19,0 -7.19,3.11 -7.56,11.75 -0.46,11.41 -1.53,18.35 -3.12,20.43 -3.53,4.56 -11.5,87.58 -11.79,122.54 -0.16,21.22 -1.33,40.49 -2.53,42.44 -3.45,5.48 2.32,19.52 7.31,17.78 9.05,-3.08 19.35,13.61 16.4,26.58 -3.15,13.69 -3.78,22.37 -7.47,104.1 -3.41,75.78 -4.78,84.83 -13.25,88.36 -23.51,9.88 -79.31,13.5 -150.78,9.8 v 0"
           style="fill:#313131;fill-opacity:1;fill-rule:nonzero;stroke:none"
           id="path2540" /><path
           d="m 2524.91,8580.92 c -20.18,-22.51 -30.64,-31.06 -72.66,-59.21 -9.06,-6.07 -16.58,-13.37 -16.66,-16.2 -0.16,-7.02 4.86,-5.98 19.76,4.03 7.48,4.98 18.07,11.37 23.97,14.45 5.89,3.03 9.55,7.23 8.26,9.42 -1.37,2.25 -0.58,2.83 1.75,1.38 2.15,-1.34 6.69,-0.21 9.42,2.37 2.99,2.74 9.64,7.13 15.16,10 17.65,9.18 31.02,23.38 32.18,34.17 1.7,16.24 -6.39,16.08 -21.18,-0.41 v 0"
           style="fill:#313131;fill-opacity:1;fill-rule:nonzero;stroke:none"
           id="path2542" /><path
           d="m 2537.87,8528.68 c -25.29,-26.99 -56.97,-51.49 -84.46,-65.27 -11.8,-5.94 -13.09,-14.66 -1.95,-13.04 5.1,0.7 8.97,3.69 8.42,6.47 -0.53,2.75 0.83,3.95 2.95,2.66 6.15,-3.82 46.76,22.71 73.46,48.05 13.34,12.66 28.83,26.45 34.92,31.14 9.43,7.26 10.3,9.34 5.9,14.74 -2.86,3.53 -6.23,6.27 -7.64,6.27 -1.4,0 -15.82,-14.12 -31.6,-31.02 v 0"
           style="fill:#313131;fill-opacity:1;fill-rule:nonzero;stroke:none"
           id="path2544" /><path
           d="m 2241.7,8525.94 c -8.09,-8.14 3.53,-18.36 16.11,-14.16 3.5,1.17 3.66,3.57 0.67,9.06 -4.07,7.47 -12,9.88 -16.78,5.1 v 0"
           style="fill:#313131;fill-opacity:1;fill-rule:nonzero;stroke:none"
           id="path2546" /><path
           d="m 2562.21,8501.9 c -10.64,-10.34 -25.96,-24.04 -34.18,-30.57 -8.26,-6.47 -18.69,-15.02 -23.38,-19.01 -4.57,-3.94 -15.12,-10.72 -22.97,-14.78 -14.9,-7.73 -18.06,-12.88 -10.59,-17.49 10.64,-6.56 117.41,81.14 117.41,96.47 0,7.72 -7.86,3.36 -26.29,-14.62 v 0"
           style="fill:#313131;fill-opacity:1;fill-rule:nonzero;stroke:none"
           id="path2548" /><path
           d="m 2241.84,8493.76 c -2.5,-9.43 5.31,-18.98 14.02,-17.19 7.48,1.49 8.18,18.18 0.8,18.31 -2.08,0 -6.11,1.45 -8.48,2.99 -2.74,1.79 -5.23,0.21 -6.34,-4.11 v 0"
           style="fill:#313131;fill-opacity:1;fill-rule:nonzero;stroke:none"
           id="path2550" /><path
           d="m 2586.54,8477.23 c -1.33,-2.19 0.41,-3.9 3.95,-3.9 3.52,0 5.23,1.71 3.9,3.9 -1.41,2.37 -2.99,3.95 -3.9,3.95 -0.96,0 -2.54,-1.58 -3.95,-3.95 v 0"
           style="fill:#313131;fill-opacity:1;fill-rule:nonzero;stroke:none"
           id="path2552" /><path
           d="m 2561.08,8449.37 c -11.41,-12.42 -27.95,-24.17 -46.42,-33.09 -26.7,-12.92 -37.34,-25.38 -21.59,-25.34 18.84,0.08 91.52,57.97 91.52,72.96 0,8.8 -4.7,5.9 -23.51,-14.53 v 0"
           style="fill:#313131;fill-opacity:1;fill-rule:nonzero;stroke:none"
           id="path2554" /><path
           d="m 2230.33,8458.38 c -1.29,-4.9 2.37,-11.71 10.59,-19.85 13.75,-13.58 18.4,-14.91 24.78,-7.22 3.32,3.94 2.33,6.8 -4.35,12.53 -4.69,4.08 -8.89,6.69 -9.22,5.74 -0.33,-0.96 -5.11,2.45 -10.22,7.26 -9.01,8.47 -9.76,8.56 -11.58,1.54 v 0"
           style="fill:#313131;fill-opacity:1;fill-rule:nonzero;stroke:none"
           id="path2556" /><path
           d="m 2203.62,8425.78 c 0,-7.06 6.28,-15.29 22.39,-29.4 25.53,-22.34 32.47,-25.95 39.28,-20.43 5.74,4.61 3.91,6.77 -20.43,24.38 -8.64,6.22 -21.46,16.73 -28.48,23.29 l -12.76,12 v -9.84 0"
           style="fill:#313131;fill-opacity:1;fill-rule:nonzero;stroke:none"
           id="path2558" /><path
           d="m 2588.41,8426.99 c -14.07,-15.33 -71.67,-65.78 -77.66,-68.07 -11.37,-4.27 -20.22,-16.74 -16.32,-23.04 2.79,-4.57 4.95,-4.12 12.38,2.53 5.1,4.57 11.08,8.72 13.75,9.56 7.51,2.36 59.63,54.64 66.98,67.22 3.49,5.9 7.93,11.01 9.63,11.01 1.87,0 3.11,1.57 3.11,3.9 0,5.69 -5.03,4.32 -11.87,-3.11 v 0"
           style="fill:#313131;fill-opacity:1;fill-rule:nonzero;stroke:none"
           id="path2560" /><path
           d="m 2598,8362.16 c -10.83,-11.25 -31.89,-28.77 -46.8,-39.08 -42.02,-28.89 -50.46,-36.66 -47.71,-43.77 2.82,-7.3 13.25,-4.72 22.21,5.49 3.28,3.73 18.03,16.28 33.34,28.36 34.97,27.62 46.9,38.87 52.75,49.8 2.49,4.72 6.02,7.76 7.76,6.68 3.91,-2.41 8.93,7.55 5.49,11 -4.33,4.32 -6.6,2.75 -27.04,-18.48 v 0"
           style="fill:#313131;fill-opacity:1;fill-rule:nonzero;stroke:none"
           id="path2562" /><path
           d="m 2188.52,8369.23 c 2.52,-5.49 6.84,-9.81 9.79,-9.81 3.04,0 5.31,-2.36 5.31,-5.48 0,-6.69 10.38,-11.59 16.5,-7.81 2.36,1.45 3.23,0.92 1.94,-1.24 -2.32,-3.82 6.69,-11.8 36.17,-31.86 12.96,-8.79 25.58,-10.16 25.29,-2.69 -0.16,3.41 -93.27,68.72 -97.95,68.72 -0.88,0 0.41,-4.32 2.95,-9.83 v 0"
           style="fill:#313131;fill-opacity:1;fill-rule:nonzero;stroke:none"
           id="path2564" /><path
           d="m 2599.08,8167.78 c -17.32,-21.81 -48.67,-53.65 -84.8,-86.17 -12.16,-10.96 -16.53,-17.52 -14.74,-22.26 3.7,-9.59 7.43,-7.85 20.1,9.43 6.36,8.64 13.46,15.74 15.87,15.74 5.68,0 40.15,33.39 56.72,54.98 7.52,9.8 18.43,22.8 24.54,29.24 5.98,6.31 11,13.94 11,16.69 0,11.04 -11.54,3.94 -28.69,-17.65 v 0"
           style="fill:#313131;fill-opacity:1;fill-rule:nonzero;stroke:none"
           id="path2566" /><path
           d="m 2178.5,8176.21 c 2.28,-0.96 3.49,-6.27 2.54,-11.38 -1,-5.53 0.07,-9.64 2.57,-9.64 3.62,0 38.83,-22.38 43.85,-27.86 8.97,-9.84 28.95,-19.64 37.83,-18.56 13.17,1.58 11.8,2.95 -34.18,33.14 -18.47,12.12 -36.99,25.25 -41.44,29.4 -4.32,3.98 -9.76,7.26 -11.79,7.06 -2.04,-0.21 -1.75,-1.21 0.62,-2.16 v 0"
           style="fill:#313131;fill-opacity:1;fill-rule:nonzero;stroke:none"
           id="path2568" /><path
           d="m 2612.16,8132.03 c -2.24,-4.2 -8.76,-12.38 -14.83,-18.65 -5.97,-6.23 -16.02,-17.48 -22.54,-25.34 -21.89,-26.32 -63.83,-69.38 -74.25,-76.24 -11.38,-7.47 -13,-12.91 -4.74,-15.98 2.99,-1.13 9.84,2.12 14.95,6.97 5.2,4.99 15.49,14.62 22.97,21.44 7.51,6.84 20.56,20.59 29.27,30.81 8.6,10.12 23.8,27.49 33.68,38.49 18.36,20.43 27.2,33.93 27.2,41.65 0,7.01 -7.23,5.11 -11.71,-3.15 v 0"
           style="fill:#313131;fill-opacity:1;fill-rule:nonzero;stroke:none"
           id="path2570" /><path
           d="m 2180.08,8115.91 c 0,-7.09 16.48,-21.18 54.2,-46.25 32.6,-21.68 47.91,-27 47.91,-16.58 0,1.96 -13.58,12.3 -30.43,23.18 -16.91,10.88 -37.8,24.95 -46.97,31.55 -17.28,12.55 -24.71,14.95 -24.71,8.1 v 0"
           style="fill:#313131;fill-opacity:1;fill-rule:nonzero;stroke:none"
           id="path2572" /><path
           d="m 2595.97,8052.5 c -11.55,-12.95 -26.58,-29.65 -32.98,-36.71 -6.52,-7.18 -17.02,-20.22 -23.59,-29.27 -6.51,-9.05 -18.43,-22.97 -26.69,-31.23 -12.96,-12.96 -14.17,-15.58 -9.02,-19.81 6.64,-5.52 19.98,-2.49 16.15,3.7 -1.32,2.15 3.41,9.84 10.35,16.9 13.95,14.16 15.57,16.1 30.89,37.71 5.32,7.47 13.46,17.44 17.82,21.79 4.4,4.45 13.25,15.12 19.64,23.75 6.35,8.65 12.46,16.58 13.54,17.61 7.84,7.69 11.71,15.28 8.63,17.16 -1.9,1.2 -13.16,-8.64 -24.74,-21.6 v 0"
           style="fill:#313131;fill-opacity:1;fill-rule:nonzero;stroke:none"
           id="path2574" /><path
           d="m 2170.57,8061.34 c -2.74,-4.44 14.58,-23.95 21.27,-23.95 2.15,0 14.53,-8.11 27.11,-17.7 12.53,-9.59 24.96,-17.64 27.08,-17.64 2.23,0 4.85,-2.37 6.06,-5.53 3.36,-8.63 26.11,-19.64 30.85,-14.9 5.03,5.02 0.79,12.54 -7.06,12.54 -3.11,0 -4.85,1.66 -3.73,3.57 1.15,1.91 -5.49,7.47 -14.54,12.17 -9.02,4.65 -21.18,12.67 -26.5,17.48 -5.39,4.85 -16.89,12.95 -25.53,18.07 -8.64,5.05 -19.53,11.58 -24.13,14.53 -5.52,3.44 -9.3,3.9 -10.88,1.36 v 0"
           style="fill:#313131;fill-opacity:1;fill-rule:nonzero;stroke:none"
           id="path2576" /><path
           d="m 2580.64,7981.99 c -18.47,-21.96 -39.95,-46.92 -48.08,-55.94 -8.18,-9.05 -14.75,-18.51 -14.75,-21.22 0,-2.69 -3.53,-7.1 -7.85,-9.79 -7.05,-4.41 -11.38,-17.15 -4.73,-14 13.74,6.52 28.29,17.61 28.29,21.63 0,2.79 3.56,7.32 7.89,10.01 4.31,2.7 7.84,7.02 7.84,9.64 0,2.57 7.98,13.16 17.64,23.33 9.68,10.22 17.7,20.02 17.7,21.64 0,1.62 8.63,11.01 19.64,21.3 18.44,17.28 25.37,33.06 14.54,33.06 -2.62,0 -19.61,-17.65 -38.13,-39.66 v 0"
           style="fill:#313131;fill-opacity:1;fill-rule:nonzero;stroke:none"
           id="path2578" /><path
           d="m 2174.56,7991.41 c -5.44,-5.4 -1.95,-16.85 5.11,-16.85 3.9,0 22.38,-10.75 41.23,-23.97 18.86,-13.24 35.14,-23 36.34,-21.79 1.2,1.2 7.26,-2.91 13.95,-9.52 11.75,-11.63 24.21,-14.91 28.65,-7.59 1.25,2.12 0,3.94 -2.74,3.94 -2.82,0 -11.79,6.07 -20.01,13.54 -8.26,7.48 -20.15,15.82 -26.54,18.64 -6.27,2.78 -11.59,6.48 -11.59,8.06 0,1.7 -2.36,2.95 -5.48,2.95 -3.15,0 -6.06,1.54 -6.81,3.53 -1.46,3.95 -42.28,31.81 -46.59,31.81 -1.66,0 -3.86,-1.09 -5.52,-2.75 v 0"
           style="fill:#313131;fill-opacity:1;fill-rule:nonzero;stroke:none"
           id="path2580" /><path
           d="m 2600.7,7952.14 c -8.73,-10.18 -16.11,-20.27 -16.11,-21.98 0,-3.02 -18.44,-27.9 -32.3,-43.6 -3.87,-4.32 -6.99,-9.34 -6.99,-11.21 0,-1.99 -1.57,-2.36 -3.89,-0.96 -2.25,1.33 -3.95,0.59 -3.95,-1.78 0,-2.24 -6.27,-12.38 -13.75,-22.17 -7.48,-9.85 -13.75,-20.39 -13.75,-23.18 0,-2.74 -2.28,-5.94 -4.9,-6.89 -3.77,-1.33 -3.81,-2.95 -0.2,-6.86 6.56,-7.05 14.69,0 24.42,21.22 7.52,16.37 40.98,61.26 61.75,82.85 14.69,15.33 32.84,41.99 32.84,48.3 0,9.14 -7.39,4.73 -23.17,-13.74 v 0"
           style="fill:#313131;fill-opacity:1;fill-rule:nonzero;stroke:none"
           id="path2582" /><path
           d="m 2178.84,7926.22 c -1.21,-3.2 9.68,-12.17 28.89,-23.96 16.91,-10.3 32.9,-21.35 35.43,-24.33 6.48,-7.86 44.44,-29.08 51.99,-29.08 13.41,0 5.48,11.05 -19.27,26.87 -14.12,9.05 -26.74,16.33 -28.28,16.33 -1.49,0 -7.84,4.39 -14.12,9.83 -6.31,5.4 -13.17,9.81 -15.32,9.81 -2.16,0 -9.84,4.44 -16.9,9.75 -14.54,10.97 -19.64,12.04 -22.42,4.78 v 0"
           style="fill:#313131;fill-opacity:1;fill-rule:nonzero;stroke:none"
           id="path2584" /><path
           d="m 2601.28,7883.82 c -3.86,-7.06 -11.16,-17.1 -16.69,-22.96 -5.4,-5.74 -14.71,-17.9 -20.64,-26.91 -6.02,-9.27 -19.35,-25.16 -30.23,-36.13 -20.26,-20.43 -22.76,-25.21 -15.5,-29.65 4.33,-2.66 14.25,7.27 46.94,46.92 11.66,14.13 22.71,25.92 24.33,25.92 1.62,0 2.95,1.95 2.95,4.32 0,2.36 7.51,12.17 16.49,21.59 19.14,20.02 20.92,26.46 7.84,28.28 -6.48,0.87 -10.34,-1.95 -15.49,-11.38 v 0"
           style="fill:#313131;fill-opacity:1;fill-rule:nonzero;stroke:none"
           id="path2586" /><path
           d="m 2187.93,7876.76 c 0,-4.69 4.69,-9.43 12.54,-12.66 14.95,-6.15 82.01,-49.38 87.62,-56.48 5.65,-7.06 20.55,-10.8 23.59,-5.89 1.53,2.45 -1.25,7.8 -6.31,12.37 -12.59,11.17 -60.97,42.61 -65.61,42.61 -1.96,0 -6.81,3.52 -10.8,7.85 -3.99,4.31 -9.14,7.26 -11.38,6.47 -2.21,-0.7 -7.68,1.96 -11.58,5.65 -9.85,9.22 -18.07,9.25 -18.07,0.08 v 0"
           style="fill:#313131;fill-opacity:1;fill-rule:nonzero;stroke:none"
           id="path2588" /><path
           d="m 2608.13,7856.71 c -3.11,-2 -4.4,-4.61 -2.94,-6.07 1.41,-1.41 -4.53,-12.21 -12.96,-23.58 -8.39,-11.38 -15.49,-21.89 -15.49,-22.97 0,-1.04 -4.78,-7.06 -10.29,-12.96 -17.62,-18.85 -45.06,-56.22 -49.01,-66.77 -5.19,-13.75 -2.03,-15.08 4.73,-1.95 3.04,5.9 6.44,11.46 7.64,12.54 1.17,1.08 7.27,9.05 13.54,17.69 6.19,8.56 23.05,27.86 36.96,42.4 35.3,36.91 35.72,37.37 35.72,40.48 0,1.55 2.65,5.7 6.26,9.59 5.61,6.16 5.48,7.32 -1.2,11.01 -4.32,2.41 -9.76,2.67 -12.96,0.59 v 0"
           style="fill:#313131;fill-opacity:1;fill-rule:nonzero;stroke:none"
           id="path2590" /><path
           d="m 2185.15,7838.43 c -9.26,-3.65 -5.07,-10.96 10.63,-18.52 8.63,-4.19 15.69,-9.09 15.69,-10.92 0,-1.91 1.79,-3.32 4.12,-3.32 2.28,0 17.89,-9.47 34.38,-20.85 16.49,-11.34 33.35,-20.17 37.12,-19.43 5.12,1.03 6.27,-0.17 4.49,-4.69 -1.5,-3.95 -0.25,-6.11 3.57,-6.11 3.11,0 8.18,-2.74 10.8,-5.89 3.89,-4.7 5.97,-4.99 10.38,-1.33 7.43,6.14 -1.58,15.65 -29.82,31.6 -31.84,17.89 -85.49,52.94 -88.49,57.72 -2.86,4.57 -4.98,4.86 -12.87,1.74 v 0"
           style="fill:#313131;fill-opacity:1;fill-rule:nonzero;stroke:none"
           id="path2592" /><path
           d="m 2591.06,7780.34 c -5.73,-7.47 -10.42,-15.16 -10.42,-17.11 0,-1.95 -4.49,-8.64 -10.01,-14.91 -5.4,-6.18 -17.56,-20.01 -26.49,-30.23 -8.93,-10.21 -19.39,-22.1 -22.79,-25.95 -5.24,-5.86 -5.45,-8.19 -1.38,-13.91 3.99,-5.57 6.48,-6.03 13.16,-2.37 4.7,2.57 8.28,7.81 8.28,12.16 0,4.28 7.21,15.53 16.27,25.34 9.05,9.84 15.45,17.68 14.33,17.68 -1.08,0 4.77,7.06 12.99,15.7 20.98,22.02 28.5,36.92 21.6,42.82 -4.03,3.36 -7.4,1.36 -15.54,-9.22 v 0"
           style="fill:#313131;fill-opacity:1;fill-rule:nonzero;stroke:none"
           id="path2594" /><path
           d="m 2195.78,7748.7 c -3.99,-4.94 -3.53,-6.23 2.74,-8.22 18.06,-5.7 82.52,-39.99 90.02,-47.92 4.45,-4.74 9.22,-7.56 10.51,-6.28 1.24,1.25 6.48,-1.5 11.21,-5.89 4.7,-4.41 11.05,-8.27 13.55,-8.27 2.53,0 6.97,-2.74 9.59,-5.89 5.18,-6.27 19.47,-7.73 19.47,-1.96 0,2 -5.11,6.52 -11.8,10.42 -6.68,3.87 -11.79,8.23 -11.79,10.01 0,1.79 -2.33,3.12 -5.47,3.12 -2.95,0 -7.77,2.78 -10.39,5.9 -7.19,8.63 -101.37,60.87 -109.8,60.87 -1.66,0 -5.35,-2.74 -7.84,-5.89 v 0"
           style="fill:#313131;fill-opacity:1;fill-rule:nonzero;stroke:none"
           id="path2596" /><path
           d="m 2611.29,7728.18 c -3.61,-0.79 -10.55,-7.76 -15.12,-15.19 -4.57,-7.49 -10.66,-15.99 -13.37,-18.7 -2.65,-2.65 -7.72,-10.38 -11.17,-17.07 -3.52,-6.8 -14.95,-19.55 -25.91,-28.93 -22.38,-19.06 -26.21,-31.15 -9.84,-31.15 8.63,0 9.96,1.45 8.47,9.43 -1.13,5.89 -0.17,8.92 2.53,8.06 2.28,-0.76 7.07,0.83 10.22,3.36 9.79,7.96 43.18,48.58 43.18,52.61 0,1.99 5.11,8.39 11.8,14.79 16.06,15.36 15.69,26.48 -0.79,22.79 v 0"
           style="fill:#313131;fill-opacity:1;fill-rule:nonzero;stroke:none"
           id="path2598" /><path
           d="m 2187.93,7687.82 c 0,-2.33 0,-5.11 0,-6.86 0,-1.78 1.25,-3.07 3.11,-3.28 4.45,-0.5 27.91,-12.37 53.82,-27.32 52.24,-30.11 83.89,-44.85 85.67,-39.9 2.45,6.97 -30.28,26.9 -111.99,68.18 -28.66,14.49 -30.61,15.08 -30.61,9.18 v 0"
           style="fill:#313131;fill-opacity:1;fill-rule:nonzero;stroke:none"
           id="path2600" /><path
           d="m 2193.2,7634.63 c -1.25,-3.54 -1.58,-6.53 -0.79,-7.06 0.79,-0.55 10.64,-5.11 22.01,-10.22 11.38,-5.11 20.64,-10.71 20.64,-12.59 0,-1.82 1.95,-3.32 4.32,-3.32 2.32,0 12.53,-5.6 22.38,-12.24 36.5,-24.76 63.62,-36.63 63.62,-27.83 0,5.56 -12.17,14.7 -37.33,27.99 -12.95,6.85 -37.71,21.22 -54.98,31.89 -17.28,10.71 -32.81,19.48 -34.55,19.48 -1.83,0 -4.03,-2.58 -5.32,-6.1 v 0"
           style="fill:#313131;fill-opacity:1;fill-rule:nonzero;stroke:none"
           id="path2602" /><path
           d="m 2198.07,7520.5 c -3.25,-8.5 -1.13,-10.29 13.02,-10.87 6.28,-0.3 10.69,-1.21 9.85,-2.07 -2.03,-2.08 24.29,-20.02 29.4,-20.02 2.37,0 4.33,-1.79 4.33,-3.95 0,-2.12 1.99,-3.91 4.35,-3.91 2.37,0 9.01,-3.39 14.91,-7.67 5.86,-4.2 15.7,-8.89 22.01,-10.38 6.27,-1.55 14.9,-6.03 19.23,-10.01 4.31,-4.04 9.97,-7.27 12.58,-7.27 2.48,0 6.98,-2.78 9.55,-5.9 6.15,-7.48 15.57,-7.72 15.57,-0.42 0,3.08 -5.68,7.82 -12.75,10.64 -7.09,2.82 -15.4,8.26 -18.68,12.17 -3.24,3.9 -20.81,14.69 -39.25,24.17 -18.48,9.42 -42.69,22.58 -54.23,29.39 -23.96,14.16 -26.61,14.71 -29.89,6.1 v 0"
           style="fill:#313131;fill-opacity:1;fill-rule:nonzero;stroke:none"
           id="path2604" /><path
           d="m 2629.02,7514.24 c -3.98,-8.8 -36.17,-49.09 -57.43,-71.88 -5.94,-6.36 -16.74,-19.44 -23.54,-28.45 -6.78,-9.05 -15.78,-17.77 -19.65,-19.06 -9.43,-3.15 -8.22,-13.37 1.58,-13.37 7.48,0 22.68,13.24 23.05,20.06 0.08,1.53 5.77,8.63 12.91,16.1 7.11,7.44 18.15,20.23 24.92,28.87 6.68,8.47 21.35,26.9 32.38,40.65 11.1,13.75 20.28,27.45 20.28,30.23 0,8.48 -10.18,6.28 -14.5,-3.15 v 0"
           style="fill:#313131;fill-opacity:1;fill-rule:nonzero;stroke:none"
           id="path2606" /><path
           d="m 2201.09,7473.79 c -2.74,-7.55 -4.94,-5.78 31.98,-25.79 17.27,-9.34 33.18,-18.43 35.34,-20.14 12.58,-9.96 74.17,-38.58 76.98,-35.75 5.41,5.36 -0.78,10.43 -31.8,26.12 -34.55,17.44 -37.62,19.19 -70.68,40.19 -32.23,20.43 -39.03,22.92 -41.82,15.37 v 0"
           style="fill:#313131;fill-opacity:1;fill-rule:nonzero;stroke:none"
           id="path2608" /><path
           d="m 2619.55,7447.47 c -5.02,-7.15 -25.54,-29.07 -45.97,-49.01 -33.76,-32.97 -40.57,-44.47 -26.32,-44.47 3.11,0 10.34,6.48 16.53,14.74 6.05,8.14 20.8,24.42 32.97,36.46 21.59,21.34 42.81,47.13 42.81,52.11 0,7.23 -12.33,1.16 -20.02,-9.83 v 0"
           style="fill:#313131;fill-opacity:1;fill-rule:nonzero;stroke:none"
           id="path2610" /><path
           d="m 2199.88,7415.65 c 0.3,-6.64 123.93,-66.98 131.4,-64.11 7.89,3.03 7.43,10.09 -0.79,12.74 -3.91,1.25 -16.32,6.61 -27.7,11.93 -11.38,5.31 -22.8,8.39 -25.54,6.84 -2.74,-1.53 -3.66,-1.36 -2.11,0.42 3.15,3.53 -0.42,5.94 -37.76,25.37 -24.33,12.63 -37.87,15.12 -37.5,6.81 v 0"
           style="fill:#313131;fill-opacity:1;fill-rule:nonzero;stroke:none"
           id="path2612" /><path
           d="m 2608.89,7372.47 c -2.62,-7.02 -9.4,-18.48 -15.34,-25.91 -17.31,-21.6 -57.17,-59.31 -62.78,-59.31 -2.7,0 -5.11,-2.78 -5.11,-5.9 0,-12.24 14.87,-4.72 39.54,20.02 47.34,47.51 68.6,73.68 64.82,79.73 -5.31,8.52 -16.48,3.95 -21.13,-8.63 v 0"
           style="fill:#313131;fill-opacity:1;fill-rule:nonzero;stroke:none"
           id="path2614" /><path
           d="m 2191.84,7366.2 c 0,-8.26 28.69,-22.26 36.12,-17.61 2.37,1.46 3.28,0.96 1.99,-1.08 -1.33,-2.03 9.43,-9.8 23.97,-17.28 14.49,-7.47 34.38,-18.93 44.34,-25.61 22.38,-14.99 28.41,-17.37 34.59,-13.59 5.69,3.54 -31.42,28.69 -89.15,60.42 -43.23,23.71 -51.86,26.16 -51.86,14.75 v 0"
           style="fill:#313131;fill-opacity:1;fill-rule:nonzero;stroke:none"
           id="path2616" /><path
           d="m 2618.22,7338.71 c -3.19,-6.36 -19.3,-23.84 -36.21,-39.29 -16.85,-15.49 -28.15,-27.9 -25.33,-27.9 4.98,0 43.23,28.03 62.09,45.47 11.37,10.55 21.05,27.36 17.64,30.72 -5.28,5.32 -12.79,1.58 -18.19,-9 v 0"
           style="fill:#313131;fill-opacity:1;fill-rule:nonzero;stroke:none"
           id="path2618" /><path
           d="m 2198.35,7315.91 c -5.35,-5.48 -1.79,-8.89 28.08,-26.7 42.77,-25.63 95.01,-49.92 101.7,-47.35 9.75,3.78 3.52,11.67 -12.96,16.45 -21.22,6.1 -77.61,36.21 -92.69,49.46 -12.58,11.05 -19.14,13.29 -24.13,8.14 v 0"
           style="fill:#313131;fill-opacity:1;fill-rule:nonzero;stroke:none"
           id="path2620" /></g></g></g></svg>
